<svg xmlns="http://www.w3.org/2000/svg" xmlns:xlink="http://www.w3.org/1999/xlink" width="26" height="26" viewBox="0 0 26 26">
  <defs>
    <clipPath id="clip-ands">
      <rect width="26" height="26"/>
    </clipPath>
  </defs>
  <g id="ands" clip-path="url(#clip-ands)">
    <g id="Group_8153" data-name="Group 8153" transform="translate(-5970 -5627)">
      <g id="warning" transform="translate(5976.587 5610.982)">
        <path id="Path_30328" data-name="Path 30328" d="M12.9,31.621,8.288,23.633a1.962,1.962,0,0,0-3.409,0L.265,31.621a1.971,1.971,0,0,0,1.7,2.959h9.21A1.982,1.982,0,0,0,12.9,31.621ZM6.581,32.807a.734.734,0,1,1,0-1.469.734.734,0,0,1,0,1.469Zm.669-4.747c-.033.569-.068,1.135-.1,1.7-.016.184-.016.352-.016.534a.553.553,0,0,1-.553.534.541.541,0,0,1-.553-.518c-.049-.886-.1-1.756-.149-2.642-.016-.233-.033-.469-.051-.7a.8.8,0,0,1,.569-.8.737.737,0,0,1,.854.417.875.875,0,0,1,.068.369C7.3,27.326,7.267,27.694,7.251,28.06Z" transform="translate(0 0)" fill="#4d4e4e"/>
      </g>
      <path id="Path_640" data-name="Path 640" d="M13,0A13,13,0,1,0,26,13,13.014,13.014,0,0,0,13,0m0,24.375A11.375,11.375,0,1,1,24.375,13,11.388,11.388,0,0,1,13,24.375" transform="translate(5970 5627)" fill="#636363"/>
    </g>
  </g>
</svg>
