<svg xmlns="http://www.w3.org/2000/svg" xmlns:xlink="http://www.w3.org/1999/xlink" width="20" height="20" viewBox="0 0 20 20">
  <defs>
    <clipPath id="clip-bsfile_hv">
      <rect width="20" height="20"/>
    </clipPath>
  </defs>
  <g id="bsfile_hv" clip-path="url(#clip-bsfile_hv)">
    <g id="Group_8144" data-name="Group 8144" transform="translate(1348.561 -1469.957)">
      <path id="Path_30566" data-name="Path 30566" d="M-1329.972,1471.6h0a.269.269,0,0,0-.379-.107.3.3,0,0,0-.1.4,2.8,2.8,0,0,1,.337,1.336,2.62,2.62,0,0,1-2.544,2.684,2.625,2.625,0,0,1-2.543-2.684,2.619,2.619,0,0,1,2.543-2.683,2.437,2.437,0,0,1,1.416.453.268.268,0,0,0,.385-.08.3.3,0,0,0-.075-.406,2.972,2.972,0,0,0-1.726-.553,3.186,3.186,0,0,0-3.1,3.2h-8.575a.8.8,0,0,0-.779.822v.74h-.671a.8.8,0,0,0-.779.821v10.45a.286.286,0,0,0,.278.293.285.285,0,0,0,.278-.293v-10.45a.229.229,0,0,1,.223-.235h.671v12.269a.8.8,0,0,0,.779.822h11.024a.272.272,0,0,0,.2-.086l.44-.465v1.291a.23.23,0,0,1-.223.236h-12.886a.23.23,0,0,1-.224-.236v-1.779a.286.286,0,0,0-.278-.293.287.287,0,0,0-.278.293v1.779a.8.8,0,0,0,.78.822h12.886a.8.8,0,0,0,.779-.822v-1.876l1.368-1.444a.3.3,0,0,0,.081-.207v-9.88a3.339,3.339,0,0,0,1.106-2.5A3.4,3.4,0,0,0-1329.972,1471.6Zm-12.916,6.082a.775.775,0,0,1,.754-.795h8.49a.775.775,0,0,1,.753.795h0a.774.774,0,0,1-.753.794h-8.49a.775.775,0,0,1-.754-.794Zm0,3.441a.776.776,0,0,1,.754-.8h8.49a.775.775,0,0,1,.753.8h0a.775.775,0,0,1-.753.8h-8.49a.776.776,0,0,1-.754-.8Zm9.244,4.236h-8.49a.775.775,0,0,1-.754-.795h0a.776.776,0,0,1,.754-.8h8.49a.775.775,0,0,1,.753.8h0A.775.775,0,0,1-1333.644,1485.356Zm.613,2.039v-1.258a.231.231,0,0,1,.224-.236h1.192Z" fill="#fff"/>
      <path id="Path_30567" data-name="Path 30567" d="M-1332.66,1475.15a.285.285,0,0,0,.278-.293v-1.338h1.268a.285.285,0,0,0,.278-.293.285.285,0,0,0-.278-.293h-1.268v-1.338a.286.286,0,0,0-.278-.293.286.286,0,0,0-.277.293v1.338h-1.268a.285.285,0,0,0-.278.293.285.285,0,0,0,.278.293h1.268v1.338A.285.285,0,0,0-1332.66,1475.15Z" fill="#fff"/>
    </g>
  </g>
</svg>
