<svg xmlns="http://www.w3.org/2000/svg" xmlns:xlink="http://www.w3.org/1999/xlink" width="20" height="20" viewBox="0 0 20 20">
  <defs>
    <clipPath id="clip-capnhat_hv">
      <rect width="20" height="20"/>
    </clipPath>
  </defs>
  <g id="capnhat_hv" clip-path="url(#clip-capnhat_hv)">
    <g id="Group_8143" data-name="Group 8143" transform="translate(1348.377 -1442.034)">
      <path id="Path_30564" data-name="Path 30564" d="M-1345.738,1450.393a1.624,1.624,0,0,0,1.5-.979,6.91,6.91,0,0,1,6.364-4.171,6.887,6.887,0,0,1,4.184,1.414l-.909.138a.7.7,0,0,0-.594.6.694.694,0,0,0,.412.729l5,2.212a.722.722,0,0,0,.675-.05.693.693,0,0,0,.325-.583l.026-5.416a.7.7,0,0,0-.5-.671.716.716,0,0,0-.8.281l-.689,1.018a10.225,10.225,0,0,0-7.13-2.877,10.187,10.187,0,0,0-9.371,6.119,1.59,1.59,0,0,0,.143,1.518,1.65,1.65,0,0,0,1.367.722Zm0,0" fill="#fff"/>
      <path id="Path_30565" data-name="Path 30565" d="M-1328.65,1454.4a1.647,1.647,0,0,0-1.367-.722,1.625,1.625,0,0,0-1.5.979,6.91,6.91,0,0,1-6.363,4.171,6.89,6.89,0,0,1-4.185-1.414l.909-.138a.7.7,0,0,0,.594-.6.692.692,0,0,0-.412-.729l-5-2.212a.722.722,0,0,0-.675.05.7.7,0,0,0-.325.583l-.026,5.416a.7.7,0,0,0,.5.67.714.714,0,0,0,.8-.28l.689-1.018a10.225,10.225,0,0,0,7.131,2.877,10.186,10.186,0,0,0,9.37-6.118,1.592,1.592,0,0,0-.143-1.519Zm0,0" fill="#fff"/>
    </g>
  </g>
</svg>
