<svg xmlns="http://www.w3.org/2000/svg" xmlns:xlink="http://www.w3.org/1999/xlink" width="25" height="29" viewBox="0 0 25 29">
  <defs>
    <clipPath id="clip-chuky">
      <rect width="25" height="29"/>
    </clipPath>
  </defs>
  <g id="chuky" clip-path="url(#clip-chuky)">
    <g id="Group_8146" data-name="Group 8146" transform="translate(-1634.425 -443.395)">
      <g id="Group_7777" data-name="Group 7777" transform="translate(1606.975 456.978)">
        <g id="Group_7776" data-name="Group 7776" transform="translate(27.451 -13.583)">
          <path id="Path_30192" data-name="Path 30192" d="M104.38-9.614c.178-.338.08-1.566-1.672-2.562s-4.767-2.357-5.559-.445S95-6.229,94.629-5.144a8.051,8.051,0,0,1-.78,1.494,6.686,6.686,0,0,1,3.763.856A6.342,6.342,0,0,1,99.573-.959a5.719,5.719,0,0,1,.188-.609,34.88,34.88,0,0,1,2.206-3.958C103.062-7.181,104.2-9.276,104.38-9.614Z" transform="translate(-88.211 13.583)" fill="#636363"/>
          <path id="Path_30193" data-name="Path 30193" d="M77.15,114.8s.863-.035,1.138-.6a.587.587,0,0,1,.338-.249c.214-.044.445-.382.534-.631.063-.177.307-1.2.5-1.891a6.337,6.337,0,0,0-1.962-1.834,6.686,6.686,0,0,0-3.763-.856,20.1,20.1,0,0,1-1.3,1.833.642.642,0,0,0-.115.7,1.18,1.18,0,0,0,.223,1.494s.5-1.165,2.829-.2S77.15,114.8,77.15,114.8Z" transform="translate(-68.529 -98.348)" fill="#636363"/>
          <path id="Path_30194" data-name="Path 30194" d="M27.468,165.667a10.666,10.666,0,0,0,.244-4.032c-.178-1.174,0-1.281,0-1.281a56.6,56.6,0,0,0,4.019-7.194c.294-.489,1.459-.7,2.9-.054,1.494.667,1.388,1.583,1.388,1.583l-2.535,7.474c-.089.24-.5.356-.5.356a10.21,10.21,0,0,0-4.569,3.459c-.258.374-.445.231-.445.231l2.77-6.2a.878.878,0,0,0,.554-.5c.184-.395.111-.818-.163-.945s-.645.089-.829.484a.845.845,0,0,0,0,.8L27.666,165.8s-.15.269-.186.258C27.422,166.036,27.468,165.667,27.468,165.667Z" transform="translate(-27.451 -138.583)" fill="#636363"/>
        </g>
        <path id="Path_30195" data-name="Path 30195" d="M57.433,283.79a.94.94,0,0,0-.125.009l-7.508.9a.429.429,0,0,1-.446-.648c.113-.161.223-.324.333-.487a.685.685,0,0,0-.636-1.011.8.8,0,0,0-.113.009L39.1,283.92l-1.176.163-3.209.445a.631.631,0,0,0-.577.676.646.646,0,0,0,.186.4.681.681,0,0,0,.489.2.8.8,0,0,0,.113-.008l11.728-1.625a.427.427,0,0,1,.44.665l-.229.29a.729.729,0,0,0,.083.935.652.652,0,0,0,.452.18.4.4,0,0,0,.058,0h.006l10.124-1.189h.006a.642.642,0,0,0,.529-.789A.677.677,0,0,0,57.433,283.79Z" transform="translate(-6.116 -270.987)" fill="#636363"/>
      </g>
    </g>
  </g>
</svg>
