<svg xmlns="http://www.w3.org/2000/svg" xmlns:xlink="http://www.w3.org/1999/xlink" width="20" height="20" viewBox="0 0 20 20">
  <defs>
    <clipPath id="clip-chuyentra">
      <rect width="20" height="20"/>
    </clipPath>
  </defs>
  <g id="chuyentra" clip-path="url(#clip-chuyentra)">
    <g id="Group_8142" data-name="Group 8142" transform="translate(1351.784 -1412.868)">
      <path id="Path_30549" data-name="Path 30549" d="M-1332.612,1422.83a.793.793,0,0,0-.828.753,2.383,2.383,0,0,1-2.485,2.258h-5.8v-2.258a.841.841,0,0,0-1.4-.547l-4.969,4.266a.717.717,0,0,0-.259.547.718.718,0,0,0,.259.547l4.969,4.266a.841.841,0,0,0,1.4-.547v-2.258h4.693a5.03,5.03,0,0,0,5.245-4.768v-1.506A.793.793,0,0,0-1332.612,1422.83Z" fill="#f2f2f2"/>
      <path id="Path_30550" data-name="Path 30550" d="M-1350.118,1426.695v-10.039h16.668v4.414a3.121,3.121,0,0,1,.838-.126,3.085,3.085,0,0,1,.828.123v-5.926a2.4,2.4,0,0,0-2.5-2.273h-15a2.4,2.4,0,0,0-2.5,2.273v12.121a2.308,2.308,0,0,0,1.954,2.172,2.485,2.485,0,0,1-.592-1.586A2.448,2.448,0,0,1-1350.118,1426.695Zm5-12.784a.949.949,0,0,1,.991.9.949.949,0,0,1-.991.9.948.948,0,0,1-.99-.9A.949.949,0,0,1-1345.118,1413.911Zm-3.588,0a.949.949,0,0,1,.991.9.949.949,0,0,1-.991.9.948.948,0,0,1-.99-.9A.948.948,0,0,1-1348.706,1413.911Z" fill="#f2f2f2"/>
    </g>
  </g>
</svg>
