<svg xmlns="http://www.w3.org/2000/svg" xmlns:xlink="http://www.w3.org/1999/xlink" width="20" height="20" viewBox="0 0 20 20">
  <defs>
    <clipPath id="clip-chuyenvb_hv">
      <rect width="20" height="20"/>
    </clipPath>
  </defs>
  <g id="chuyenvb_hv" clip-path="url(#clip-chuyenvb_hv)">
    <g id="Group_8135" data-name="Group 8135" transform="translate(1606.885 -1416.131)">
      <path id="Path_30534" data-name="Path 30534" d="M-1599.016,1432.322a1.721,1.721,0,0,1-1.057-1.066h-.515v.014h-.819a.689.689,0,0,1-.707-.668.688.688,0,0,1,.707-.667h1.5a1.721,1.721,0,0,1,.893-.743l4.114-1.484h-6.506a.689.689,0,0,1-.707-.668.658.658,0,0,1,.382-.583.723.723,0,0,1,.325-.085h7.07a.719.719,0,0,1,.325.085.656.656,0,0,1,.382.583.635.635,0,0,1-.048.227l3.819-1.377v-7.31a2.526,2.526,0,0,0-2.592-2.449h-10.841a2.526,2.526,0,0,0-2.593,2.449v12.913a2.526,2.526,0,0,0,2.593,2.449h6.492v-.812Zm-2.391-12.629h7.07a.689.689,0,0,1,.707.668.689.689,0,0,1-.707.668h-7.07a.689.689,0,0,1-.707-.668A.689.689,0,0,1-1601.407,1419.693Zm0,3.562h7.07a.689.689,0,0,1,.707.668.689.689,0,0,1-.707.668h-7.07a.689.689,0,0,1-.707-.668A.689.689,0,0,1-1601.407,1423.255Z" fill="#fff"/>
      <path id="Path_30535" data-name="Path 30535" d="M-1586.893,1426.807a.341.341,0,0,0-.463-.375l-11.145,4.019a.328.328,0,0,0-.223.306.327.327,0,0,0,.221.306l3.131,1.142v3.6a.333.333,0,0,0,.267.319.354.354,0,0,0,.39-.171l1.295-2.428,3.16,2.216a.355.355,0,0,0,.539-.168c2.95-9.139,2.823-8.741,2.828-8.764Zm-2.751,1.151-5.43,3.653-2.336-.852Zm-5.034,4.191,4.733-3.184c-4.073,4.059-3.86,3.845-3.878,3.868s.046-.1-.855,1.592Zm4.437,2.787-2.782-1.951,5.03-5.012Z" fill="#fff"/>
    </g>
  </g>
</svg>
