<svg xmlns="http://www.w3.org/2000/svg" xmlns:xlink="http://www.w3.org/1999/xlink" width="26" height="26" viewBox="0 0 26 26">
  <defs>
    <clipPath id="clip-doimk">
      <rect width="26" height="26"/>
    </clipPath>
  </defs>
  <g id="doimk" clip-path="url(#clip-doimk)">
    <g id="Group_8150" data-name="Group 8150" transform="translate(-1690 -321)">
      <path id="Path_640" data-name="Path 640" d="M13,0A13,13,0,1,0,26,13,13.014,13.014,0,0,0,13,0m0,24.375A11.375,11.375,0,1,1,24.375,13,11.388,11.388,0,0,1,13,24.375" transform="translate(1690 321)" fill="#636363"/>
      <path id="padlock" d="M11.477,4.844h-.4V3.229a3.229,3.229,0,0,0-6.458,0V4.844h-.4A1.212,1.212,0,0,0,3,6.055v5.651a1.212,1.212,0,0,0,1.211,1.211h7.266a1.212,1.212,0,0,0,1.211-1.211V6.055A1.212,1.212,0,0,0,11.477,4.844ZM5.691,3.229a2.153,2.153,0,0,1,4.306,0V4.844H5.691ZM8.382,9v1.226a.538.538,0,0,1-1.076,0V9A1.076,1.076,0,1,1,8.382,9Z" transform="translate(1695 328)" fill="#4d4e4e"/>
    </g>
  </g>
</svg>
