<svg xmlns="http://www.w3.org/2000/svg" xmlns:xlink="http://www.w3.org/1999/xlink" width="20" height="20" viewBox="0 0 20 20">
  <defs>
    <clipPath id="clip-dongtat">
      <rect width="20" height="20"/>
    </clipPath>
  </defs>
  <g id="dongtat" clip-path="url(#clip-dongtat)">
    <g id="Group_8128" data-name="Group 8128" transform="translate(1148.59 -1352.438)">
      <path id="Path_30603" data-name="Path 30603" d="M-1130.8,1366.624a2.541,2.541,0,0,1-1.806-.749l-2.455-2.46-2.525,2.531a2.435,2.435,0,0,1-1.736.72,2.435,2.435,0,0,1-1.736-.72l-.919-.922a2.468,2.468,0,0,1,0-3.48l2.525-2.531-2.454-2.458a2.575,2.575,0,0,1,0-3.622l.494-.495h-3.249a3.927,3.927,0,0,0-3.923,3.931v12.138a3.927,3.927,0,0,0,3.923,3.931h12.155a3.927,3.927,0,0,0,3.922-3.931v-3.041l-.406.408A2.54,2.54,0,0,1-1130.8,1366.624Z" fill="#636363"/>
      <path id="Path_30604" data-name="Path 30604" d="M-1137,1359.013l-3.316,3.324a.778.778,0,0,0,0,1.1l.835.837a.777.777,0,0,0,1.1,0l3.315-3.324,3.251,3.258a.865.865,0,0,0,1.227,0l.706-.707a.872.872,0,0,0,0-1.23l-3.251-3.258,3.316-3.323a.78.78,0,0,0,0-1.1l-.835-.836a.775.775,0,0,0-1.1,0l-3.316,3.323-3.251-3.258a.866.866,0,0,0-1.227,0l-.706.707a.872.872,0,0,0,0,1.229Z" fill="#636363"/>
    </g>
  </g>
</svg>
