<svg xmlns="http://www.w3.org/2000/svg" xmlns:xlink="http://www.w3.org/1999/xlink" width="20" height="20" viewBox="0 0 20 20">
  <defs>
    <clipPath id="clip-duyet">
      <rect width="20" height="20"/>
    </clipPath>
  </defs>
  <g id="duyet" clip-path="url(#clip-duyet)">
    <g id="Group_8137" data-name="Group 8137" transform="translate(1604.43 -1473.174)">
      <path id="Path_30536" data-name="Path 30536" d="M-1589.233,1480.04a2,2,0,0,0-2.073-2.064q-3.127-.008-6.255,0a2.372,2.372,0,0,0-.483.049,2,2,0,0,0-1.585,2.021c0,1.042,0,2.084,0,3.127s0,2.059,0,3.089a2.012,2.012,0,0,0,2.107,2.108c1.517,0,3.034,0,4.551.005a.671.671,0,0,0,.515-.211q1.5-1.516,3.019-3.019a.656.656,0,0,0,.209-.5C-1589.231,1483.111-1589.226,1481.576-1589.233,1480.04Zm-5.487,4.936a.857.857,0,0,1-.59.319.861.861,0,0,1-.591-.319l-.217-.216c-.459-.458-.919-.917-1.375-1.379a.746.746,0,0,1-.238-.529.639.639,0,0,1,.2-.455.634.634,0,0,1,.448-.19.753.753,0,0,1,.515.225c.071.066.139.135.207.2l1.04,1.055,2.945-2.947a1.771,1.771,0,0,1,.177-.161.665.665,0,0,1,.4-.137.652.652,0,0,1,.453.183.653.653,0,0,1,.073.878,1.4,1.4,0,0,1-.152.167S-1593.628,1483.886-1594.72,1484.976Zm2.295,1.929c-.163-1.243.467-1.873,1.746-1.726Z" fill="#636363"/>
      <path id="Path_30537" data-name="Path 30537" d="M-1594.43,1493.174a10.011,10.011,0,0,1-10-10,10.011,10.011,0,0,1,10-10,10.011,10.011,0,0,1,10,10A10.011,10.011,0,0,1-1594.43,1493.174Zm0-18.795a8.806,8.806,0,0,0-8.795,8.795,8.806,8.806,0,0,0,8.795,8.8,8.805,8.805,0,0,0,8.8-8.8A8.8,8.8,0,0,0-1594.43,1474.379Z" fill="#636363"/>
    </g>
  </g>
</svg>
