<svg xmlns="http://www.w3.org/2000/svg" width="26" height="26" viewBox="0 0 26 26">
  <g id="Group_8145" data-name="Group 8145" transform="translate(-1699 -533)">
    <path id="Path_640" data-name="Path 640" d="M13,0A13,13,0,1,0,26,13,13.014,13.014,0,0,0,13,0m0,24.375A11.375,11.375,0,1,1,24.375,13,11.388,11.388,0,0,1,13,24.375" transform="translate(1699 533)" fill="#636363"/>
    <g id="reply" transform="translate(1704 540)">
      <g id="Group_7786" data-name="Group 7786" transform="translate(2.915 0)">
        <g id="Group_7785" data-name="Group 7785">
          <path id="Path_30211" data-name="Path 30211" d="M.16,76.486l4.858-4.372a.486.486,0,0,1,.811.361v2.442a6.646,6.646,0,0,1,6.548,5.71l.249,1.988a.484.484,0,0,1-.32.518.473.473,0,0,1-.162.029.487.487,0,0,1-.412-.228l-.489-.783c-.97-1.551-2.91-3.361-5.188-3.361H5.829v2.429a.485.485,0,0,1-.81.361L.161,77.209a.487.487,0,0,1,0-.723Z" transform="translate(0 -71.989)" fill="#4d4e4e"/>
        </g>
      </g>
      <g id="Group_7788" data-name="Group 7788" transform="translate(0 0.001)">
        <g id="Group_7787" data-name="Group 7787">
          <path id="Path_30212" data-name="Path 30212" d="M320.142,76.513,325,72.141a.486.486,0,1,1,.651.723l-4.457,4.011,4.457,4.011a.486.486,0,0,1-.651.723l-4.858-4.372a.487.487,0,0,1,0-.723Z" transform="translate(-319.982 -72.016)" fill="#4d4e4e"/>
        </g>
      </g>
    </g>
  </g>
</svg>
