<svg xmlns="http://www.w3.org/2000/svg" width="26" height="26" viewBox="0 0 26 26">
  <g id="Group_8130" data-name="Group 8130" transform="translate(-1819 -334)">
    <path id="Path_640" data-name="Path 640" d="M13,0A13,13,0,1,0,26,13,13.014,13.014,0,0,0,13,0m0,24.375A11.375,11.375,0,1,1,24.375,13,11.388,11.388,0,0,1,13,24.375" transform="translate(1819 334)" fill="#636363"/>
    <path id="Path_641" data-name="Path 641" d="M141.1,134.115h-5.241v-5.241a.874.874,0,1,0-1.747,0v5.241h-5.241a.874.874,0,1,0,0,1.747h5.241V141.1a.874.874,0,0,0,1.747,0v-5.241H141.1a.874.874,0,0,0,0-1.747" transform="translate(1641.126 347.029) rotate(-45)" fill="#4d4e4e"/>
  </g>
</svg>
