<svg xmlns="http://www.w3.org/2000/svg" width="30.392" height="31.93" viewBox="0 0 30.392 31.93">
  <g id="Group_8131" data-name="Group 8131" transform="translate(-1822.145 -420.146)">
    <path id="Path_641" data-name="Path 641" d="M20.147,9.4H12.088V1.343a1.343,1.343,0,1,0-2.686,0V9.4H1.343a1.343,1.343,0,1,0,0,2.686H9.4v8.059a1.343,1.343,0,0,0,2.686,0V12.088h8.059a1.343,1.343,0,0,0,0-2.686" transform="translate(1822.145 436.88) rotate(-45)" fill="#461e28"/>
    <path id="Path_30117" data-name="Path 30117" d="M20.147,9.4H12.088V1.343a1.343,1.343,0,1,0-2.686,0V9.4H1.343a1.343,1.343,0,1,0,0,2.686H9.4v8.059a1.343,1.343,0,0,0,2.686,0V12.088h8.059a1.343,1.343,0,0,0,0-2.686" transform="translate(1822.145 435.342) rotate(-45)" fill="#861b1b"/>
  </g>
</svg>
