<svg xmlns="http://www.w3.org/2000/svg" xmlns:xlink="http://www.w3.org/1999/xlink" width="26" height="26" viewBox="0 0 26 26">
  <defs>
    <clipPath id="clip-hiends_c">
      <rect width="26" height="26"/>
    </clipPath>
  </defs>
  <g id="hiends_c" clip-path="url(#clip-hiends_c)">
    <g id="Group_8157" data-name="Group 8157" transform="translate(-5957 -5704)">
      <path id="Union_3" data-name="Union 3" d="M2.01,13.645A2.01,2.01,0,0,1,0,11.636V0H20.1V11.636a2.01,2.01,0,0,1-2.01,2.01Zm.7-2.827V3.19h0Z" transform="translate(5960.352 5712.358)" fill="#e48e66"/>
      <path id="Path_30366" data-name="Path 30366" d="M27.1,9.01v2H7v-2A2.01,2.01,0,0,1,9.01,7H25.089A2.01,2.01,0,0,1,27.1,9.01ZM15,9.01a.743.743,0,1,0-.743.743A.743.743,0,0,0,15,9.01h0Zm-2.534,0a.743.743,0,1,0-.743.743.743.743,0,0,0,.743-.743h0Zm-2.534,0a.743.743,0,1,0-.743.743.743.743,0,0,0,.743-.743h0Zm0,0" transform="translate(5953.352 5701.352)" fill="#f8ec7d"/>
      <path id="Path_30368" data-name="Path 30368" d="M138.056,32.961a.743.743,0,1,1-.742-.743A.743.743,0,0,1,138.056,32.961Zm0,0" transform="translate(5830.292 5677.4)" fill="#e48e66"/>
      <path id="Path_30369" data-name="Path 30369" d="M86.871,32.219a.743.743,0,1,1-.743.743.743.743,0,0,1,.743-.743Zm0,0" transform="translate(5878.199 5677.4)" fill="#e48e66"/>
      <path id="Path_30370" data-name="Path 30370" d="M37.185,32.961a.743.743,0,1,1-.743-.743A.743.743,0,0,1,37.185,32.961Zm0,0" transform="translate(5926.095 5677.4)" fill="#e48e66"/>
      <path id="Path_30371" data-name="Path 30371" d="M18.44,18.355H2.362A2.364,2.364,0,0,1,0,15.994V2.362A2.364,2.364,0,0,1,2.362,0H18.44A2.364,2.364,0,0,1,20.8,2.362V15.994A2.364,2.364,0,0,1,18.44,18.355ZM2.362.7A1.66,1.66,0,0,0,.7,2.362V15.994a1.66,1.66,0,0,0,1.658,1.658H18.44A1.66,1.66,0,0,0,20.1,15.994V2.362A1.66,1.66,0,0,0,18.44.7Zm0,0" transform="translate(5960 5708)" fill="#63316d"/>
      <path id="Path_30376" data-name="Path 30376" d="M20.45,80.434H.352a.352.352,0,1,1,0-.7h20.1a.352.352,0,1,1,0,.7Zm0,0" transform="translate(5960 5632.275)" fill="#63316d"/>
      <path id="Path_30377" data-name="Path 30377" d="M80.224,27.412a1.095,1.095,0,0,1,0-2.189h0a1.1,1.1,0,0,1,1.095,1.094h0a1.1,1.1,0,0,1-1.094,1.095Zm0-1.486a.391.391,0,0,0,0,.782h0a.391.391,0,0,0,0-.782Zm0,0" transform="translate(5884.847 5684.044)" fill="#63316d"/>
      <path id="Path_30378" data-name="Path 30378" d="M29.794,27.408a1.094,1.094,0,1,1,1.094-1.094,1.1,1.1,0,0,1-1.094,1.094Zm0-1.485a.391.391,0,1,0,.391.391A.392.392,0,0,0,29.794,25.922Zm0,0" transform="translate(5932.743 5684.048)" fill="#63316d"/>
      <path id="Path_30379" data-name="Path 30379" d="M130.665,27.408a1.094,1.094,0,1,1,1.094-1.094A1.1,1.1,0,0,1,130.665,27.408Zm0-1.485a.391.391,0,1,0,.391.391A.391.391,0,0,0,130.665,25.922Zm0,0" transform="translate(5836.939 5684.048)" fill="#63316d"/>
      <g id="check-mark" transform="translate(5965.071 5714.254)">
        <g id="Group_7546" data-name="Group 7546" transform="translate(0 0)">
          <path id="Path_30020" data-name="Path 30020" d="M5.548,11.625a1.563,1.563,0,0,1-2.42.119L.312,8.618A1.21,1.21,0,1,1,2.11,7L4.1,9.209A.147.147,0,0,0,4.331,9.2l4.1-5.556a1.21,1.21,0,1,1,1.948,1.436Z" transform="translate(0 -3.15)" fill="#6fe3ff" stroke="#63316d" stroke-width="1"/>
        </g>
      </g>
    </g>
  </g>
</svg>
