<svg xmlns="http://www.w3.org/2000/svg" xmlns:xlink="http://www.w3.org/1999/xlink" width="17" height="16" viewBox="0 0 17 16">
  <defs>
    <clipPath id="clip-path">
      <rect id="Rectangle_1650" data-name="Rectangle 1650" width="15" height="16" fill="#fff"/>
    </clipPath>
    <clipPath id="clip-hoso">
      <rect width="17" height="16"/>
    </clipPath>
  </defs>
  <g id="hoso" clip-path="url(#clip-hoso)">
    <g id="Group_8129" data-name="Group 8129" transform="translate(1 0)">
      <g id="Group_2731" data-name="Group 2731" transform="translate(0 0)" clip-path="url(#clip-path)">
        <path id="Path_26134" data-name="Path 26134" d="M5.581,7.7A4.111,4.111,0,0,0,9.91,3.852,4.111,4.111,0,0,0,5.581,0,4.111,4.111,0,0,0,1.252,3.852,3.65,3.65,0,0,0,2.521,6.577,4.465,4.465,0,0,0,5.581,7.7" transform="translate(1.815 0)" fill="#fff"/>
        <path id="Path_26135" data-name="Path 26135" d="M14.959,8.125l.007,0a8.27,8.27,0,0,0-.147-1.012A7.477,7.477,0,0,0,14.54,6.1a4.7,4.7,0,0,0-.47-.946,3.578,3.578,0,0,0-.708-.82,3.141,3.141,0,0,0-1.017-.569,3.955,3.955,0,0,0-1.3-.22,1.429,1.429,0,0,0-.7.266l-.735.421A4.654,4.654,0,0,1,8.66,4.6a4.148,4.148,0,0,1-2.317,0,4.532,4.532,0,0,1-.948-.373L4.66,3.81a1.414,1.414,0,0,0-.7-.268,3.91,3.91,0,0,0-1.3.22,3.141,3.141,0,0,0-1.017.569,3.639,3.639,0,0,0-.708.82,4.76,4.76,0,0,0-.47.946A7.535,7.535,0,0,0,.184,7.111,8.367,8.367,0,0,0,.037,8.125C.012,8.43,0,8.746,0,9.069A2.509,2.509,0,0,0,.89,11.077a3.421,3.421,0,0,0,2.283.739h8.653a3.421,3.421,0,0,0,2.283-.739A2.509,2.509,0,0,0,15,9.069c0-.323-.012-.639-.037-.944" transform="translate(0 4.18)" fill="#fff"/>
      </g>
    </g>
  </g>
</svg>
