<svg xmlns="http://www.w3.org/2000/svg" xmlns:xlink="http://www.w3.org/1999/xlink" width="24" height="20" viewBox="0 0 24 20">
  <defs>
    <clipPath id="clip-icon_cmt">
      <rect width="24" height="20"/>
    </clipPath>
  </defs>
  <g id="icon_cmt" clip-path="url(#clip-icon_cmt)">
    <g id="Group_7546" data-name="Group 7546" transform="translate(-3184.001 143.865)">
      <path id="Path_25999" data-name="Path 25999" d="M16.808,83.135H7.846a4.17,4.17,0,0,0-4.091,4.209v.1l1.655.015v-.119A2.506,2.506,0,0,1,7.846,84.83h8.963a2.437,2.437,0,0,1,2.356,2.515v4.95a2.418,2.418,0,0,1-2.245,2.458l.012,1.72a4.167,4.167,0,0,0,3.993-4.181V87.344a4.188,4.188,0,0,0-4.115-4.209" transform="translate(3186.29 -227)" fill="#333"/>
      <path id="Path_26000" data-name="Path 26000" d="M13.921,87.587,3.026,87.459A2.958,2.958,0,0,0,.068,90.42L0,96.436a2.956,2.956,0,0,0,2.891,3.025l7.284.088,3.95,2.071a.73.73,0,0,0,.778-.066.806.806,0,0,0,.29-.761l-.217-1.217a1.743,1.743,0,0,0,1.75-1.735l.08-7.223a2.962,2.962,0,0,0-2.886-3.032m-1.342,9.441H4.205c-.462,0-.836-.539-.836-1.223s.374-1.226.836-1.226h8.373c.462,0,.836.539.836,1.226s-.374,1.223-.836,1.223m0-4.378H4.205c-.462,0-.836-.527-.836-1.2s.374-1.2.836-1.2h8.373c.462,0,.836.529.836,1.2s-.374,1.2-.836,1.2" transform="translate(3184 -225.748)" fill="#333"/>
    </g>
  </g>
</svg>
