<svg xmlns="http://www.w3.org/2000/svg" xmlns:xlink="http://www.w3.org/1999/xlink" width="28" height="28" viewBox="0 0 28 28">
  <defs>
    <clipPath id="clip-icon_vb_16">
      <rect width="28" height="28"/>
    </clipPath>
  </defs>
  <g id="icon_vb_16" data-name="icon_vb – 16" clip-path="url(#clip-icon_vb_16)">
    <g id="Group_7575" data-name="Group 7575" transform="translate(-1841 -365)">
      <path id="Path_640" data-name="Path 640" d="M13,0A13,13,0,1,0,26,13,13.014,13.014,0,0,0,13,0m0,24.375A11.375,11.375,0,1,1,24.375,13,11.388,11.388,0,0,1,13,24.375" transform="translate(1842 366)" fill="#636363"/>
      <path id="Path_26050" data-name="Path 26050" d="M7.963,51.924a5.3,5.3,0,0,0,5.291-5.291V40.164a1.212,1.212,0,0,0-1.211-1.211H6.415A1.212,1.212,0,0,0,5.2,40.164v6.41a2.8,2.8,0,1,0,5.6,0L10.8,42.217H9.991L10,46.574a1.994,1.994,0,0,1-3.988,0v-6.41a.4.4,0,0,1,.4-.4h5.628a.4.4,0,0,1,.4.4v6.468a4.484,4.484,0,1,1-8.968,0V38.927H2.672v7.705a5.3,5.3,0,0,0,5.291,5.291" transform="translate(1846.883 333.527)" fill="#4d4e4e"/>
    </g>
  </g>
</svg>
