<svg xmlns="http://www.w3.org/2000/svg" xmlns:xlink="http://www.w3.org/1999/xlink" width="22" height="22" viewBox="0 0 22 22">
  <defs>
    <clipPath id="clip-path">
      <rect id="Rectangle_1542" data-name="Rectangle 1542" width="19.317" height="19.377" fill="none"/>
    </clipPath>
    <clipPath id="clip-icon_sua">
      <rect width="22" height="22"/>
    </clipPath>
  </defs>
  <g id="icon_sua" clip-path="url(#clip-icon_sua)">
    <g id="Group_7571" data-name="Group 7571" transform="translate(1 1)">
      <g id="Group_2445" data-name="Group 2445" clip-path="url(#clip-path)">
        <path id="Path_25887" data-name="Path 25887" d="M26.6,12.1a2.6,2.6,0,0,0-3.679,0L22,13.028l-9.8,9.8-.021.021c-.005.005-.005.01-.01.01-.01.016-.026.031-.036.047s-.005.005-.005.01-.015.026-.026.042-.005.01-.01.016-.01.026-.016.042-.005.005-.005.01l-2.175,6.54a.512.512,0,0,0,.125.531.524.524,0,0,0,.369.151.616.616,0,0,0,.166-.026l6.535-2.18c.005,0,.005,0,.01-.005a.189.189,0,0,0,.047-.021.018.018,0,0,0,.011-.005c.015-.01.036-.021.052-.031s.031-.026.047-.036.01-.005.01-.01.016-.01.021-.021L28.005,17.185a2.6,2.6,0,0,0,0-3.679ZM16.918,26.816,13.3,23.195l9.064-9.064,3.621,3.621Zm-4.131-2.659,3.164,3.163L11.2,28.9Zm14.486-7.7-.552.557L23.1,13.392l.557-.557a1.561,1.561,0,0,1,2.206,0l1.415,1.415a1.566,1.566,0,0,1-.005,2.206" transform="translate(-9.45 -10.868)" fill="#a06908"/>
        <path id="Path_25888" data-name="Path 25888" d="M16.735.762a2.6,2.6,0,0,0-3.679,0l-.921.926-9.8,9.8-.021.021c-.005.005-.005.01-.01.01-.01.016-.026.031-.036.047s-.005.005-.005.01-.015.026-.026.042-.005.01-.01.016-.01.026-.016.042-.005.005-.005.01L.028,18.223a.512.512,0,0,0,.125.531.524.524,0,0,0,.369.151.613.613,0,0,0,.166-.026L7.223,16.7c.005,0,.005,0,.01-.005a.187.187,0,0,0,.047-.021.019.019,0,0,0,.011-.005c.015-.01.036-.021.052-.031s.031-.026.047-.036.01-.005.01-.01.016-.01.021-.021L18.145,5.845a2.6,2.6,0,0,0,0-3.679ZM7.057,15.476,3.436,11.855,12.5,2.791l3.621,3.621ZM2.926,12.817l3.164,3.163L1.339,17.562Zm14.486-7.7-.552.557L13.238,2.052,13.8,1.5A1.561,1.561,0,0,1,16,1.5L17.416,2.91a1.566,1.566,0,0,1-.005,2.206" transform="translate(0 -0.001)" fill="#fa0"/>
      </g>
    </g>
  </g>
</svg>
