<svg xmlns="http://www.w3.org/2000/svg" xmlns:xlink="http://www.w3.org/1999/xlink" width="22" height="21" viewBox="0 0 22 21">
  <defs>
    <clipPath id="clip-icon_vb_18">
      <rect width="22" height="21"/>
    </clipPath>
  </defs>
  <g id="icon_vb_18" data-name="icon_vb – 18" clip-path="url(#clip-icon_vb_18)">
    <g id="Group_7555" data-name="Group 7555" transform="translate(-1595.476 -531.857)">
      <path id="Path_25883" data-name="Path 25883" d="M16.994,12.6a.589.589,0,0,0,0,.834l0,0a2.464,2.464,0,0,1,0,3.48L11.96,21.947a2.464,2.464,0,0,1-3.48,0l-.758-.758a2.464,2.464,0,0,1,0-3.48l5.033-5.033a.593.593,0,0,0-.837-.837L6.885,16.871a3.641,3.641,0,0,0-.007,5.149l.007.006.758.758a3.652,3.652,0,0,0,5.154,0l5.033-5.033a3.652,3.652,0,0,0,0-5.154.589.589,0,0,0-.834,0l0,0" transform="translate(1590.149 528.553)" fill="#357523"/>
      <path id="Path_25884" data-name="Path 25884" d="M23.443,8.269l-.758-.758a3.649,3.649,0,0,0-5.154,0L12.5,12.544a3.649,3.649,0,0,0,0,5.154.593.593,0,0,0,.877-.8l-.04-.039a2.464,2.464,0,0,1,0-3.48l5.033-5.033a2.464,2.464,0,0,1,3.48,0l.758.758a2.464,2.464,0,0,1,0,3.48l-5.033,5.032a.6.6,0,0,0,.417,1.008.572.572,0,0,0,.417-.175l5.033-5.033a3.646,3.646,0,0,0,0-5.154" transform="translate(1592.609 526.258)" fill="#357523"/>
      <path id="Path_25885" data-name="Path 25885" d="M16.655,12.008a.589.589,0,0,0,0,.834l0,0a2.464,2.464,0,0,1,0,3.48l-5.033,5.033a2.464,2.464,0,0,1-3.48,0L7.383,20.6a2.464,2.464,0,0,1,0-3.48l5.033-5.033a.593.593,0,0,0-.837-.837L6.546,16.283a3.639,3.639,0,0,0-.007,5.147l.007.007L7.3,22.2a3.649,3.649,0,0,0,5.154,0l5.033-5.033a3.652,3.652,0,0,0,0-5.154.589.589,0,0,0-.834,0l0,0" transform="translate(1590 528.295)" fill="#8ac41b"/>
      <path id="Path_25886" data-name="Path 25886" d="M23.1,7.681l-.758-.758a3.649,3.649,0,0,0-5.154,0l-5.033,5.033a3.651,3.651,0,0,0,0,5.156.593.593,0,0,0,.877-.8c-.013-.014-.027-.027-.04-.04a2.464,2.464,0,0,1,0-3.48L18.029,7.76a2.464,2.464,0,0,1,3.48,0l.758.758a2.464,2.464,0,0,1,0,3.48l-5.033,5.033a.594.594,0,0,0,.417,1.007.572.572,0,0,0,.417-.175L23.1,12.829a3.646,3.646,0,0,0,0-5.154" transform="translate(1592.461 526)" fill="#8ac41b"/>
    </g>
  </g>
</svg>
