<svg xmlns="http://www.w3.org/2000/svg" xmlns:xlink="http://www.w3.org/1999/xlink" width="38" height="38" viewBox="0 0 38 38">
  <defs>
    <clipPath id="clip-path">
      <rect id="Rectangle_814" data-name="Rectangle 814" width="38" height="38" transform="translate(484.606 531.028)" fill="none"/>
    </clipPath>
    <clipPath id="clip-icon_hd">
      <rect width="38" height="38"/>
    </clipPath>
  </defs>
  <g id="icon_hd" clip-path="url(#clip-icon_hd)">
    <g id="Group_2017" data-name="Group 2017" transform="translate(-484.606 -531.028)">
      <g id="Group_1823" data-name="Group 1823" clip-path="url(#clip-path)">
        <g id="Group_1822" data-name="Group 1822">
          <g id="Group_1821" data-name="Group 1821">
            <path id="Path_30064" data-name="Path 30064" d="M505.636,558.065h-9.471a.443.443,0,1,0,0,.886h9.471a.443.443,0,1,0,0-.886Z" fill="#915715"/>
            <path id="Path_30065" data-name="Path 30065" d="M498.082,546.844a.7.7,0,0,1-.7-.69.7.7,0,0,0-1.4,0,2.069,2.069,0,0,0,1.141,1.839v.4a.7.7,0,0,0,1.4,0v-.218a2.083,2.083,0,0,0,1.668-2.025v-.28a2.066,2.066,0,0,0-1.479-1.976l-.838-.257a.689.689,0,0,1-.492-.659V542.7a.7.7,0,0,1,1.4,0,.7.7,0,0,0,1.4,0,2.076,2.076,0,0,0-1.4-1.952v-.291a.7.7,0,0,0-1.4,0v.291a2.076,2.076,0,0,0-1.4,1.952v.279a2.065,2.065,0,0,0,1.478,1.976l.838.258a.688.688,0,0,1,.493.658v.28A.7.7,0,0,1,498.082,546.844Z" fill="#915715"/>
            <path id="Path_30066" data-name="Path 30066" d="M513.641,552.8h-1.917a.443.443,0,1,0,0,.886h1.917a.9.9,0,0,1,.9.886v5.65a2.255,2.255,0,0,1-4.51,0V553.3a.451.451,0,0,0-.9,0v6.924a3.064,3.064,0,0,0,.95,2.216H494.925a2.238,2.238,0,0,1-2.255-2.216V538.507a.9.9,0,0,1,.9-.886h14.657a.9.9,0,0,1,.9.886.451.451,0,0,0,.9,0,1.791,1.791,0,0,0-1.8-1.773H493.572a1.791,1.791,0,0,0-1.8,1.773V560.22a3.133,3.133,0,0,0,3.157,3.1h17.363a3.134,3.134,0,0,0,3.157-3.1v-5.65A1.791,1.791,0,0,0,513.641,552.8Z" fill="#915715"/>
            <path id="Path_30067" data-name="Path 30067" d="M505.636,554.183h-9.471a.444.444,0,1,0,0,.887h9.471a.444.444,0,1,0,0-.887Z" fill="#915715"/>
            <rect id="Rectangle_813" data-name="Rectangle 813" width="8.04" height="0.886" rx="0.346" transform="translate(495.714 550.971)" fill="#915715"/>
            <path id="Path_30068" data-name="Path 30068" d="M504.766,545.667a.37.37,0,0,1-.369-.37,5.485,5.485,0,0,1,1.417-3.552,5.137,5.137,0,0,1,3.863-1.727,5.249,5.249,0,0,1,2.693.76,5.731,5.731,0,0,1,1.04.8l-.023-.7a.373.373,0,0,1,.1-.269.371.371,0,0,1,.638.246l.055,1.69a.339.339,0,0,1-.089.365.368.368,0,0,1-.262.108h-.021l-.118-.027-1.654-.049a.362.362,0,0,1-.258-.117.37.37,0,0,1,.269-.622l.977.032a5.041,5.041,0,0,0-1.036-.828,4.516,4.516,0,0,0-2.313-.656,4.409,4.409,0,0,0-3.314,1.484,4.724,4.724,0,0,0-1.227,3.057A.37.37,0,0,1,504.766,545.667Z" fill="#915715"/>
            <path id="Path_30069" data-name="Path 30069" d="M509.677,540.647a4.616,4.616,0,0,1,2.369.671,5.112,5.112,0,0,1,1.235,1.04l-1.222-.04a.26.26,0,1,0-.017.52l1.691.056a.261.261,0,0,0,.34-.34l-.056-1.691a.26.26,0,1,0-.52.011v.006l.032.976a5.668,5.668,0,0,0-1.215-.984,5.134,5.134,0,0,0-2.637-.746,5.032,5.032,0,0,0-3.782,1.692,5.369,5.369,0,0,0-1.389,3.479.26.26,0,1,0,.521,0,4.837,4.837,0,0,1,1.255-3.131A4.519,4.519,0,0,1,509.677,540.647Z" fill="#915715"/>
            <path id="Path_30070" data-name="Path 30070" d="M509.742,550.577a5.249,5.249,0,0,1-2.692-.76,5.876,5.876,0,0,1-1.041-.8l.023.7a.371.371,0,0,1-.1.271.371.371,0,0,1-.637-.248l-.055-1.69a.337.337,0,0,1,.088-.364.372.372,0,0,1,.262-.108h.021l.118.027,1.654.049a.366.366,0,0,1,.258.115.374.374,0,0,1,.1.265.368.368,0,0,1-.369.358l-.976-.032a4.923,4.923,0,0,0,1.036.828,4.5,4.5,0,0,0,2.312.656,4.41,4.41,0,0,0,3.315-1.483,4.725,4.725,0,0,0,1.226-3.058.37.37,0,0,1,.74,0,5.481,5.481,0,0,1-1.417,3.552A5.142,5.142,0,0,1,509.742,550.577Z" fill="#915715"/>
            <path id="Path_30071" data-name="Path 30071" d="M514.653,545.037a.26.26,0,0,0-.26.26,4.839,4.839,0,0,1-1.255,3.132,4.521,4.521,0,0,1-3.395,1.519,4.616,4.616,0,0,1-2.369-.671,5.163,5.163,0,0,1-1.236-1.041l1.223.041a.26.26,0,0,0,.017-.52l-1.692-.056a.26.26,0,0,0-.339.34l.056,1.691a.26.26,0,1,0,.52-.012v0l-.032-.976a5.644,5.644,0,0,0,1.215.984,5.131,5.131,0,0,0,2.637.745,5.033,5.033,0,0,0,3.782-1.691,5.376,5.376,0,0,0,1.388-3.48A.26.26,0,0,0,514.653,545.037Z" fill="#915715"/>
          </g>
        </g>
      </g>
    </g>
  </g>
</svg>
