<svg xmlns="http://www.w3.org/2000/svg" xmlns:xlink="http://www.w3.org/1999/xlink" width="20" height="20" viewBox="0 0 20 20">
  <defs>
    <clipPath id="clip-icon_ct4_hv">
      <rect width="20" height="20"/>
    </clipPath>
  </defs>
  <g id="icon_ct4_hv" clip-path="url(#clip-icon_ct4_hv)">
    <g id="Group_8128" data-name="Group 8128" transform="translate(2061.998 -1417.674)">
      <path id="Path_30459" data-name="Path 30459" d="M-2054.849,1437.674a.43.43,0,0,1-.113-.014.518.518,0,0,1-.4-.505V1436.1a6.789,6.789,0,0,1,6.7-6.863h.171v-2.287a.529.529,0,0,1,.323-.49.506.506,0,0,1,.564.124l4.465,4.751a.535.535,0,0,1,0,.732l-4.465,4.75a.507.507,0,0,1-.564.124.529.529,0,0,1-.323-.49v-2.287h-.816a5.623,5.623,0,0,0-5.069,3.21A.53.53,0,0,1-2054.849,1437.674Zm6.184-7.381a5.728,5.728,0,0,0-5.625,5.081,6.592,6.592,0,0,1,4.98-2.266h1.332a.522.522,0,0,1,.515.528v1.506l3.235-3.441-3.235-3.442v1.506a.522.522,0,0,1-.515.528Z" fill="#fff"/>
      <path id="Path_30461" data-name="Path 30461" d="M-2055.933,1433.439h-1.765a.688.688,0,0,1-.679-.7.687.687,0,0,1,.679-.7h2.4a7.9,7.9,0,0,1,2.042-2.318h-4.441a.688.688,0,0,1-.679-.7.688.688,0,0,1,.679-.7h6.789a.64.64,0,0,1,.312.089,7.336,7.336,0,0,1,1.03-.206v-1.228a1.61,1.61,0,0,1,.987-1.5,1.528,1.528,0,0,1,.592-.119,1.567,1.567,0,0,1,1.14.5l.239.254v-5.905a2.522,2.522,0,0,0-2.49-2.55h-10.409a2.522,2.522,0,0,0-2.49,2.55v13.447a2.522,2.522,0,0,0,2.49,2.55h3.129v-.156A8.035,8.035,0,0,1-2055.933,1433.439Zm-1.765-12.056h6.789a.688.688,0,0,1,.679.7.687.687,0,0,1-.679.7h-6.789a.687.687,0,0,1-.679-.7A.688.688,0,0,1-2057.7,1421.383Zm0,3.71h6.789a.687.687,0,0,1,.679.695.688.688,0,0,1-.679.7h-6.789a.688.688,0,0,1-.679-.7A.687.687,0,0,1-2057.7,1425.093Z" fill="#fff"/>
    </g>
  </g>
</svg>
