<svg xmlns="http://www.w3.org/2000/svg" xmlns:xlink="http://www.w3.org/1999/xlink" width="20" height="23" viewBox="0 0 20 23">
  <defs>
    <clipPath id="clip-icon_pass">
      <rect width="20" height="23"/>
    </clipPath>
  </defs>
  <g id="icon_pass" clip-path="url(#clip-icon_pass)">
    <g id="Group_7530" data-name="Group 7530" transform="translate(-751.001 -607.72)">
      <g id="Group_7528" data-name="Group 7528">
        <path id="Path_26273" data-name="Path 26273" d="M753.55,860.919h-12.2a2.035,2.035,0,0,1-2.033-2.033V849.4a2.035,2.035,0,0,1,2.033-2.033h12.2a2.036,2.036,0,0,1,2.033,2.033v9.487a2.036,2.036,0,0,1-2.033,2.033m-12.2-12.2a.679.679,0,0,0-.678.678v9.487a.679.679,0,0,0,.678.678h12.2a.678.678,0,0,0,.677-.678V849.4a.678.678,0,0,0-.677-.678Z" transform="translate(13.682 -230.514)" fill="#666"/>
        <path id="Path_26274" data-name="Path 26274" d="M752.194,848.721a.678.678,0,0,1-.677-.678v-3.387a4.067,4.067,0,1,0-8.133,0v3.387a.677.677,0,1,1-1.355,0v-3.387a5.422,5.422,0,1,1,10.843,0v3.387a.679.679,0,0,1-.678.678" transform="translate(13.682 -230.514)" fill="#666"/>
        <path id="Path_26275" data-name="Path 26275" d="M747.45,854.594a1.807,1.807,0,1,1,1.807-1.807,1.809,1.809,0,0,1-1.807,1.807m0-2.259a.451.451,0,1,0,.452.452.453.453,0,0,0-.452-.452" transform="translate(13.682 -230.514)" fill="#666"/>
      </g>
      <path id="Path_26276" data-name="Path 26276" d="M747.45,857.3a.678.678,0,0,1-.677-.678v-2.485a.677.677,0,1,1,1.355,0v2.485a.678.678,0,0,1-.678.678" transform="translate(13.682 -230.514)" fill="#666"/>
    </g>
  </g>
</svg>
