<svg xmlns="http://www.w3.org/2000/svg" xmlns:xlink="http://www.w3.org/1999/xlink" width="14" height="15" viewBox="0 0 14 15">
  <defs>
    <clipPath id="clip-icon_bd5">
      <rect width="14" height="15"/>
    </clipPath>
  </defs>
  <g id="icon_bd5" clip-path="url(#clip-icon_bd5)">
    <g id="Group_8059" data-name="Group 8059" transform="translate(-1051.819 -284.509)">
      <path id="Path_486" data-name="Path 486" d="M1065.552,1013.578h-.634v-9.211a.779.779,0,0,0-.778-.778h-1.418a.779.779,0,0,0-.777.778v9.211h-1.611v-5.038a.778.778,0,0,0-.777-.777h-1.418a.778.778,0,0,0-.778.777v5.038h-1.611v-2.609a.778.778,0,0,0-.778-.777h-1.418a.779.779,0,0,0-.778.777v2.609h-.668a.289.289,0,0,0,0,.579h13.444a.289.289,0,0,0,0-.579m-10.38,0h-1.817v-2.609a.2.2,0,0,1,.2-.2h1.418a.2.2,0,0,1,.2.2Zm4.583,0h-1.816v-5.038a.2.2,0,0,1,.2-.2h1.418a.2.2,0,0,1,.2.2Zm4.584,0h-1.816v-9.211a.2.2,0,0,1,.2-.2h1.418a.2.2,0,0,1,.2.2Z" transform="translate(0 -714.838)" fill="#991859"/>
      <path id="Path_487" data-name="Path 487" d="M1068.33,993.813a.288.288,0,0,0-.3-.3h-1.764a.289.289,0,1,0,0,.579h1.08l-2.859,2.859-1.078-1.078a.29.29,0,0,0-.409,0l-5.2,5.2a.289.289,0,0,0,.409.409l4.995-5,1.079,1.078a.289.289,0,0,0,.409,0l3.064-3.064v.978a.289.289,0,0,0,.579,0v-1.647c0-.005,0-.01,0-.014" transform="translate(-3.412 -709)" fill="#991859"/>
      <path id="Path_488" data-name="Path 488" d="M1055.685,1013.668a.289.289,0,1,1-.289.289.289.289,0,0,1,.289-.289" transform="translate(-2.072 -720.675)" fill="#991859"/>
    </g>
  </g>
</svg>
