<svg xmlns="http://www.w3.org/2000/svg" xmlns:xlink="http://www.w3.org/1999/xlink" width="34" height="36" viewBox="0 0 34 36">
  <defs>
    <clipPath id="clip-icon_bd">
      <rect width="34" height="36"/>
    </clipPath>
  </defs>
  <g id="icon_bd" clip-path="url(#clip-icon_bd)">
    <g id="Group_7542" data-name="Group 7542" transform="translate(-1051.819 -284.509)">
      <path id="Path_486" data-name="Path 486" d="M1084.45,1027.324h-1.507v-21.887a1.85,1.85,0,0,0-1.848-1.848h-3.369a1.85,1.85,0,0,0-1.847,1.848v21.887h-3.828v-11.971a1.85,1.85,0,0,0-1.847-1.847h-3.369a1.849,1.849,0,0,0-1.848,1.847v11.971h-3.828v-6.2a1.849,1.849,0,0,0-1.848-1.847h-3.369a1.85,1.85,0,0,0-1.848,1.847v6.2h-1.588a.688.688,0,0,0,0,1.375h31.944a.688.688,0,0,0,0-1.375m-24.665,0h-4.316v-6.2a.474.474,0,0,1,.473-.473h3.369a.475.475,0,0,1,.474.473Zm10.891,0h-4.315v-11.971a.474.474,0,0,1,.473-.473h3.37a.474.474,0,0,1,.472.473Zm10.892,0h-4.315v-21.887a.473.473,0,0,1,.473-.473h3.369a.473.473,0,0,1,.473.473Z" transform="translate(0 -709)" fill="#fff"/>
      <path id="Path_487" data-name="Path 487" d="M1082.941,994.232a.685.685,0,0,0-.721-.721l-.033,0h-4.158a.688.688,0,1,0,0,1.375h2.567l-6.794,6.794-2.562-2.562a.688.688,0,0,0-.972,0l-12.355,12.355a.687.687,0,0,0,.972.972l11.868-11.869,2.563,2.562a.688.688,0,0,0,.972,0l7.28-7.28v2.324a.688.688,0,0,0,1.375,0v-3.914c0-.012,0-.023,0-.034" transform="translate(0 -709)" fill="#fff"/>
      <path id="Path_488" data-name="Path 488" d="M1056.083,1013.668a.688.688,0,1,1-.687.687.687.687,0,0,1,.687-.687" transform="translate(0 -709)" fill="#fff"/>
    </g>
  </g>
</svg>
