<svg xmlns="http://www.w3.org/2000/svg" xmlns:xlink="http://www.w3.org/1999/xlink" width="38" height="38" viewBox="0 0 38 38">
  <defs>
    <clipPath id="clip-path">
      <rect id="Rectangle_811" data-name="Rectangle 811" width="38" height="38" transform="translate(482.828 273.848)" fill="none"/>
    </clipPath>
    <clipPath id="clip-icon_ruiro">
      <rect width="38" height="38"/>
    </clipPath>
  </defs>
  <g id="icon_ruiro" clip-path="url(#clip-icon_ruiro)">
    <g id="Group_2018" data-name="Group 2018" transform="translate(-482.828 -273.848)">
      <g id="Group_1815" data-name="Group 1815" clip-path="url(#clip-path)">
        <g id="Group_1814" data-name="Group 1814">
          <g id="Group_1813" data-name="Group 1813">
            <path id="Path_30045" data-name="Path 30045" d="M515.382,289.915l-2.065-.269a10.524,10.524,0,0,0-.625-1.546l1.275-1.682a1.7,1.7,0,0,0-.134-2.226l-1.73-1.772a1.609,1.609,0,0,0-2.18-.143l-1.641,1.306a10.273,10.273,0,0,0-1.511-.64l-.262-2.11a1.66,1.66,0,0,0-1.633-1.485h-2.46a1.6,1.6,0,0,0-.982.356H488.539a1.733,1.733,0,0,0-1.711,1.752v21.468a3.035,3.035,0,0,0,2.994,3.067h11.612a1.6,1.6,0,0,0,.982.357h2.46a1.6,1.6,0,0,0,.983-.357,1.655,1.655,0,0,0,.579-.891,1.709,1.709,0,0,0,.072-.234l.262-2.115a9.989,9.989,0,0,0,1.51-.64l.149.118.855.681.638.507a1.6,1.6,0,0,0,2.174-.137l1.73-1.772a1.706,1.706,0,0,0,.139-2.233l-1.275-1.681a10.75,10.75,0,0,0,.625-1.546l2.061-.269a1.671,1.671,0,0,0,1.45-1.671v-2.52A1.673,1.673,0,0,0,515.382,289.915Zm.347,4.193a.566.566,0,0,1-.488.557l-2.416.315a.55.55,0,0,0-.458.4,9.539,9.539,0,0,1-.809,2,.575.575,0,0,0,.046.619l1.494,1.968a.566.566,0,0,1-.043.743l-1.741,1.783a.53.53,0,0,1-.719.038l-1.309-1.041-.613-.489a.541.541,0,0,0-.242-.1.528.528,0,0,0-.363.049,9.052,9.052,0,0,1-1.948.828.558.558,0,0,0-.393.469l-.309,2.48a.556.556,0,0,1-.05.162.55.55,0,0,1-.492.332h-2.46a.523.523,0,0,1-.3-.108.568.568,0,0,1-.239-.392l-.307-2.475a.559.559,0,0,0-.394-.469c-.223-.066-.307.025-.5.16-.242.172-.156.812-.156.812h0l.263,2.111a1.563,1.563,0,0,0,.077.252H489.822a2.168,2.168,0,0,1-2.139-2.191V281.456a.867.867,0,0,1,.856-.876H500.86a1.557,1.557,0,0,0-.076.249l-.263,2.115a10.367,10.367,0,0,0-1.51.64l-1.641-1.307a1.608,1.608,0,0,0-2.174.137l-1.73,1.772a1.708,1.708,0,0,0-.14,2.235l1.274,1.68a10.857,10.857,0,0,0-.625,1.546l-2.06.269a1.671,1.671,0,0,0-1.45,1.672v.8a.552.552,0,0,0,.232.356.531.531,0,0,0,.3.1h.05a.531.531,0,0,0,.3-.1.547.547,0,0,0,.218-.284v-.873a.564.564,0,0,1,.488-.556l2.416-.315a.554.554,0,0,0,.459-.4,9.5,9.5,0,0,1,.808-2,.571.571,0,0,0-.046-.618l-1.494-1.969a.567.567,0,0,1,.043-.743l1.741-1.784a.528.528,0,0,1,.718-.037l1.923,1.53a.538.538,0,0,0,.605.046,9.116,9.116,0,0,1,1.948-.827.561.561,0,0,0,.394-.47l.308-2.479a.558.558,0,0,1,.238-.387.524.524,0,0,1,.3-.107h2.46a.562.562,0,0,1,.544.5l.308,2.475a.555.555,0,0,0,.393.469,9.1,9.1,0,0,1,1.949.828.539.539,0,0,0,.6-.047l1.922-1.53a.532.532,0,0,1,.725.044l1.741,1.783a.562.562,0,0,1,.036.736l-1.494,1.969a.571.571,0,0,0-.046.618,9.559,9.559,0,0,1,.809,2,.551.551,0,0,0,.458.4l2.421.316a.562.562,0,0,1,.482.555Z" fill="#915715"/>
            <path id="Path_30046" data-name="Path 30046" d="M490.04,298.581h8.031a.443.443,0,0,0,0-.877H490.04a.443.443,0,0,0,0,.877Z" fill="#915715"/>
            <path id="Path_30047" data-name="Path 30047" d="M499.069,300.714h-8.983a.438.438,0,0,0,0,.876h8.983a.424.424,0,0,0,.168-.035.438.438,0,0,0,.26-.4A.433.433,0,0,0,499.069,300.714Z" fill="#915715"/>
            <path id="Path_30048" data-name="Path 30048" d="M489.983,295.418h6.966a.33.33,0,0,0,.326-.334v-.208a.33.33,0,0,0-.326-.334h-6.966a.33.33,0,0,0-.325.334v.208A.33.33,0,0,0,489.983,295.418Z" fill="#915715"/>
            <path id="Path_30049" data-name="Path 30049" d="M503.824,293.94a.542.542,0,0,1-.561-.519.564.564,0,0,0-1.124,0,1.547,1.547,0,0,0,.913,1.382v.3a.563.563,0,0,0,1.123,0v-.164a1.593,1.593,0,0,0,1.334-1.522v-.21a1.568,1.568,0,0,0-1.182-1.485l-.67-.193a.522.522,0,0,1-.394-.495v-.21a.563.563,0,0,1,1.123,0,.563.563,0,0,0,1.123,0,1.571,1.571,0,0,0-1.123-1.466v-.219a.563.563,0,0,0-1.123,0v.219a1.572,1.572,0,0,0-1.124,1.466v.21a1.568,1.568,0,0,0,1.183,1.485l.67.193a.522.522,0,0,1,.394.495v.21A.542.542,0,0,1,503.824,293.94Z" fill="#915715"/>
            <path id="Path_30050" data-name="Path 30050" d="M503.691,287.3a4.787,4.787,0,0,1,2.459.7,5.339,5.339,0,0,1,1.283,1.08l-1.269-.042a.27.27,0,1,0-.018.54l1.756.058a.268.268,0,0,0,.294-.059.272.272,0,0,0,.059-.294l-.058-1.756a.27.27,0,1,0-.54.013v.005l.033,1.013a5.856,5.856,0,0,0-1.262-1.021,5.33,5.33,0,0,0-2.737-.774,5.224,5.224,0,0,0-3.926,1.756,5.579,5.579,0,0,0-1.442,3.613.27.27,0,0,0,.54,0,5.021,5.021,0,0,1,1.3-3.251A4.692,4.692,0,0,1,503.691,287.3Z" fill="#915715"/>
            <path id="Path_30051" data-name="Path 30051" d="M508.857,291.855a.27.27,0,0,0-.27.271,5.021,5.021,0,0,1-1.3,3.25,4.688,4.688,0,0,1-3.525,1.578,4.789,4.789,0,0,1-2.459-.7,5.339,5.339,0,0,1-1.283-1.08l1.269.042a.27.27,0,1,0,.018-.54l-1.756-.058a.271.271,0,0,0-.353.353l.058,1.756a.27.27,0,0,0,.54-.012v-.006l-.033-1.013a5.856,5.856,0,0,0,1.262,1.021,5.324,5.324,0,0,0,2.737.774,5.228,5.228,0,0,0,3.927-1.756,5.581,5.581,0,0,0,1.442-3.612A.271.271,0,0,0,508.857,291.855Z" fill="#915715"/>
          </g>
        </g>
      </g>
    </g>
  </g>
</svg>
