<svg xmlns="http://www.w3.org/2000/svg" xmlns:xlink="http://www.w3.org/1999/xlink" width="38" height="38" viewBox="0 0 38 38">
  <defs>
    <clipPath id="clip-path">
      <rect id="Rectangle_807" data-name="Rectangle 807" width="38" height="38" transform="translate(494.988 185.906)" fill="none"/>
    </clipPath>
    <clipPath id="clip-icon_dm">
      <rect width="38" height="38"/>
    </clipPath>
  </defs>
  <g id="icon_dm" clip-path="url(#clip-icon_dm)">
    <g id="Group_2020" data-name="Group 2020" transform="translate(-494.988 -185.906)">
      <g id="Group_1774" data-name="Group 1774" clip-path="url(#clip-path)">
        <g id="Group_1773" data-name="Group 1773">
          <path id="Path_30018" data-name="Path 30018" d="M526.361,201.705,524,201.411a11.232,11.232,0,0,0-.714-1.687l1.457-1.836a1.8,1.8,0,0,0-.154-2.43l-1.975-1.934a1.9,1.9,0,0,0-2.491-.156l-1.874,1.426a11.989,11.989,0,0,0-1.725-.7l-.3-2.3a1.865,1.865,0,0,0-1.864-1.621h-2.81a1.854,1.854,0,0,0-1.051.35,2.5,2.5,0,0,0-.762,1.106.673.673,0,0,0-.051.161l-.182,1.4a5.469,5.469,0,0,0,.025,1.6.566.566,0,0,0,.6.364.618.618,0,0,0,.449-.513l.353-2.706a.606.606,0,0,1,.27-.422.621.621,0,0,1,.348-.117h2.81a.632.632,0,0,1,.621.546l.351,2.7a.619.619,0,0,0,.45.512,10.629,10.629,0,0,1,2.225.9.638.638,0,0,0,.691-.051l2.2-1.67a.627.627,0,0,1,.828.048l1.988,1.946a.592.592,0,0,1,.042.8l-1.707,2.149a.6.6,0,0,0-.052.675,10.221,10.221,0,0,1,.923,2.179.624.624,0,0,0,.523.439l2.765.345a.623.623,0,0,1,.551.606v2.75a.628.628,0,0,1-.557.608l-2.76.344a.621.621,0,0,0-.523.439,10.177,10.177,0,0,1-.924,2.179.6.6,0,0,0,.053.675l1.706,2.149a.6.6,0,0,1-.049.81l-1.988,1.947a.627.627,0,0,1-.822.041l-1.495-1.137-.7-.533a.74.74,0,0,0-.69-.051,10.706,10.706,0,0,1-2.226.9.616.616,0,0,0-.449.512l-.352,2.706a.576.576,0,0,1-.058.177.627.627,0,0,1-.561.362h-2.81a.658.658,0,0,1-.62-.545l-.351-2.7a.617.617,0,0,0-.449-.512c-.256-.072-.352.027-.568.175-.276.188-.178.887-.178.887h0l.272,2.093h0l.028.211a1.771,1.771,0,0,0,.088.276,2.7,2.7,0,0,0,.711.986,1.852,1.852,0,0,0,1.065.359h2.81a1.878,1.878,0,0,0,1.122-.389,1.806,1.806,0,0,0,.662-.973,1.89,1.89,0,0,0,.082-.255l.3-2.309a11.715,11.715,0,0,0,1.723-.7l.17.129.977.742.729.554a1.893,1.893,0,0,0,2.482-.15l1.976-1.934a1.8,1.8,0,0,0,.16-2.437l-1.457-1.835A11.463,11.463,0,0,0,524,208.4l2.353-.293a1.854,1.854,0,0,0,1.656-1.825v-2.75A1.854,1.854,0,0,0,526.361,201.705Z" fill="#915715"/>
          <path id="Path_30019" data-name="Path 30019" d="M505.847,197.126h-4.28a1.605,1.605,0,0,0-1.6,1.6v4.28a1.605,1.605,0,0,0,1.6,1.6h4.28a1.605,1.605,0,0,0,1.6-1.6v-4.28A1.605,1.605,0,0,0,505.847,197.126Zm1.069,5.884a1.069,1.069,0,0,1-1.069,1.069h-4.28a1.069,1.069,0,0,1-1.069-1.069v-4.28a1.07,1.07,0,0,1,1.069-1.07h4.28a1.07,1.07,0,0,1,1.069,1.07Z" fill="#915715"/>
          <path id="Path_30020" data-name="Path 30020" d="M505.847,205.684h-4.28a1.606,1.606,0,0,0-1.6,1.6v4.281a1.606,1.606,0,0,0,1.6,1.6h4.28a1.606,1.606,0,0,0,1.6-1.6v-4.281A1.606,1.606,0,0,0,505.847,205.684Zm1.069,5.885a1.07,1.07,0,0,1-1.069,1.069h-4.28a1.07,1.07,0,0,1-1.069-1.069v-4.281a1.07,1.07,0,0,1,1.069-1.069h4.28a1.069,1.069,0,0,1,1.069,1.069Z" fill="#915715"/>
          <path id="Path_30021" data-name="Path 30021" d="M514.406,213.173a1.606,1.606,0,0,0,1.6-1.6v-2.521a4.548,4.548,0,0,0,0-8.284V198.73a1.606,1.606,0,0,0-1.6-1.6h-4.281a1.606,1.606,0,0,0-1.6,1.6v4.28a1.6,1.6,0,0,0,.782,1.37,1.57,1.57,0,0,0,.607.212,1.534,1.534,0,0,0,.215.022h4.281a1.606,1.606,0,0,0,1.6-1.6v-1.547a3.924,3.924,0,0,1,0,6.885v-1.06a1.606,1.606,0,0,0-1.6-1.6h-4.281a1.513,1.513,0,0,0-.165.017,1.566,1.566,0,0,0-.6.186,1.6,1.6,0,0,0-.84,1.4v4.281a1.606,1.606,0,0,0,1.6,1.6Zm1.069-10.163a1.07,1.07,0,0,1-1.069,1.069h-4.281a.946.946,0,0,1-.148-.03,1.047,1.047,0,0,1-.921-1.039v-4.28a1.071,1.071,0,0,1,1.069-1.07h4.281a1.071,1.071,0,0,1,1.069,1.07v4.28Zm-6.419,8.559v-4.281a1.126,1.126,0,0,1,1.067-1.069h4.283a1.07,1.07,0,0,1,1.069,1.069v4.281a1.071,1.071,0,0,1-1.069,1.069h-4.281A1.071,1.071,0,0,1,509.056,211.569Z" fill="#915715"/>
        </g>
      </g>
    </g>
  </g>
</svg>
