<svg xmlns="http://www.w3.org/2000/svg" xmlns:xlink="http://www.w3.org/1999/xlink" width="20" height="20" viewBox="0 0 20 20">
  <defs>
    <clipPath id="clip-icon_quytrinh">
      <rect width="20" height="20"/>
    </clipPath>
  </defs>
  <g id="icon_quytrinh" clip-path="url(#clip-icon_quytrinh)">
    <path id="Path_30608" data-name="Path 30608" d="M-1587.222,1392.863h-1.836a7.728,7.728,0,0,0-.805-2.024l1.441-1.443a.607.607,0,0,0,0-.858l-1.889-1.89a.605.605,0,0,0-.857,0l-1.4,1.4a7.761,7.761,0,0,0-2.038-.874v-1.98a.607.607,0,0,0-.606-.607h-2.671a.607.607,0,0,0-.607.607v1.944a7.748,7.748,0,0,0-2.105.865l-1.249-1.25a.607.607,0,0,0-.857,0l-1.889,1.891a.607.607,0,0,0,0,.858l1.257,1.258a7.75,7.75,0,0,0-.849,2.1h-1.825a.607.607,0,0,0-.606.607v2.673a.607.607,0,0,0,.606.607h1.879a7.77,7.77,0,0,0,.864,2.005l-1.353,1.354a.607.607,0,0,0,0,.858l1.889,1.89a.605.605,0,0,0,.857,0l1.393-1.393a7.73,7.73,0,0,0,1.909.777v1.742a.607.607,0,0,0,.607.607h2.671a.606.606,0,0,0,.606-.607v-1.738a7.738,7.738,0,0,0,2-.826l1.45,1.452a.608.608,0,0,0,.858,0l1.889-1.891a.607.607,0,0,0,0-.858l-1.442-1.443a7.719,7.719,0,0,0,.818-1.929h1.891a.607.607,0,0,0,.607-.607v-2.673A.607.607,0,0,0-1587.222,1392.863Zm-14.372-.372a5.41,5.41,0,0,1,4.979-3.308,5.381,5.381,0,0,1,3.788,1.556l.366-.551a.376.376,0,0,1,.424-.152.379.379,0,0,1,.267.363l-.014,2.928a.379.379,0,0,1-.173.316.375.375,0,0,1-.359.026l-2.656-1.195a.379.379,0,0,1-.219-.4.379.379,0,0,1,.316-.322l.483-.075a3.617,3.617,0,0,0-2.223-.764,3.67,3.67,0,0,0-3.381,2.255.862.862,0,0,1-.8.53.872.872,0,0,1-.726-.391A.872.872,0,0,1-1601.594,1392.491Zm9.957,4.2a5.41,5.41,0,0,1-4.978,3.309,5.387,5.387,0,0,1-3.789-1.556l-.366.55a.376.376,0,0,1-.423.152.376.376,0,0,1-.267-.363l.014-2.928a.378.378,0,0,1,.173-.316.374.374,0,0,1,.358-.026l2.656,1.2a.377.377,0,0,1,.219.395.376.376,0,0,1-.315.322l-.483.075a3.615,3.615,0,0,0,2.223.764,3.67,3.67,0,0,0,3.381-2.255.862.862,0,0,1,.8-.53.869.869,0,0,1,.726.391A.872.872,0,0,1-1591.637,1396.689Z" transform="translate(1606.615 -1384.59)" fill="#636363"/>
  </g>
</svg>
