<svg xmlns="http://www.w3.org/2000/svg" xmlns:xlink="http://www.w3.org/1999/xlink" width="20" height="20" viewBox="0 0 20 20">
  <defs>
    <clipPath id="clip-icon_ct6">
      <rect width="20" height="20"/>
    </clipPath>
  </defs>
  <g id="icon_ct6" clip-path="url(#clip-icon_ct6)">
    <g id="Group_8129" data-name="Group 8129" transform="translate(2061.821 -1471.702)">
      <path id="Path_30465" data-name="Path 30465" d="M-2045.694,1481.885a.7.7,0,0,0-.7.7v7.012a.7.7,0,0,1-.7.7h-12.621a.7.7,0,0,1-.7-.7v-14.024a.7.7,0,0,1,.7-.7h8.414a.7.7,0,0,0,.7-.7.7.7,0,0,0-.7-.7h-8.414a2.1,2.1,0,0,0-2.1,2.1V1489.6a2.1,2.1,0,0,0,2.1,2.1h12.621a2.1,2.1,0,0,0,2.1-2.1v-7.012A.7.7,0,0,0-2045.694,1481.885Z" fill="#636363"/>
      <path id="Path_30466" data-name="Path 30466" d="M-2042.607,1472.488a2.684,2.684,0,0,0-1.9-.786,2.664,2.664,0,0,0-1.9.786l-1.111,1.111,3.8,3.8,1.111-1.111A2.684,2.684,0,0,0-2042.607,1472.488Z" fill="#636363"/>
      <path id="Path_30467" data-name="Path 30467" d="M-2055.554,1481.638l3.8,3.8,7.529-7.529-3.8-3.8Zm7.972-6.206a.272.272,0,0,1,0,.386l-6.295,6.3a.274.274,0,0,1-.386,0,.272.272,0,0,1,0-.386l6.295-6.3A.272.272,0,0,1-2047.582,1475.432Z" fill="#636363"/>
      <path id="Path_30468" data-name="Path 30468" d="M-2057.134,1487.459a.723.723,0,0,0,.221.036.725.725,0,0,0,.222-.036l4.207-1.4a.724.724,0,0,0,.162-.08l-3.774-3.774a.692.692,0,0,0-.079.161l-1.4,4.208A.7.7,0,0,0-2057.134,1487.459Z" fill="#636363"/>
    </g>
  </g>
</svg>
