<svg xmlns="http://www.w3.org/2000/svg" xmlns:xlink="http://www.w3.org/1999/xlink" width="20" height="20" viewBox="0 0 20 20">
  <defs>
    <clipPath id="clip-icon_ct2_hv">
      <rect width="20" height="20"/>
    </clipPath>
  </defs>
  <g id="icon_ct2_hv" clip-path="url(#clip-icon_ct2_hv)">
    <g id="Group_8126" data-name="Group 8126" transform="translate(2065.142 -1353.553)">
      <path id="Path_30453" data-name="Path 30453" d="M-2048.891,1354.672h-4.675a3.5,3.5,0,0,1,.356,1.521v5.28a2.726,2.726,0,0,1-2.8,2.64,2.864,2.864,0,0,1-1.977-.773,2.552,2.552,0,0,1-.819-1.867v-4.752a1.635,1.635,0,0,1,1.678-1.584,1.634,1.634,0,0,1,1.677,1.584v2.742a.544.544,0,0,1-.559.528.544.544,0,0,1-.559-.528v-2.742a.545.545,0,0,0-.559-.528.546.546,0,0,0-.56.528v4.752a1.531,1.531,0,0,0,.492,1.12,1.719,1.719,0,0,0,1.186.464,1.635,1.635,0,0,0,1.678-1.584v-5.28a2.52,2.52,0,0,0-.518-1.521,2.844,2.844,0,0,0-2.278-1.119,2.869,2.869,0,0,0-1.978.773,2.723,2.723,0,0,0-.3.346,2.518,2.518,0,0,0-.518,1.521v5.28a.544.544,0,0,1-.559.528.545.545,0,0,1-.56-.528v-5.28a3.5,3.5,0,0,1,.34-1.491,2.649,2.649,0,0,0-2.441,2.566v13.689a2.679,2.679,0,0,0,2.75,2.6h11.5a2.678,2.678,0,0,0,2.749-2.6v-13.689A2.678,2.678,0,0,0-2048.891,1354.672Zm-2,16.049h-.334v-.015h-6.3v.015h-.868a.73.73,0,0,1-.75-.708.73.73,0,0,1,.75-.708h7.5a.73.73,0,0,1,.75.708A.73.73,0,0,1-2050.892,1370.721Zm0-3.776h-7.5a.73.73,0,0,1-.75-.708.7.7,0,0,1,.405-.619.771.771,0,0,1,.345-.089h7.5a.772.772,0,0,1,.346.089.7.7,0,0,1,.4.619A.73.73,0,0,1-2050.892,1366.945Z" fill="#fff"/>
    </g>
  </g>
</svg>
