<svg xmlns="http://www.w3.org/2000/svg" xmlns:xlink="http://www.w3.org/1999/xlink" width="24" height="20" viewBox="0 0 24 20">
  <defs>
    <clipPath id="clip-path">
      <rect id="Rectangle_1584" data-name="Rectangle 1584" width="17" height="17" fill="#333"/>
    </clipPath>
    <clipPath id="clip-icon_back">
      <rect width="24" height="20"/>
    </clipPath>
  </defs>
  <g id="icon_back" clip-path="url(#clip-icon_back)">
    <g id="Group_7548" data-name="Group 7548" transform="translate(-1401 -22)">
      <g id="Group_2605" data-name="Group 2605" transform="translate(1405 24)">
        <g id="Group_2604" data-name="Group 2604" clip-path="url(#clip-path)">
          <path id="Path_26021" data-name="Path 26021" d="M12.95,0H.794A.779.779,0,0,0,0,.764V16.173a.779.779,0,0,0,.794.764h7.95A.332.332,0,0,0,9,16.376a4.793,4.793,0,0,1-1.012-5.2H3.557a1.04,1.04,0,1,1,0-2.079H9.494a5.4,5.4,0,0,1,2.2-1.074V7.948a1.283,1.283,0,0,1,1.254-1.2,1.307,1.307,0,0,1,.753.241l.039.028V.764A.779.779,0,0,0,12.95,0M10.186,7.487H3.557a1.04,1.04,0,1,1,0-2.079h6.629a1.04,1.04,0,1,1,0,2.079m0-3.5H3.557a1.063,1.063,0,0,1-1.082-1.04A1.062,1.062,0,0,1,3.557,1.912h6.629a1.062,1.062,0,0,1,1.082,1.039,1.062,1.062,0,0,1-1.082,1.04" transform="translate(0 0)" fill="#333"/>
          <path id="Path_26022" data-name="Path 26022" d="M11.562,8.118V7.051A.08.08,0,0,1,11.691,7l2.285,1.611a.066.066,0,0,1,0,.108L11.691,10.33a.081.081,0,0,1-.129-.054V9.211a2.921,2.921,0,0,0-2.934,3.065,3,3,0,0,0,5.932.261.563.563,0,0,1,.564-.457.549.549,0,0,1,.559.621,4.106,4.106,0,0,1-4.548,3.313,4.045,4.045,0,0,1-3.623-3.471,4.023,4.023,0,0,1,4.05-4.424" transform="translate(1.311 0.897)" fill="#333"/>
        </g>
      </g>
    </g>
  </g>
</svg>
