<?xml version="1.0" encoding="utf-8"?>
<!-- Generator: Adobe Illustrator 21.1.0, SVG Export Plug-In . SVG Version: 6.00 Build 0)  -->
<svg version="1.1" id="Layer_1" xmlns="http://www.w3.org/2000/svg" xmlns:xlink="http://www.w3.org/1999/xlink" x="0px" y="0px"
	 viewBox="0 0 11 14" style="enable-background:new 0 0 11 14;" xml:space="preserve">
<style type="text/css">
	.st0{fill:#333333;}
</style>
<g id="icon_list">
	<g id="Group_8070" transform="translate(-1596.685 -2156.334)">
		<path id="Path_30453" class="st0" d="M1602.4,2159.9c0-0.1-0.1-0.1-0.1-0.1c-0.2,0-0.4-0.1-0.4-0.3c-0.1-0.2,0-0.4,0.1-0.5
			c0,0,0-0.1,0-0.2c-0.1-0.1-0.2-0.2-0.3-0.3c0,0-0.1,0-0.2,0c-0.1,0.1-0.3,0.2-0.5,0.1c-0.2-0.1-0.3-0.3-0.3-0.4
			c0-0.1,0-0.1-0.1-0.1c-0.2,0-0.3,0-0.5,0c-0.1,0-0.1,0.1-0.1,0.1c0,0.2-0.1,0.4-0.3,0.4c-0.2,0.1-0.4,0-0.5-0.1c0,0-0.1-0.1-0.2,0
			c-0.1,0.1-0.2,0.2-0.3,0.3c0,0,0,0.1,0,0.2c0.1,0.1,0.2,0.3,0.1,0.5c-0.1,0.2-0.3,0.3-0.4,0.3c-0.1,0-0.1,0-0.1,0.1
			c0,0.2,0,0.3,0,0.5c0,0.1,0.1,0.1,0.1,0.1c0.2,0,0.4,0.1,0.4,0.3c0.1,0.2,0,0.4-0.1,0.5c0,0,0,0.1,0,0.2c0.1,0.1,0.2,0.2,0.3,0.3
			c0,0,0.1,0,0.2,0c0.1-0.1,0.3-0.2,0.5-0.1c0.2,0.1,0.3,0.3,0.3,0.4c0,0.1,0,0.1,0.1,0.1c0.1,0,0.2,0,0.2,0c0.1,0,0.1,0,0.2,0
			c0.1,0,0.1-0.1,0.1-0.1c0-0.2,0.1-0.4,0.3-0.4c0.2-0.1,0.4,0,0.5,0.1c0,0,0.1,0,0.2,0c0.1-0.1,0.2-0.2,0.3-0.3c0,0,0-0.1,0-0.2
			c-0.2-0.2-0.2-0.5,0-0.6c0.1-0.1,0.2-0.1,0.3-0.1h0c0.1,0,0.1,0,0.1-0.1C1602.4,2160.2,1602.4,2160,1602.4,2159.9 M1600.4,2160.8
			c-0.4,0-0.7-0.3-0.7-0.7c0-0.4,0.3-0.7,0.7-0.7s0.7,0.3,0.7,0.7c0,0,0,0,0,0C1601.1,2160.5,1600.8,2160.8,1600.4,2160.8"/>
		<path id="Path_30454" class="st0" d="M1607.6,2159.6c0-0.1-0.1-0.2-0.2-0.2l-2.9-2.9c-0.1-0.1-0.1-0.1-0.2-0.2
			c-0.1,0-0.2-0.1-0.3-0.1h-5.7c-0.9,0-1.7,0.8-1.7,1.7v10.6c0,0.9,0.7,1.7,1.7,1.7h7.7c0.9,0,1.7-0.8,1.7-1.7v-8.7
			C1607.7,2159.8,1607.7,2159.7,1607.6,2159.6 M1607,2168.6c0,0.5-0.4,1-1,1h-7.7c-0.5,0-1-0.4-1-1V2158c0-0.5,0.4-1,1-1h5.4
			l0.1,0.1v1.3c0,0.9,0.7,1.7,1.7,1.7h1.4l0.1,0.1L1607,2168.6z M1606.9,2159.6h-1.4c-0.7,0-1.2-0.5-1.2-1.2v-1.3l0-0.1
			L1606.9,2159.6L1606.9,2159.6z"/>
		<path id="Path_30455" class="st0" d="M1598.4,2163.7L1598.4,2163.7c0,0.2,0.2,0.3,0.4,0.3h6.9c0.2,0,0.4-0.1,0.4-0.3
			s-0.1-0.4-0.3-0.4c0,0-0.1,0-0.1,0h-6.9C1598.6,2163.3,1598.4,2163.5,1598.4,2163.7"/>
		<path id="Path_30456" class="st0" d="M1598.4,2165.8L1598.4,2165.8c0,0.2,0.2,0.3,0.4,0.3h6.9c0.2,0,0.4-0.1,0.4-0.3
			s-0.1-0.4-0.3-0.4c0,0-0.1,0-0.1,0h-6.9C1598.6,2165.4,1598.4,2165.5,1598.4,2165.8"/>
		<path id="Path_30457" class="st0" d="M1598.4,2167.8L1598.4,2167.8c0,0.2,0.2,0.3,0.4,0.3h6.9c0.2,0,0.4-0.1,0.4-0.3
			s-0.1-0.4-0.3-0.4c0,0-0.1,0-0.1,0h-6.9C1598.6,2167.5,1598.4,2167.6,1598.4,2167.8"/>
	</g>
</g>
</svg>
