<svg xmlns="http://www.w3.org/2000/svg" xmlns:xlink="http://www.w3.org/1999/xlink" width="20" height="20" viewBox="0 0 20 20">
  <defs>
    <clipPath id="clip-icon_thuhoi_hv">
      <rect width="20" height="20"/>
    </clipPath>
  </defs>
  <g id="icon_thuhoi_hv" clip-path="url(#clip-icon_thuhoi_hv)">
    <g id="Group_8125" data-name="Group 8125" transform="translate(1829.257 -1400.183)">
      <path id="Path_30505" data-name="Path 30505" d="M-1844.849,1428.485l.04,0a.445.445,0,0,0,.44-.361c.026-.145.674-3.552,4.033-3.552h6.263v1.739a.434.434,0,0,0,.267.4.457.457,0,0,0,.482-.076l4.921-4.348a.432.432,0,0,0,.146-.321.434.434,0,0,0-.146-.322l-4.921-4.348a.457.457,0,0,0-.482-.076.435.435,0,0,0-.267.4v2.174h-6.263c-2.668,0-4.921,1.991-4.921,4.348v3.913A.438.438,0,0,0-1844.849,1428.485Z" fill="#636363"/>
      <path id="Path_30506" data-name="Path 30506" d="M-1828.666,1425.881a.443.443,0,0,0-.479.359c-.027.145-.675,3.552-4.033,3.552h-5.816v-1.739a.434.434,0,0,0-.258-.394.454.454,0,0,0-.476.06l-5.368,4.347a.43.43,0,0,0-.161.334.429.429,0,0,0,.161.334l5.368,4.348a.459.459,0,0,0,.287.1.464.464,0,0,0,.189-.041.435.435,0,0,0,.258-.394v-2.174h5.816c2.667,0,4.921-1.991,4.921-4.348v-3.913A.439.439,0,0,0-1828.666,1425.881Zm-.486,4.345a3.833,3.833,0,0,1-4.026,3.479h-6.263a.441.441,0,0,0-.448.434v1.681l-4.222-3.42,4.222-3.419v1.245a.442.442,0,0,0,.448.435h6.263a4.6,4.6,0,0,0,4.026-2.162Z" fill="#636363"/>
    </g>
    <g id="Group_8127" data-name="Group 8127" transform="translate(1847.257 -1417.183)">
      <path id="Path_30505-2" data-name="Path 30505" d="M-1844.849,1428.485l.04,0a.445.445,0,0,0,.44-.361c.026-.145.674-3.552,4.033-3.552h6.263v1.739a.434.434,0,0,0,.267.4.457.457,0,0,0,.482-.076l4.921-4.348a.432.432,0,0,0,.146-.321.434.434,0,0,0-.146-.322l-4.921-4.348a.457.457,0,0,0-.482-.076.435.435,0,0,0-.267.4v2.174h-6.263c-2.668,0-4.921,1.991-4.921,4.348v3.913A.438.438,0,0,0-1844.849,1428.485Z" fill="#fff"/>
      <path id="Path_30506-2" data-name="Path 30506" d="M-1828.666,1425.881a.443.443,0,0,0-.479.359c-.027.145-.675,3.552-4.033,3.552h-5.816v-1.739a.434.434,0,0,0-.258-.394.454.454,0,0,0-.476.06l-5.368,4.347a.43.43,0,0,0-.161.334.429.429,0,0,0,.161.334l5.368,4.348a.459.459,0,0,0,.287.1.464.464,0,0,0,.189-.041.435.435,0,0,0,.258-.394v-2.174h5.816c2.667,0,4.921-1.991,4.921-4.348v-3.913A.439.439,0,0,0-1828.666,1425.881Zm-.486,4.345a3.833,3.833,0,0,1-4.026,3.479h-6.263a.441.441,0,0,0-.448.434v1.681l-4.222-3.42,4.222-3.419v1.245a.442.442,0,0,0,.448.435h6.263a4.6,4.6,0,0,0,4.026-2.162Z" fill="#fff"/>
    </g>
  </g>
</svg>
