<svg xmlns="http://www.w3.org/2000/svg" xmlns:xlink="http://www.w3.org/1999/xlink" width="20" height="20" viewBox="0 0 20 20">
  <defs>
    <clipPath id="clip-icon_ct5_hv">
      <rect width="20" height="20"/>
    </clipPath>
  </defs>
  <g id="icon_ct5_hv" clip-path="url(#clip-icon_ct5_hv)">
    <path id="Path_30607" data-name="Path 30607" d="M-2043.286,1456.211h-.873a8.675,8.675,0,0,0-4.647-6.73,1.64,1.64,0,0,0-.552-.571l-3.91-2.428a1.674,1.674,0,0,0-1.68-.046,1.633,1.633,0,0,0-.854,1.433v.152a9.641,9.641,0,0,0-6.713,9.217,9.114,9.114,0,0,0,.3,2.185l.069.265.039,2.655a1.181,1.181,0,0,0,.64,1.04,1.207,1.207,0,0,0,1.229-.052l.452-.289a9.218,9.218,0,0,0,6.663,3.187c.084,0,.169,0,.253,0a9.2,9.2,0,0,0,2.84-.445,1.926,1.926,0,0,0,1.295-1.389,1.927,1.927,0,0,0-.523-1.839,2,2,0,0,0-2-.474,5.439,5.439,0,0,1-1.782.244,5.279,5.279,0,0,1-3.423-1.414l.349-.224a1.181,1.181,0,0,0,.55-1.09,1.183,1.183,0,0,0-.7-1l-1.34-.619a4.682,4.682,0,0,1-.084-.787,4.782,4.782,0,0,1,1.982-3.927,1.644,1.644,0,0,0,.76.9,1.664,1.664,0,0,0,1.681-.045l3.127-1.943a5.659,5.659,0,0,1,2.905,4.038h-.955a.761.761,0,0,0-.651,1.165l2.453,3.873a.773.773,0,0,0,1.3,0l2.453-3.873A.761.761,0,0,0-2043.286,1456.211Zm-13.972,2.9.617.284a.314.314,0,0,1,.186.271.306.306,0,0,1-.147.291l-1.229.79.337.382a6.183,6.183,0,0,0,4.419,2.08,6.451,6.451,0,0,0,2.081-.286,1.1,1.1,0,0,1,1.108.259,1.064,1.064,0,0,1,.288,1.014,1.044,1.044,0,0,1-.708.762,8.666,8.666,0,0,1-2.8.4,8.35,8.35,0,0,1-6.252-3.163l-.25-.31-1.118.716a.326.326,0,0,1-.331.014.318.318,0,0,1-.172-.28l-.033-2.25-.033-2.322a.317.317,0,0,1,.148-.274.33.33,0,0,1,.316-.022l.109.05,1.347.622Zm3.227-6.589v-1.951l-1.2.459a6.556,6.556,0,0,0-4.223,6.1l-1-.46a1.29,1.29,0,0,0-.245-.045,7.859,7.859,0,0,1,5.988-7.082l.679-.161v-1.3l1.008.625,2.566,1.594-1.951,1.211Z" transform="translate(2062.516 -1446.232)" fill="#fff"/>
  </g>
</svg>
