<svg xmlns="http://www.w3.org/2000/svg" xmlns:xlink="http://www.w3.org/1999/xlink" width="20" height="20" viewBox="0 0 20 20">
  <defs>
    <clipPath id="clip-icon_cs_hv">
      <rect width="20" height="20"/>
    </clipPath>
  </defs>
  <g id="icon_cs_hv" clip-path="url(#clip-icon_cs_hv)">
    <g id="Group_8125" data-name="Group 8125" transform="translate(1829.257 -1400.183)">
      <path id="Path_30505" data-name="Path 30505" d="M-1844.849,1428.485l.04,0a.445.445,0,0,0,.44-.361c.026-.145.674-3.552,4.033-3.552h6.263v1.739a.434.434,0,0,0,.267.4.457.457,0,0,0,.482-.076l4.921-4.348a.432.432,0,0,0,.146-.321.434.434,0,0,0-.146-.322l-4.921-4.348a.457.457,0,0,0-.482-.076.435.435,0,0,0-.267.4v2.174h-6.263c-2.668,0-4.921,1.991-4.921,4.348v3.913A.438.438,0,0,0-1844.849,1428.485Z" fill="#636363"/>
      <path id="Path_30506" data-name="Path 30506" d="M-1828.666,1425.881a.443.443,0,0,0-.479.359c-.027.145-.675,3.552-4.033,3.552h-5.816v-1.739a.434.434,0,0,0-.258-.394.454.454,0,0,0-.476.06l-5.368,4.347a.43.43,0,0,0-.161.334.429.429,0,0,0,.161.334l5.368,4.348a.459.459,0,0,0,.287.1.464.464,0,0,0,.189-.041.435.435,0,0,0,.258-.394v-2.174h5.816c2.667,0,4.921-1.991,4.921-4.348v-3.913A.439.439,0,0,0-1828.666,1425.881Zm-.486,4.345a3.833,3.833,0,0,1-4.026,3.479h-6.263a.441.441,0,0,0-.448.434v1.681l-4.222-3.42,4.222-3.419v1.245a.442.442,0,0,0,.448.435h6.263a4.6,4.6,0,0,0,4.026-2.162Z" fill="#636363"/>
    </g>
    <g id="Group_8126" data-name="Group 8126" transform="translate(1846.757 -1441.774)">
      <path id="Path_30507" data-name="Path 30507" d="M-1839.027,1460.746a.781.781,0,0,1-.738.526.779.779,0,0,1-.255-.043,10,10,0,0,1-6.737-9.455,9.934,9.934,0,0,1,2.929-7.071,9.93,9.93,0,0,1,7.07-2.929,9.934,9.934,0,0,1,7.072,2.929,9.937,9.937,0,0,1,2.928,7.071.781.781,0,0,1-.781.781.781.781,0,0,1-.781-.781,8.447,8.447,0,0,0-8.438-8.438,8.447,8.447,0,0,0-8.437,8.438,8.442,8.442,0,0,0,5.685,7.978A.781.781,0,0,1-1839.027,1460.746Z" fill="#fff"/>
      <path id="Path_30508" data-name="Path 30508" d="M-1826.791,1459.86c0-.022-.01-.042-.016-.063a5.5,5.5,0,0,0-1.866-3.042,5.467,5.467,0,0,0-1.189-.746,3.031,3.031,0,0,0,.761-2.01,3.051,3.051,0,0,0-3.047-3.047,3.051,3.051,0,0,0-3.047,3.047,3.036,3.036,0,0,0,.76,2.01,5.486,5.486,0,0,0-1.188.746,5.5,5.5,0,0,0-1.882,3.115,1.577,1.577,0,0,0,.322,1.323,1.567,1.567,0,0,0,1.22.581h7.629a1.564,1.564,0,0,0,1.217-.581A1.592,1.592,0,0,0-1826.791,1459.86Z" fill="#fff"/>
      <path id="Path_30509" data-name="Path 30509" d="M-1833.786,1447.428a.626.626,0,0,1-.626.626h-1.72v1.72a.625.625,0,0,1-.625.625.626.626,0,0,1-.626-.625v-1.72h-1.72a.625.625,0,0,1-.625-.626.625.625,0,0,1,.625-.625h1.72v-1.72a.626.626,0,0,1,.626-.626.625.625,0,0,1,.625.626v1.72h1.72A.625.625,0,0,1-1833.786,1447.428Z" fill="#fff"/>
      <rect id="Rectangle_4386" data-name="Rectangle 4386" width="6.444" height="1.552" rx="0.648" transform="translate(-1842.835 1454.406)" fill="#fff"/>
      <rect id="Rectangle_4387" data-name="Rectangle 4387" width="2.109" height="1.552" rx="0.648" transform="translate(-1839.906 1457.081)" fill="#fff"/>
      <rect id="Rectangle_4388" data-name="Rectangle 4388" width="7.557" height="1.552" rx="0.648" transform="translate(-1843.948 1451.523)" fill="#fff"/>
    </g>
  </g>
</svg>
