<svg xmlns="http://www.w3.org/2000/svg" xmlns:xlink="http://www.w3.org/1999/xlink" width="22" height="22" viewBox="0 0 22 22">
  <defs>
    <clipPath id="clip-path">
      <rect id="Rectangle_1506" data-name="Rectangle 1506" width="19.322" height="19.322" fill="#707070"/>
    </clipPath>
    <clipPath id="clip-icon_date">
      <rect width="22" height="22"/>
    </clipPath>
  </defs>
  <g id="icon_date" clip-path="url(#clip-icon_date)">
    <g id="Group_7568" data-name="Group 7568" transform="translate(1 1)">
      <g id="Group_2414" data-name="Group 2414" clip-path="url(#clip-path)">
        <path id="Path_25850" data-name="Path 25850" d="M17.252,2.07h-2.07V.69a.69.69,0,1,0-1.38,0V2.07H5.521V.69a.69.69,0,1,0-1.38,0V2.07H2.07A2.07,2.07,0,0,0,0,4.141V17.252a2.07,2.07,0,0,0,2.07,2.07H17.252a2.07,2.07,0,0,0,2.07-2.07V4.141a2.07,2.07,0,0,0-2.07-2.07m.69,15.182a.69.69,0,0,1-.69.69H2.07a.69.69,0,0,1-.69-.69V8.281H17.942Zm0-10.351H1.38V4.141a.69.69,0,0,1,.69-.69h2.07v1.38a.69.69,0,1,0,1.38,0V3.45H13.8v1.38a.69.69,0,1,0,1.38,0V3.45h2.07a.69.69,0,0,1,.69.69V6.9Z" fill="#707070"/>
        <path id="Path_25851" data-name="Path 25851" d="M87.4,238.933h-1.38a.69.69,0,0,0,0,1.38H87.4a.69.69,0,0,0,0-1.38" transform="translate(-81.883 -229.272)" fill="#707070"/>
        <path id="Path_25852" data-name="Path 25852" d="M206.87,238.933h-1.38a.69.69,0,0,0,0,1.38h1.38a.69.69,0,0,0,0-1.38" transform="translate(-196.519 -229.272)" fill="#707070"/>
        <path id="Path_25853" data-name="Path 25853" d="M326.337,238.933h-1.38a.69.69,0,0,0,0,1.38h1.38a.69.69,0,0,0,0-1.38" transform="translate(-311.155 -229.272)" fill="#707070"/>
        <path id="Path_25854" data-name="Path 25854" d="M87.4,307.2h-1.38a.69.69,0,1,0,0,1.38H87.4a.69.69,0,0,0,0-1.38" transform="translate(-81.883 -294.778)" fill="#707070"/>
        <path id="Path_25855" data-name="Path 25855" d="M206.87,307.2h-1.38a.69.69,0,1,0,0,1.38h1.38a.69.69,0,1,0,0-1.38" transform="translate(-196.519 -294.778)" fill="#707070"/>
        <path id="Path_25856" data-name="Path 25856" d="M326.337,307.2h-1.38a.69.69,0,1,0,0,1.38h1.38a.69.69,0,1,0,0-1.38" transform="translate(-311.155 -294.778)" fill="#707070"/>
        <path id="Path_25857" data-name="Path 25857" d="M87.4,375.467h-1.38a.69.69,0,1,0,0,1.38H87.4a.69.69,0,1,0,0-1.38" transform="translate(-81.883 -360.285)" fill="#707070"/>
        <path id="Path_25858" data-name="Path 25858" d="M206.87,375.467h-1.38a.69.69,0,0,0,0,1.38h1.38a.69.69,0,1,0,0-1.38" transform="translate(-196.519 -360.285)" fill="#707070"/>
        <path id="Path_25859" data-name="Path 25859" d="M326.337,375.467h-1.38a.69.69,0,0,0,0,1.38h1.38a.69.69,0,0,0,0-1.38" transform="translate(-311.155 -360.285)" fill="#707070"/>
      </g>
    </g>
  </g>
</svg>
