<svg xmlns="http://www.w3.org/2000/svg" xmlns:xlink="http://www.w3.org/1999/xlink" width="20" height="20" viewBox="0 0 20 20">
  <defs>
    <clipPath id="clip-icon_ls_hv">
      <rect width="20" height="20"/>
    </clipPath>
  </defs>
  <g id="icon_ls_hv" clip-path="url(#clip-icon_ls_hv)">
    <g id="Group_8132" data-name="Group 8132" transform="translate(1698.53 -1312.822)">
      <g id="Group_8066" data-name="Group 8066">
        <g id="Group_8065" data-name="Group 8065">
          <path id="Path_30473" data-name="Path 30473" d="M-1681.459,1315.751a9.938,9.938,0,0,0-7.071-2.929,9.936,9.936,0,0,0-7.071,2.929,9.934,9.934,0,0,0-2.929,7.071,9.935,9.935,0,0,0,2.929,7.072,9.935,9.935,0,0,0,7.071,2.928,9.938,9.938,0,0,0,7.071-2.928,9.939,9.939,0,0,0,2.929-7.072A9.938,9.938,0,0,0-1681.459,1315.751Zm-7.071,15.109a8.047,8.047,0,0,1-8.038-8.038v-.036a8.045,8.045,0,0,1,7.927-8l.028,0h.082a8.047,8.047,0,0,1,8.037,8.038A8.047,8.047,0,0,1-1688.53,1330.86Z" fill="#fff"/>
        </g>
      </g>
      <g id="Group_8068" data-name="Group 8068">
        <g id="Group_8067" data-name="Group 8067">
          <path id="Path_30474" data-name="Path 30474" d="M-1682.425,1323.305a.592.592,0,0,1-.592-.591.592.592,0,0,1,.592-.592h.713a6.865,6.865,0,0,0-6.308-6.134v.621a.592.592,0,0,1-.592.591.592.592,0,0,1-.592-.591V1316a6.864,6.864,0,0,0-6.152,6.2h.639a.592.592,0,0,1,.592.591.592.592,0,0,1-.592.592h-.644a6.865,6.865,0,0,0,6.239,6.263v-.75a.592.592,0,0,1,.592-.591.592.592,0,0,1,.591.591v.75a6.863,6.863,0,0,0,6.245-6.345Zm-3.71-2.041-1.977,1.977a.59.59,0,0,1-.418.173.592.592,0,0,1-.419-.173l-3.441-3.441a.592.592,0,0,1,0-.837.592.592,0,0,1,.837,0l3.023,3.023,1.558-1.559a.592.592,0,0,1,.837,0A.592.592,0,0,1-1686.135,1321.264Z" fill="#fff"/>
        </g>
      </g>
    </g>
  </g>
</svg>
