<svg xmlns="http://www.w3.org/2000/svg" xmlns:xlink="http://www.w3.org/1999/xlink" width="22" height="22" viewBox="0 0 22 22">
  <defs>
    <clipPath id="clip-path">
      <rect id="Rectangle_1650" data-name="Rectangle 1650" width="10.57" height="12.67" fill="none"/>
    </clipPath>
    <clipPath id="clip-icon_hoso">
      <rect width="22" height="22"/>
    </clipPath>
  </defs>
  <g id="icon_hoso" clip-path="url(#clip-icon_hoso)">
    <g id="Group_7578" data-name="Group 7578" transform="translate(6 5)">
      <g id="Group_2731" data-name="Group 2731" transform="translate(0 0)" clip-path="url(#clip-path)">
        <path id="Path_26134" data-name="Path 26134" d="M4.3,6.1a3.05,3.05,0,1,0-2.156-.893A2.953,2.953,0,0,0,4.3,6.1" transform="translate(0.909 0)" fill="#333"/>
        <path id="Path_26135" data-name="Path 26135" d="M10.541,7.171l.005,0a7.31,7.31,0,0,0-.1-.8,6.506,6.506,0,0,0-.2-.8,3.926,3.926,0,0,0-.331-.749,2.768,2.768,0,0,0-.5-.649A2.16,2.16,0,0,0,8.7,3.718a2.512,2.512,0,0,0-.915-.174.944.944,0,0,0-.5.211l-.518.333a3.076,3.076,0,0,1-.668.3,2.615,2.615,0,0,1-1.633,0,3,3,0,0,1-.668-.3l-.518-.333a.935.935,0,0,0-.5-.212,2.483,2.483,0,0,0-.915.174,2.16,2.16,0,0,0-.716.451,2.815,2.815,0,0,0-.5.649,3.975,3.975,0,0,0-.331.749,6.556,6.556,0,0,0-.2.8,7.4,7.4,0,0,0-.1.8C.009,7.412,0,7.663,0,7.918a2.1,2.1,0,0,0,.625,1.59,2.241,2.241,0,0,0,1.609.585h6.1a2.241,2.241,0,0,0,1.609-.585,2.1,2.1,0,0,0,.625-1.59c0-.255-.009-.506-.026-.748" transform="translate(0 2.573)" fill="#333"/>
      </g>
    </g>
  </g>
</svg>
