<svg xmlns="http://www.w3.org/2000/svg" xmlns:xlink="http://www.w3.org/1999/xlink" width="28" height="28" viewBox="0 0 28 28">
  <defs>
    <clipPath id="clip-path">
      <rect id="Rectangle_1541" data-name="Rectangle 1541" width="26" height="26" fill="#636363"/>
    </clipPath>
    <clipPath id="clip-icon_vb_15">
      <rect width="28" height="28"/>
    </clipPath>
  </defs>
  <g id="icon_vb_15" data-name="icon_vb – 15" clip-path="url(#clip-icon_vb_15)">
    <g id="Group_7552" data-name="Group 7552" transform="translate(1 1)">
      <g id="Group_2440" data-name="Group 2440" clip-path="url(#clip-path)">
        <path id="Path_25882" data-name="Path 25882" d="M13,0A13,13,0,1,0,26,13,13,13,0,0,0,13,0m0,24.375A11.375,11.375,0,1,1,24.375,13,11.375,11.375,0,0,1,13,24.375" fill="#636363"/>
        <path id="Path_25885" data-name="Path 25885" d="M13.249,11.73a.41.41,0,0,0,0,.58l0,0a1.713,1.713,0,0,1,0,2.42l-3.5,3.5a1.713,1.713,0,0,1-2.42,0L6.8,17.7a1.713,1.713,0,0,1,0-2.42l3.5-3.5A.412.412,0,0,0,9.72,11.2l-3.5,3.5a2.53,2.53,0,0,0,0,3.579l0,.005.527.527a2.537,2.537,0,0,0,3.584,0l3.5-3.5a2.539,2.539,0,0,0,0-3.584.41.41,0,0,0-.58,0l0,0" fill="#636363"/>
        <path id="Path_25886" data-name="Path 25886" d="M19.445,7.125,18.918,6.6a2.537,2.537,0,0,0-3.584,0l-3.5,3.5a2.539,2.539,0,0,0,0,3.585.412.412,0,0,0,.61-.555c-.009-.01-.019-.019-.028-.028a1.713,1.713,0,0,1,0-2.42l3.5-3.5a1.713,1.713,0,0,1,2.42,0l.527.527a1.713,1.713,0,0,1,0,2.42l-3.5,3.5a.413.413,0,0,0,.29.7.4.4,0,0,0,.29-.122l3.5-3.5a2.536,2.536,0,0,0,0-3.584" fill="#636363"/>
      </g>
    </g>
  </g>
</svg>
