<svg xmlns="http://www.w3.org/2000/svg" xmlns:xlink="http://www.w3.org/1999/xlink" width="19" height="21" viewBox="0 0 19 21">
  <defs>
    <clipPath id="clip-icon_ch">
      <rect width="19" height="21"/>
    </clipPath>
  </defs>
  <g id="icon_ch" clip-path="url(#clip-icon_ch)">
    <g id="Group_7537" data-name="Group 7537" transform="translate(-1965.053 -1062.945)">
      <path id="Path_26023" data-name="Path 26023" d="M14.985,106.945H7.506a3.479,3.479,0,0,0-3.413,3.512v.086l1.38.013v-.1a2.091,2.091,0,0,1,2.033-2.1h7.479a2.033,2.033,0,0,1,1.965,2.1v4.13a2.015,2.015,0,0,1-1.872,2.05l.008,1.436a3.477,3.477,0,0,0,3.332-3.489v-4.127a3.5,3.5,0,0,0-3.433-3.512" transform="translate(1965 958)" fill="#fff"/>
      <path id="Path_26024" data-name="Path 26024" d="M11.668,111.7l-9.09-.107a2.47,2.47,0,0,0-2.469,2.472l-.056,5.018a2.469,2.469,0,0,0,2.412,2.526l6.079.072,3.3,1.728a.611.611,0,0,0,.649-.054.674.674,0,0,0,.242-.634l-.18-1.018a1.452,1.452,0,0,0,1.459-1.445l.067-6.028a2.471,2.471,0,0,0-2.408-2.53m-1.12,7.877H3.562c-.386,0-.7-.449-.7-1.019s.312-1.024.7-1.024h6.986c.385,0,.7.45.7,1.024s-.313,1.019-.7,1.019m0-3.653H3.562c-.386,0-.7-.439-.7-1s.312-1,.7-1h6.986c.385,0,.7.441.7,1s-.313,1-.7,1" transform="translate(1965 958)" fill="#fff"/>
    </g>
  </g>
</svg>
