<svg xmlns="http://www.w3.org/2000/svg" xmlns:xlink="http://www.w3.org/1999/xlink" width="24" height="22" viewBox="0 0 24 22">
  <defs>
    <clipPath id="clip-path">
      <rect id="Rectangle_1642" data-name="Rectangle 1642" width="19.03" height="20.159" fill="#707070"/>
    </clipPath>
    <clipPath id="clip-icon_luusao">
      <rect width="24" height="22"/>
    </clipPath>
  </defs>
  <g id="icon_luusao" clip-path="url(#clip-icon_luusao)">
    <g id="Group_8061" data-name="Group 8061" transform="translate(2 1)">
      <g id="Group_2709" data-name="Group 2709" clip-path="url(#clip-path)">
        <path id="Path_26111" data-name="Path 26111" d="M429.364,326.251a.4.4,0,0,1-.292-.129l-2.827-3.055a.419.419,0,0,1,.292-.7h1.481v-3.194a.685.685,0,0,1,.673-.694h1.346a.685.685,0,0,1,.673.694v3.194h1.481a.419.419,0,0,1,.292.7l-2.827,3.055a.4.4,0,0,1-.292.129" transform="translate(-413.905 -308.898)" fill="#707070"/>
        <path id="Path_26112" data-name="Path 26112" d="M11.461,14.84H6.914a.82.82,0,0,1,0-1.64h5.1a1.39,1.39,0,0,1,.806-.259h.66V11.364a.782.782,0,0,1-.585.265H6.914a.82.82,0,0,1,0-1.64H12.9a.782.782,0,0,1,.592.273A1.745,1.745,0,0,1,15.2,8.644h1.488a1.671,1.671,0,0,1,.884.253V5.548L13.3.52,5.988.5A2.582,2.582,0,0,0,3.549,3.016l-.7.017A2.485,2.485,0,0,0,.5,5.533V18.114A2.582,2.582,0,0,0,2.939,20.63h9.146a2.586,2.586,0,0,0,2.425-2.268l-2.718-2.938a1.474,1.474,0,0,1-.331-.583M13.3,1.778h0l3.049,3.756H14.524A1.284,1.284,0,0,1,13.3,4.274ZM6.12,7.6a.807.807,0,0,1,.795-.82H12.9a.82.82,0,0,1,0,1.64H6.914A.807.807,0,0,1,6.12,7.6Zm5.966,11.773H2.939A1.3,1.3,0,0,1,1.72,18.114V5.533c0-.936.746-1.258,1.829-1.258V15.6a2.582,2.582,0,0,0,2.439,2.516l7.322-.007a1.172,1.172,0,0,1-1.225,1.265" transform="translate(-0.486 -0.486)" fill="#707070"/>
        <path id="Path_26113" data-name="Path 26113" d="M11.461,14.84H6.914a.82.82,0,0,1,0-1.64h5.1a1.39,1.39,0,0,1,.806-.259h.66V11.364a.782.782,0,0,1-.585.265H6.914a.82.82,0,0,1,0-1.64H12.9a.782.782,0,0,1,.592.273A1.745,1.745,0,0,1,15.2,8.644h1.488a1.671,1.671,0,0,1,.884.253V5.548L13.3.52,5.988.5A2.582,2.582,0,0,0,3.549,3.016l-.7.017A2.485,2.485,0,0,0,.5,5.533V18.114A2.582,2.582,0,0,0,2.939,20.63h9.146a2.586,2.586,0,0,0,2.425-2.268l-2.718-2.938A1.474,1.474,0,0,1,11.461,14.84ZM13.3,1.778h0l3.049,3.756H14.524A1.284,1.284,0,0,1,13.3,4.274ZM6.12,7.6a.807.807,0,0,1,.795-.82H12.9a.82.82,0,0,1,0,1.64H6.914A.807.807,0,0,1,6.12,7.6Zm5.966,11.773H2.939A1.3,1.3,0,0,1,1.72,18.114V5.533c0-.936.746-1.258,1.829-1.258V15.6a2.582,2.582,0,0,0,2.439,2.516l7.322-.007A1.172,1.172,0,0,1,12.085,19.372Z" transform="translate(-0.486 -0.486)" fill="#707070"/>
      </g>
    </g>
  </g>
</svg>
