<svg xmlns="http://www.w3.org/2000/svg" xmlns:xlink="http://www.w3.org/1999/xlink" width="18" height="21" viewBox="0 0 18 21">
  <defs>
    <clipPath id="clip-icon_qt">
      <rect width="18" height="21"/>
    </clipPath>
  </defs>
  <g id="icon_qt" clip-path="url(#clip-icon_qt)">
    <path id="Path_30015" data-name="Path 30015" d="M10.653,54.326H3.113a1.085,1.085,0,0,1-1.249-1.235V39.56c0-.839.4-1.233,1.25-1.233H18.262a1.078,1.078,0,0,1,1.231,1.217q0,6.781,0,13.565a1.079,1.079,0,0,1-1.232,1.217H10.653m7.541-12.182H3.166v10.9h8.223c-.262-.354-.03-.514.211-.677a3.728,3.728,0,0,0,.436-.334.275.275,0,0,0,.08-.222c-.058-.243-.142-.479-.216-.717-.307-.026-.6-.055-.9-.072-.227-.012-.336-.118-.321-.348a9.455,9.455,0,0,1,.077-1.027.444.444,0,0,1,.31-.272,2.72,2.72,0,0,1,.683.038A.287.287,0,0,0,12.1,49.2c.239-.623.25-.619-.244-1.088-.051-.047-.1-.1-.147-.145a.3.3,0,0,1-.008-.5c.208-.213.419-.425.615-.649A.348.348,0,0,1,12.9,46.8c.2.191.384.485.611.522s.49-.193.736-.308c.019-.008.033-.028.064-.056-.03-.273-.057-.556-.1-.838-.035-.252.048-.4.315-.424.308-.031.615-.073.921-.115a.328.328,0,0,1,.422.328c.033.294.071.588.107.878l.869.21.191-.28c.445-.667.445-.668,1.149-.4ZM14.053,50.4a1.5,1.5,0,1,0,1.511-1.47,1.508,1.508,0,0,0-1.511,1.47m-.631-10.1c0,.51.116.64.576.641s.592-.125.6-.588c0-.549-.092-.653-.591-.651-.469,0-.578.115-.58.6m2.984.017c0-.513-.1-.615-.581-.615s-.589.116-.589.615.128.624.589.624.581-.122.581-.624m.666.007c0,.5.112.621.589.617.441,0,.579-.149.581-.614,0-.489-.126-.624-.6-.625-.5,0-.575.084-.575.622" transform="translate(-1.864 -36.326)" fill="#fff"/>
  </g>
</svg>
