<svg xmlns="http://www.w3.org/2000/svg" xmlns:xlink="http://www.w3.org/1999/xlink" width="20" height="20" viewBox="0 0 20 20">
  <defs>
    <clipPath id="clip-icon_th_hv">
      <rect width="20" height="20"/>
    </clipPath>
  </defs>
  <g id="icon_th_hv" clip-path="url(#clip-icon_th_hv)">
    <g id="Group_8134" data-name="Group 8134" transform="translate(1607.603 -1349.439)">
      <path id="Path_30477" data-name="Path 30477" d="M-1593.618,1359.007h-.154v-2.028a.468.468,0,0,0-.29-.434.459.459,0,0,0-.506.11l-4.009,4.211a.47.47,0,0,0,0,.648l4.009,4.211a.461.461,0,0,0,.506.11.469.469,0,0,0,.29-.435v-2.027h.733a5.056,5.056,0,0,1,4.552,2.845.475.475,0,0,0,.422.266.447.447,0,0,0,.1-.012.462.462,0,0,0,.36-.448v-.935A6.055,6.055,0,0,0-1593.618,1359.007Z" fill="#fff"/>
      <g id="Group_8072" data-name="Group 8072">
        <g id="Group_8071" data-name="Group 8071">
          <path id="Path_30478" data-name="Path 30478" d="M-1591.89,1351.439h-14.5a1.314,1.314,0,0,0-1.217,1.39v9.938a1.314,1.314,0,0,0,1.217,1.39h.94v3.7a.591.591,0,0,0,.314.539.47.47,0,0,0,.195.044.479.479,0,0,0,.361-.171l3.6-4.111h.722a.55.55,0,0,0,.51-.582.551.551,0,0,0-.51-.583l-.968,0a.482.482,0,0,0-.326.169l-2.877,3.287s0-2.912,0-2.927a.543.543,0,0,0-.508-.531h-1.449a.213.213,0,0,1-.2-.225v-9.938a.213.213,0,0,1,.2-.225h14.5a.212.212,0,0,1,.2.225v3.813a.549.549,0,0,0,.51.582.55.55,0,0,0,.51-.582v-3.813A1.314,1.314,0,0,0-1591.89,1351.439Z" fill="#fff"/>
        </g>
      </g>
      <g id="Group_8074" data-name="Group 8074">
        <g id="Group_8073" data-name="Group 8073">
          <path id="Path_30479" data-name="Path 30479" d="M-1596.666,1354.332h-7.7a.476.476,0,0,0-.423.515.477.477,0,0,0,.423.516h7.7a.476.476,0,0,0,.423-.516A.475.475,0,0,0-1596.666,1354.332Z" fill="#fff"/>
        </g>
      </g>
      <g id="Group_8076" data-name="Group 8076">
        <g id="Group_8075" data-name="Group 8075">
          <path id="Path_30480" data-name="Path 30480" d="M-1601.445,1357.224h-2.924a.477.477,0,0,0-.423.516.476.476,0,0,0,.423.515h2.924a.476.476,0,0,0,.423-.515A.477.477,0,0,0-1601.445,1357.224Z" fill="#fff"/>
        </g>
      </g>
      <g id="Group_8078" data-name="Group 8078">
        <g id="Group_8077" data-name="Group 8077">
          <path id="Path_30481" data-name="Path 30481" d="M-1601.445,1360.467h-2.924a.476.476,0,0,0-.423.515.477.477,0,0,0,.423.516h2.924a.477.477,0,0,0,.423-.516A.477.477,0,0,0-1601.445,1360.467Z" fill="#fff"/>
        </g>
      </g>
    </g>
  </g>
</svg>
