<svg xmlns="http://www.w3.org/2000/svg" xmlns:xlink="http://www.w3.org/1999/xlink" width="20" height="20" viewBox="0 0 20 20">
  <defs>
    <clipPath id="clip-icon_yk">
      <rect width="20" height="20"/>
    </clipPath>
  </defs>
  <g id="icon_yk" clip-path="url(#clip-icon_yk)">
    <g id="Group_8133" data-name="Group 8133" transform="translate(1609.317 -1319.76)">
      <path id="Path_30475" data-name="Path 30475" d="M-1590.989,1323.656a.623.623,0,0,0-.794.387.624.624,0,0,0,.387.8,1.237,1.237,0,0,1,.829,1.172v7.5a1.253,1.253,0,0,1-1.25,1.25h-.625a.625.625,0,0,0-.625.625v2.391l-3.344-2.865a.615.615,0,0,0-.406-.151h-5.538a.625.625,0,0,0-.625.625.625.625,0,0,0,.625.625h5.306l4.2,3.6a.62.62,0,0,0,.407.152.62.62,0,0,0,.261-.058.625.625,0,0,0,.364-.567v-3.125a2.5,2.5,0,0,0,2.5-2.5v-7.5A2.488,2.488,0,0,0-1590.989,1323.656Z" fill="#636363"/>
      <path id="Path_30476" data-name="Path 30476" d="M-1595.567,1332.26a2.5,2.5,0,0,0,2.5-2.5v-7.5a2.5,2.5,0,0,0-2.5-2.5h-11.25a2.5,2.5,0,0,0-2.5,2.5v7.5a2.5,2.5,0,0,0,2.5,2.5v3.125a.624.624,0,0,0,.363.567.621.621,0,0,0,.262.058.619.619,0,0,0,.406-.152l4.2-3.6Zm-1.25-8.125a.625.625,0,0,1-.625.625h-7.5a.625.625,0,0,1-.625-.625.625.625,0,0,1,.625-.625h7.5A.625.625,0,0,1-1596.817,1324.135Zm-8.75,2.5a.625.625,0,0,1,.625-.625h5a.625.625,0,0,1,.625.625.625.625,0,0,1-.625.625h-5A.625.625,0,0,1-1605.567,1326.635Z" fill="#636363"/>
    </g>
  </g>
</svg>
