<svg xmlns="http://www.w3.org/2000/svg" xmlns:xlink="http://www.w3.org/1999/xlink" width="15" height="14" viewBox="0 0 15 14">
  <defs>
    <clipPath id="clip-icon_menu_hover_">
      <rect width="15" height="14"/>
    </clipPath>
  </defs>
  <g id="icon_menu_hover_" data-name="icon_menu_hover     " clip-path="url(#clip-icon_menu_hover_)">
    <g id="Group_7573" data-name="Group 7573" transform="translate(-21.685 -191.506)">
      <path id="Path_407" data-name="Path 407" d="M29.434,904.054a.133.133,0,0,0-.131-.1.451.451,0,0,1-.42-.281.459.459,0,0,1,.113-.508.116.116,0,0,0,.013-.155,2.092,2.092,0,0,0-.322-.329.114.114,0,0,0-.155.013.466.466,0,0,1-.507.115.457.457,0,0,1-.274-.446.113.113,0,0,0-.1-.12,1.993,1.993,0,0,0-.457,0,.115.115,0,0,0-.1.118.458.458,0,0,1-.279.438.466.466,0,0,1-.5-.116.113.113,0,0,0-.154-.013,1.994,1.994,0,0,0-.328.328.115.115,0,0,0,.012.156.461.461,0,0,1,.113.513.469.469,0,0,1-.441.277.111.111,0,0,0-.118.1,2.026,2.026,0,0,0,0,.467.132.132,0,0,0,.132.1.444.444,0,0,1,.418.281.459.459,0,0,1-.113.508.114.114,0,0,0-.013.154,2.006,2.006,0,0,0,.322.329.111.111,0,0,0,.154-.012.465.465,0,0,1,.507-.115.454.454,0,0,1,.275.445.114.114,0,0,0,.1.121,2.26,2.26,0,0,0,.233.013,2.1,2.1,0,0,0,.224-.012.115.115,0,0,0,.1-.118.459.459,0,0,1,.278-.438.467.467,0,0,1,.5.116.113.113,0,0,0,.153.013,2.076,2.076,0,0,0,.328-.328.117.117,0,0,0-.012-.157.454.454,0,0,1,.3-.79h.025a.113.113,0,0,0,.119-.1,2.083,2.083,0,0,0,0-.467m-2.016.917a.685.685,0,1,1,.678-.685.682.682,0,0,1-.678.685" transform="translate(0 -709)" fill="#730404" fill-rule="evenodd"/>
      <path id="Path_408" data-name="Path 408" d="M34.625,903.818a.729.729,0,0,0-.163-.24l-2.948-2.866a.714.714,0,0,0-.23-.152.728.728,0,0,0-.271-.054H25.354a1.68,1.68,0,0,0-1.669,1.687v10.626a1.68,1.68,0,0,0,1.669,1.687h7.662a1.68,1.68,0,0,0,1.669-1.687V904.1a.769.769,0,0,0-.06-.287m-.638,9a.977.977,0,0,1-.971.981H25.354a.977.977,0,0,1-.971-.981V902.2a.977.977,0,0,1,.971-.981h5.4l.059.06v1.336a1.68,1.68,0,0,0,1.669,1.687h1.443l.06.059Zm-.059-9.025H32.484a1.179,1.179,0,0,1-1.169-1.187v-1.336l-.039-.1,2.742,2.665Z" transform="translate(0 -709)" fill="#730404"/>
      <path id="Path_409" data-name="Path 409" d="M25.383,907.837h0a.375.375,0,0,0,.407.328h6.862a.336.336,0,1,0,0-.656H25.79a.375.375,0,0,0-.407.328" transform="translate(0 -709)" fill="#730404"/>
      <path id="Path_410" data-name="Path 410" d="M25.383,909.922h0a.375.375,0,0,0,.407.328h6.862a.336.336,0,1,0,0-.656H25.79a.375.375,0,0,0-.407.328" transform="translate(0 -709)" fill="#730404"/>
      <path id="Path_411" data-name="Path 411" d="M25.383,912.006h0a.375.375,0,0,0,.407.328h6.862a.336.336,0,1,0,0-.656H25.79a.375.375,0,0,0-.407.328" transform="translate(0 -709)" fill="#730404"/>
    </g>
  </g>
</svg>
