<svg xmlns="http://www.w3.org/2000/svg" xmlns:xlink="http://www.w3.org/1999/xlink" width="24" height="22" viewBox="0 0 24 22">
  <defs>
    <clipPath id="clip-icon_luu">
      <rect width="24" height="22"/>
    </clipPath>
  </defs>
  <g id="icon_luu" clip-path="url(#clip-icon_luu)">
    <g id="save-file" transform="translate(0 -4)">
      <path id="Path_26109" data-name="Path 26109" d="M12,18a.749.749,0,0,1-.542-.232l-5.25-5.5A.75.75,0,0,1,6.75,11H9.5V5.25A1.252,1.252,0,0,1,10.75,4h2.5A1.252,1.252,0,0,1,14.5,5.25V11h2.75a.75.75,0,0,1,.542,1.268l-5.25,5.5A.749.749,0,0,1,12,18Z" fill="#636363"/>
      <path id="Path_26110" data-name="Path 26110" d="M21,24H3a3,3,0,0,1-3-3V16a3,3,0,0,1,3-3H4.5a1,1,0,0,1,0,2H3a1,1,0,0,0-1,1v5a1,1,0,0,0,1,1H21a1,1,0,0,0,1-1V16a1,1,0,0,0-1-1H19.5a1,1,0,0,1,0-2H21a3,3,0,0,1,3,3v5A3,3,0,0,1,21,24Z" transform="translate(0 1.731)" fill="#636363"/>
    </g>
  </g>
</svg>
