<svg xmlns="http://www.w3.org/2000/svg" xmlns:xlink="http://www.w3.org/1999/xlink" width="24" height="22" viewBox="0 0 24 22">
  <defs>
    <clipPath id="clip-path">
      <rect id="Rectangle_1645" data-name="Rectangle 1645" width="19.388" height="16.899" fill="#fff"/>
    </clipPath>
    <clipPath id="clip-icon_dexuat_hv">
      <rect width="24" height="22"/>
    </clipPath>
  </defs>
  <g id="icon_dexuat_hv" clip-path="url(#clip-icon_dexuat_hv)">
    <g id="Group_8065" data-name="Group 8065" transform="translate(2 3)">
      <g id="Group_2715" data-name="Group 2715" clip-path="url(#clip-path)">
        <path id="Path_26117" data-name="Path 26117" d="M11.443,18.18a1.123,1.123,0,0,1-.656-.212L8.639,16.427a.391.391,0,0,0-.435,0l-2.14,1.536a1.131,1.131,0,0,1-1.775-.735l-.434-2.61a.363.363,0,0,0-.3-.3L.946,13.891A1.131,1.131,0,0,1,.21,12.118L1.753,9.968a.391.391,0,0,0,0-.435L.212,7.394A1.132,1.132,0,0,1,.947,5.619l2.61-.433a.365.365,0,0,0,.3-.3L4.29,2.275a1.131,1.131,0,0,1,1.773-.736L8.212,3.082a.369.369,0,0,0,.43,0l2.146-1.54a1.132,1.132,0,0,1,1.775.735l.146.877a.383.383,0,1,1-.755.126L11.808,2.4a.367.367,0,0,0-.574-.238L9.088,3.7a1.134,1.134,0,0,1-1.321,0L5.618,2.163a.364.364,0,0,0-.355-.039.356.356,0,0,0-.218.276L4.611,5.012a1.131,1.131,0,0,1-.928.928l-2.611.434a.367.367,0,0,0-.237.574l1.51,2.1a1.189,1.189,0,0,1,.035,1.36L.834,12.563a.363.363,0,0,0-.039.355.357.357,0,0,0,.276.218l2.611.433a1.129,1.129,0,0,1,.928.928l.433,2.61a.358.358,0,0,0,.218.277.37.37,0,0,0,.358-.041L7.765,15.8a1.167,1.167,0,0,1,1.315,0l2.154,1.546a.367.367,0,0,0,.573-.237L12.24,14.5a1.129,1.129,0,0,1,.928-.928l2.61-.433a.358.358,0,0,0,.277-.218.366.366,0,0,0-.041-.358l-1.539-2.144a.383.383,0,0,1,.623-.447l1.541,2.147a1.135,1.135,0,0,1,.123,1.1,1.123,1.123,0,0,1-.859.677l-2.61.433a.364.364,0,0,0-.3.3l-.434,2.61a1.124,1.124,0,0,1-.683.859,1.139,1.139,0,0,1-.436.087" transform="translate(0 -1.281)" fill="#fff"/>
        <path id="Path_26118" data-name="Path 26118" d="M136.84,11.2a1.383,1.383,0,0,1-.978-.4l-3.45-3.45a1.388,1.388,0,0,1,1.963-1.963l2.465,2.465L144.284.406a1.388,1.388,0,0,1,1.963,1.963l-8.424,8.424a1.376,1.376,0,0,1-.983.408" transform="translate(-127.266)" fill="#fff"/>
      </g>
    </g>
  </g>
</svg>
