<svg xmlns="http://www.w3.org/2000/svg" xmlns:xlink="http://www.w3.org/1999/xlink" width="20" height="20" viewBox="0 0 20 20">
  <defs>
    <clipPath id="clip-icon_xt">
      <rect width="20" height="20"/>
    </clipPath>
  </defs>
  <g id="icon_xt" clip-path="url(#clip-icon_xt)">
    <g id="Group_8131" data-name="Group 8131" transform="translate(2062.516 -1526.241)">
      <path id="Path_30469" data-name="Path 30469" d="M-2052.516,1526.241a10.011,10.011,0,0,0-10,10,10.011,10.011,0,0,0,10,10,10.01,10.01,0,0,0,10-10A10.011,10.011,0,0,0-2052.516,1526.241Zm0,18.764a8.763,8.763,0,0,1-8.763-8.764,8.763,8.763,0,0,1,8.763-8.763,8.764,8.764,0,0,1,8.764,8.763A8.764,8.764,0,0,1-2052.516,1545.005Z" fill="#636363"/>
      <g id="Group_8063" data-name="Group 8063">
        <path id="Path_30470" data-name="Path 30470" d="M-2052.516,1534.3a1.946,1.946,0,0,0-1.944,1.944,1.947,1.947,0,0,0,1.944,1.945,1.947,1.947,0,0,0,1.945-1.945A1.946,1.946,0,0,0-2052.516,1534.3Z" fill="#636363"/>
        <path id="Path_30471" data-name="Path 30471" d="M-2057.572,1534.3a1.946,1.946,0,0,0-1.945,1.944,1.947,1.947,0,0,0,1.945,1.945,1.947,1.947,0,0,0,1.945-1.945A1.946,1.946,0,0,0-2057.572,1534.3Z" fill="#636363"/>
        <path id="Path_30472" data-name="Path 30472" d="M-2047.459,1534.3a1.946,1.946,0,0,0-1.945,1.944,1.947,1.947,0,0,0,1.945,1.945,1.947,1.947,0,0,0,1.945-1.945A1.946,1.946,0,0,0-2047.459,1534.3Z" fill="#636363"/>
      </g>
    </g>
  </g>
</svg>
