<svg xmlns="http://www.w3.org/2000/svg" xmlns:xlink="http://www.w3.org/1999/xlink" width="38" height="38" viewBox="0 0 38 38">
  <defs>
    <clipPath id="clip-path">
      <rect id="Rectangle_809" data-name="Rectangle 809" width="38" height="38" transform="translate(487.096 353.905)" fill="none"/>
    </clipPath>
    <clipPath id="clip-icon_vanhanh">
      <rect width="38" height="38"/>
    </clipPath>
  </defs>
  <g id="icon_vanhanh" clip-path="url(#clip-icon_vanhanh)">
    <g id="Group_2027" data-name="Group 2027" transform="translate(-487.096 -353.905)">
      <g id="Group_1807" data-name="Group 1807" clip-path="url(#clip-path)">
        <g id="Group_1806" data-name="Group 1806" transform="translate(-0.712 -0.712)">
          <g id="Group_1796" data-name="Group 1796" transform="translate(492.646 368.897)">
            <g id="Group_1795" data-name="Group 1795">
              <g id="Group_1794" data-name="Group 1794">
                <path id="Path_30034" data-name="Path 30034" d="M510.112,375.5h-.519a.464.464,0,0,1-.437-.305q-.087-.226-.186-.445a.463.463,0,0,1,.095-.526l.37-.371a1.419,1.419,0,0,0,0-2l-1.334-1.334a1.419,1.419,0,0,0-2,0l-.37.37a.468.468,0,0,1-.528.094c-.146-.066-.294-.128-.445-.189a.465.465,0,0,1-.306-.438v-.519a1.416,1.416,0,0,0-1.416-1.416h-1.888a1.416,1.416,0,0,0-1.416,1.416v.519a.464.464,0,0,1-.305.437c-.151.058-.3.12-.444.186a.469.469,0,0,1-.528-.095l-.37-.37a1.419,1.419,0,0,0-2,0l-1.334,1.338a1.418,1.418,0,0,0,0,2l.37.371a.465.465,0,0,1,.095.526q-.1.22-.186.445a.464.464,0,0,1-.44.305h-.52a1.417,1.417,0,0,0-1.416,1.416v1.888a1.417,1.417,0,0,0,1.416,1.416h.52a.464.464,0,0,1,.437.3c.057.152.119.3.185.445a.465.465,0,0,1-.094.526l-.371.371a1.421,1.421,0,0,0,0,2l1.334,1.334a1.421,1.421,0,0,0,2,0l.37-.37a.469.469,0,0,1,.528-.095c.146.066.294.128.445.189a.465.465,0,0,1,.309.438v.519a1.416,1.416,0,0,0,1.416,1.416h1.888a1.416,1.416,0,0,0,1.416-1.416v-.519a.466.466,0,0,1,.305-.437c.151-.058.3-.119.445-.186a.467.467,0,0,1,.526.095l.371.371a1.42,1.42,0,0,0,2,0l1.334-1.334a1.418,1.418,0,0,0,0-2l-.37-.371a.467.467,0,0,1-.095-.526c.067-.146.128-.294.19-.445a.464.464,0,0,1,.438-.306h.519a1.416,1.416,0,0,0,1.416-1.416v-1.888A1.416,1.416,0,0,0,510.112,375.5Zm.472,3.3a.472.472,0,0,1-.472.472h-.519a1.423,1.423,0,0,0-1.322.913c-.049.133-.1.262-.162.391a1.421,1.421,0,0,0,.283,1.584l.37.37a.472.472,0,0,1,0,.668h0l-1.334,1.334a.472.472,0,0,1-.668,0l-.37-.37a1.42,1.42,0,0,0-1.585-.283c-.127.058-.258.112-.39.162a1.419,1.419,0,0,0-.912,1.32v.519a.473.473,0,0,1-.473.473h-1.888a.472.472,0,0,1-.472-.473v-.519a1.421,1.421,0,0,0-.913-1.321c-.133-.051-.262-.1-.391-.162a1.42,1.42,0,0,0-1.585.283l-.37.369a.472.472,0,0,1-.668,0h0l-1.334-1.332a.472.472,0,0,1,0-.668l.37-.371a1.417,1.417,0,0,0,.283-1.584c-.058-.128-.113-.258-.162-.39a1.421,1.421,0,0,0-1.32-.914h-.52a.472.472,0,0,1-.472-.472v-1.888a.472.472,0,0,1,.472-.473h.52a1.42,1.42,0,0,0,1.321-.913c.049-.132.1-.262.162-.391a1.418,1.418,0,0,0-.283-1.584l-.371-.37a.472.472,0,0,1,0-.668h0l1.334-1.334a.472.472,0,0,1,.668,0l.37.37a1.418,1.418,0,0,0,1.584.283c.128-.059.259-.113.39-.163a1.421,1.421,0,0,0,.915-1.32v-.519a.471.471,0,0,1,.472-.472h1.888a.472.472,0,0,1,.473.472v.519a1.42,1.42,0,0,0,.913,1.321c.132.051.262.1.39.163a1.423,1.423,0,0,0,1.585-.283l.37-.37a.474.474,0,0,1,.668,0l1.334,1.334a.472.472,0,0,1,0,.668l-.37.37a1.423,1.423,0,0,0-.283,1.585c.058.127.113.258.162.39a1.421,1.421,0,0,0,1.321.912h.519a.473.473,0,0,1,.472.473v1.888Z" transform="translate(-492.646 -368.422)" fill="#915715"/>
              </g>
            </g>
          </g>
          <g id="Group_1799" data-name="Group 1799" transform="translate(497.836 374.089)">
            <g id="Group_1798" data-name="Group 1798">
              <g id="Group_1797" data-name="Group 1797">
                <path id="Path_30035" data-name="Path 30035" d="M506.065,377.413c0-.114-.013-.226-.026-.339s-.033-.24-.058-.358c-.016-.077-.038-.153-.059-.23-.026-.1-.056-.193-.09-.287-.023-.065-.046-.131-.072-.195a4.016,4.016,0,0,0-.207-.442c-.006-.011-.011-.023-.017-.034a4.187,4.187,0,0,0-.424-.619c-.014-.017-.03-.033-.043-.049-.065-.077-.133-.152-.2-.222-.037-.039-.075-.075-.114-.112s-.095-.087-.142-.128-.116-.1-.175-.144l-.078-.058a4.223,4.223,0,0,0-2.53-.842c-.047,0-.095.007-.142.009-.1,0-.2.008-.3.019-.053.005-.106.012-.16.019a4.471,4.471,0,0,0-.457.085,4.25,4.25,0,0,0,0,8.232.214.214,0,0,1,.023,0,4.416,4.416,0,0,0,.495.095c.109.014.22.017.331.022.074,0,.141.015.218.015.135,0,.275-.009.417-.023a.427.427,0,0,0,.047-.006c.115-.013.231-.03.35-.054.047-.008.091-.021.136-.031.083-.02.166-.04.251-.065.066-.02.131-.043.195-.065s.133-.047.2-.073.123-.055.184-.083c.079-.037.158-.073.236-.115h0a5.586,5.586,0,0,0,1.21-.874,1.485,1.485,0,0,0,.253-.31,5.029,5.029,0,0,0,.711-1.941c.014-.091.025-.182.033-.275s.012-.171.013-.255c0-.027,0-.053,0-.08C506.074,377.538,506.068,377.477,506.065,377.413Zm-.94.309c0,.04,0,.079-.005.118-.008.114-.023.228-.043.343a3.307,3.307,0,0,1-1.658,2.312c-.059.031-.116.06-.174.086l-.039.019a3.43,3.43,0,0,1-.861.26l-.063.011c-.059.008-.117.015-.175.02-.076.007-.153.011-.231.013h-.1c-.113,0-.223-.008-.335-.021l-.057-.006q-.194-.027-.385-.073a3.3,3.3,0,0,1,0-6.4h0a3.394,3.394,0,0,1,.83-.1,3.224,3.224,0,0,1,.4.027c.036,0,.072.011.106.016.1.016.2.037.3.062l.1.025a3.327,3.327,0,0,1,.72.3l.107.065c.075.047.146.095.218.148.038.027.077.055.114.084a3.54,3.54,0,0,1,.265.236c.034.035.064.072.1.107.055.059.107.119.158.183.035.043.068.088.1.135.047.067.095.139.137.211.024.039.047.077.072.118a3.224,3.224,0,0,1,.162.345c.019.047.036.095.053.142.031.086.057.174.08.263.012.047.025.088.035.135a3.433,3.433,0,0,1,.06.386c0,.035,0,.07.005.1C505.127,377.5,505.129,377.612,505.124,377.722Z" transform="translate(-497.576 -373.353)" fill="#915715"/>
              </g>
            </g>
          </g>
          <g id="Group_1802" data-name="Group 1802" transform="translate(497.795 359.456)">
            <g id="Group_1801" data-name="Group 1801">
              <g id="Group_1800" data-name="Group 1800">
                <path id="Path_30036" data-name="Path 30036" d="M519.294,369.368h-1.485a.461.461,0,0,1-.44-.31,9.89,9.89,0,0,0-.53-1.279.461.461,0,0,1,.091-.533l1.053-1.054a1.419,1.419,0,0,0,0-2l-2.008-2a1.417,1.417,0,0,0-2,0l-1.052,1.052a.462.462,0,0,1-.533.092,9.571,9.571,0,0,0-1.28-.533.464.464,0,0,1-.312-.44v-1.485a1.416,1.416,0,0,0-1.415-1.416h-2.832a1.416,1.416,0,0,0-1.416,1.416v1.485a.462.462,0,0,1-.31.44,9.71,9.71,0,0,0-1.28.532.46.46,0,0,1-.533-.091l-1.054-1.053a1.419,1.419,0,0,0-2,0l-2,2a1.416,1.416,0,0,0,0,2l1.548,1.55a.472.472,0,0,0,.669-.667l-1.549-1.55a.472.472,0,0,1,0-.668l2-2a.472.472,0,0,1,.668,0l1.054,1.052a1.4,1.4,0,0,0,1.623.266,9,9,0,0,1,1.156-.481,1.4,1.4,0,0,0,.954-1.335v-1.485a.473.473,0,0,1,.473-.473h2.832a.472.472,0,0,1,.472.473v1.485a1.4,1.4,0,0,0,.954,1.335,8.82,8.82,0,0,1,1.157.481,1.4,1.4,0,0,0,1.621-.266l1.055-1.052a.472.472,0,0,1,.668,0l2,2a.471.471,0,0,1,0,.667l-1.053,1.055a1.4,1.4,0,0,0-.265,1.622,8.958,8.958,0,0,1,.48,1.157,1.406,1.406,0,0,0,1.336.954h1.485a.472.472,0,0,1,.472.472v2.832a.471.471,0,0,1-.472.472h-1.485a1.4,1.4,0,0,0-1.335.954,9.039,9.039,0,0,1-.481,1.158,1.405,1.405,0,0,0,.266,1.621l1.053,1.054a.472.472,0,0,1,0,.668l-2,2a.473.473,0,0,1-.667,0L513.089,380a.472.472,0,0,0-.678.656l.012.012,1.551,1.548a1.415,1.415,0,0,0,2,0l2-2a1.415,1.415,0,0,0,0-2l-1.051-1.054a.46.46,0,0,1-.092-.532,9.868,9.868,0,0,0,.533-1.28.461.461,0,0,1,.44-.312h1.485a1.416,1.416,0,0,0,1.416-1.416v-2.832A1.416,1.416,0,0,0,519.294,369.368Z" transform="translate(-497.536 -359.456)" fill="#915715"/>
              </g>
            </g>
          </g>
          <g id="Group_1805" data-name="Group 1805" transform="translate(503.752 366.067)">
            <g id="Group_1804" data-name="Group 1804">
              <g id="Group_1803" data-name="Group 1803">
                <path id="Path_30037" data-name="Path 30037" d="M512,367.529a6.143,6.143,0,0,0-8.677,0,.472.472,0,0,0,.668.668,5.192,5.192,0,1,1,7.392,7.294l-.048.049a.472.472,0,1,0,.655.679l.012-.012A6.142,6.142,0,0,0,512,367.529Z" transform="translate(-503.194 -365.735)" fill="#915715"/>
              </g>
            </g>
          </g>
        </g>
      </g>
    </g>
  </g>
</svg>
