<svg xmlns="http://www.w3.org/2000/svg" xmlns:xlink="http://www.w3.org/1999/xlink" width="20" height="20" viewBox="0 0 20 20">
  <defs>
    <clipPath id="clip-icon_ct3">
      <rect width="20" height="20"/>
    </clipPath>
  </defs>
  <g id="icon_ct3" clip-path="url(#clip-icon_ct3)">
    <g id="Group_8127" data-name="Group 8127" transform="translate(2064.642 -1385.444)">
      <path id="Path_30454" data-name="Path 30454" d="M-2049.661,1400.7a.775.775,0,0,0,.773-.774.774.774,0,0,0-.773-.773.774.774,0,0,0-.773.773.774.774,0,0,0,.773.774Z" fill="#636363"/>
      <path id="Path_30455" data-name="Path 30455" d="M-2049.661,1401.871h0a1.851,1.851,0,0,0-1.849,1.849v1.373a5.034,5.034,0,0,0,1.85.351,5.037,5.037,0,0,0,1.849-.351v-1.373a1.851,1.851,0,0,0-1.849-1.849Z" fill="#636363"/>
      <path id="Path_30456" data-name="Path 30456" d="M-2049.661,1395.405a4.994,4.994,0,0,0-3.113,1.085l-2.932-2.882.025-.032a5.009,5.009,0,0,0,1.044-2.526h3.906a3.077,3.077,0,0,0,3.016,2.487,3.076,3.076,0,0,0,3.073-3.073,3.076,3.076,0,0,0-3.073-3.073,3.077,3.077,0,0,0-3.016,2.487h-3.906a5.027,5.027,0,0,0-4.985-4.434,5.026,5.026,0,0,0-5.02,5.02,5.017,5.017,0,0,0,2,4.012v-.717a3.022,3.022,0,0,1,1.487-2.6,1.936,1.936,0,0,1-.411-1.194,1.948,1.948,0,0,1,1.946-1.945,1.948,1.948,0,0,1,1.945,1.945,1.938,1.938,0,0,1-.411,1.194,3.032,3.032,0,0,1,1.4,1.889,5.425,5.425,0,0,1,.085,1.429l2.993,2.85a5,5,0,0,0-1.039,2.513h-3.905a3.079,3.079,0,0,0-3.017-2.487,3.076,3.076,0,0,0-3.073,3.073,3.077,3.077,0,0,0,3.073,3.073,3.079,3.079,0,0,0,3.017-2.487h3.905a5.013,5.013,0,0,0,1.965,3.426v-.717a3.021,3.021,0,0,1,1.486-2.6,1.937,1.937,0,0,1-.41-1.194,1.947,1.947,0,0,1,1.945-1.945,1.948,1.948,0,0,1,1.945,1.945,1.937,1.937,0,0,1-.411,1.194,3.022,3.022,0,0,1,1.487,2.6v.717a5.016,5.016,0,0,0,2-4.012,5.025,5.025,0,0,0-5.019-5.02Z" fill="#636363"/>
      <path id="Path_30457" data-name="Path 30457" d="M-2058.849,1389.964a.774.774,0,0,0-.773-.773.774.774,0,0,0-.774.773.774.774,0,0,0,.774.773.774.774,0,0,0,.773-.773Z" fill="#636363"/>
      <path id="Path_30458" data-name="Path 30458" d="M-2061.472,1393.759v1.373a5.032,5.032,0,0,0,1.85.351,5.02,5.02,0,0,0,1.849-.351v-1.373a1.851,1.851,0,0,0-1.849-1.85A1.852,1.852,0,0,0-2061.472,1393.759Z" fill="#636363"/>
    </g>
  </g>
</svg>
