<svg xmlns="http://www.w3.org/2000/svg" xmlns:xlink="http://www.w3.org/1999/xlink" width="16" height="21" viewBox="0 0 16 21">
  <defs>
    <clipPath id="clip-icon_info">
      <rect width="16" height="21"/>
    </clipPath>
  </defs>
  <g id="icon_info" clip-path="url(#clip-icon_info)">
    <g id="Group_7536" data-name="Group 7536" transform="translate(-1966.47 -1030.464)">
      <path id="Path_26025" data-name="Path 26025" d="M15.4,84.149H13.645v.293c0,.673.009,1.344,0,2.016a1.3,1.3,0,0,1-1.75,1.278,1.347,1.347,0,0,1-.85-1.228.871.871,0,0,0-1.227-.748c-.132.055-.261.122-.389.187L4.075,88.669c-.261.132-.524.26-.8.4V76.289H6.344a3.227,3.227,0,0,1,.332-1.824H2.488A.921.921,0,0,0,1.47,75.508q0,7.445,0,14.89a1.815,1.815,0,0,0,.021.318.875.875,0,0,0,1.04.732c.3-.054.6-.1.9-.152,3.082-.516,6.162-1.039,9.246-1.546a3.127,3.127,0,0,0,2.75-2.9c.052-.881.01-1.768.009-2.652,0-.013-.019-.024-.037-.047" transform="translate(1965 958)" fill="#fff"/>
      <path id="Path_26026" data-name="Path 26026" d="M15.637,74.466q-3.387,0-6.774,0A1.268,1.268,0,0,0,7.5,75.82q-.009,2.532,0,5.063a1.268,1.268,0,0,0,1.376,1.362h1.2l2.321.006c1.071-.011,2.142,0,3.213-.007A1.284,1.284,0,0,0,17,80.865q0-2.52,0-5.04a1.279,1.279,0,0,0-1.361-1.359m-3.066,1.21a.67.67,0,0,1,0,1.339.674.674,0,0,1-.669-.676.666.666,0,0,1,.672-.663m.854,4.647a1.232,1.232,0,0,1-.879.4,2.9,2.9,0,0,1-.485-.027.7.7,0,0,1-.555-.72c.032-.24.07-.479.11-.719.07-.415.146-.833.219-1.248a.446.446,0,0,0,.005-.081c0-.175-.054-.235-.227-.259a1.215,1.215,0,0,1-.218-.04.157.157,0,0,1-.116-.167c.008-.073.054-.119.148-.138a.7.7,0,0,1,.152-.011H12.84a.22.22,0,0,1,.253.23,1.906,1.906,0,0,1-.043.388c-.083.474-.172.949-.258,1.425-.03.157-.062.316-.078.472a.631.631,0,0,0,.021.229.175.175,0,0,0,.2.143,1.146,1.146,0,0,0,.248-.07c.065-.024.122-.07.189-.094a.106.106,0,0,1,.146.132.382.382,0,0,1-.092.159" transform="translate(1965.47 958)" fill="#fff"/>
    </g>
  </g>
</svg>
