<svg xmlns="http://www.w3.org/2000/svg" xmlns:xlink="http://www.w3.org/1999/xlink" width="16" height="21" viewBox="0 0 16 21">
  <defs>
    <clipPath id="clip-icon_vb">
      <rect width="16" height="21"/>
    </clipPath>
  </defs>
  <g id="icon_vb" clip-path="url(#clip-icon_vb)">
    <g id="Group_7534" data-name="Group 7534" transform="translate(-1962.985 -119)">
      <path id="Path_26028" data-name="Path 26028" d="M9.188,2.545H9.6q2.627,0,5.256,0a1.41,1.41,0,0,1,1.587,1.6V16.482a1.4,1.4,0,0,1-1.592,1.59H9.188c0,.541,0,1.041,0,1.541a1.685,1.685,0,0,1-.018.349c-.08.379-.3.5-.665.377q-2.635-.888-5.269-1.776c-.475-.161-.95-.319-1.426-.479a1.046,1.046,0,0,1-.822-1.142c0-1.2,0-2.407,0-3.61V3.554c0-.791.188-1.046.94-1.3L8.422.065c.509-.171.754-.009.763.531.011.631,0,1.262,0,1.949M9.2,17.3a.889.889,0,0,0,.146.026c1.88,0,3.761.006,5.641,0,.475,0,.7-.266.7-.768q0-6.235,0-12.474c0-.541-.224-.761-.765-.762H9.207v3.3H11.1c0,.29-.013.546,0,.8.016.234-.079.3-.3.3-.806-.011.719,0-.087,0H9.209V8.954h4.279v1.095H9.206V11.29H13.49v1.082H9.207v1.252h4.284V14.7H9.2Z" transform="translate(1962 119)" fill="#fff"/>
      <path id="Path_26029" data-name="Path 26029" d="M14.939,5.637l-.286-.247a.1.1,0,0,1-.03-.115l.124-.357a.105.105,0,0,0-.08-.138l-.373-.073a.1.1,0,0,1-.084-.084l-.071-.371A.1.1,0,0,0,14,4.172l-.357.124a.107.107,0,0,1-.115-.03L13.28,3.98a.105.105,0,0,0-.16,0l-.247.286a.108.108,0,0,1-.116.03L12.4,4.172a.106.106,0,0,0-.139.08l-.072.371a.1.1,0,0,1-.084.084l-.372.073a.1.1,0,0,0-.079.138l.124.357a.106.106,0,0,1-.031.115l-.286.247a.107.107,0,0,0,0,.161l.286.247a.107.107,0,0,1,.031.115l-.124.357a.106.106,0,0,0,.079.139l.372.072a.106.106,0,0,1,.084.084l.072.371a.105.105,0,0,0,.139.08l.356-.124a.11.11,0,0,1,.116.03l.247.286a.105.105,0,0,0,.16,0l.247-.286a.108.108,0,0,1,.116-.03L14,7.263a.107.107,0,0,0,.139-.08l.072-.371a.106.106,0,0,1,.084-.084l.372-.072a.1.1,0,0,0,.079-.139l-.124-.357a.107.107,0,0,1,.031-.115l.286-.247a.106.106,0,0,0,0-.161" transform="translate(1962 119)" fill="#fff"/>
    </g>
  </g>
</svg>
