<svg xmlns="http://www.w3.org/2000/svg" xmlns:xlink="http://www.w3.org/1999/xlink" width="20" height="20" viewBox="0 0 20 20">
  <defs>
    <clipPath id="clip-icon_mr">
      <rect width="20" height="20"/>
    </clipPath>
  </defs>
  <g id="icon_mr" clip-path="url(#clip-icon_mr)">
    <g id="Group_8130" data-name="Group 8130" transform="translate(2062.516 -1497.909)">
      <path id="Path_30463" data-name="Path 30463" d="M-2045.484,1497.909a1.76,1.76,0,0,0-1.758,1.758,1.766,1.766,0,0,0,.087.521l-2.044,1.532a1.748,1.748,0,0,0-.973-.295,1.76,1.76,0,0,0-1.758,1.758,1.736,1.736,0,0,0,.177.753l-2.353,2.352a1.751,1.751,0,0,0-.753-.176,1.747,1.747,0,0,0-1.217.495l-1.735-.868a1.648,1.648,0,0,0,.022-.213,1.759,1.759,0,0,0-1.758-1.757,1.759,1.759,0,0,0-1.758,1.757,1.76,1.76,0,0,0,1.758,1.758,1.751,1.751,0,0,0,1.217-.494l1.734.867a1.862,1.862,0,0,0-.021.213,1.76,1.76,0,0,0,1.758,1.758,1.76,1.76,0,0,0,1.757-1.758,1.732,1.732,0,0,0-.176-.753l2.353-2.353a1.734,1.734,0,0,0,.753.176,1.759,1.759,0,0,0,1.758-1.757,1.725,1.725,0,0,0-.088-.521l2.045-1.533a1.747,1.747,0,0,0,.973.3,1.761,1.761,0,0,0,1.758-1.758A1.76,1.76,0,0,0-2045.484,1497.909Zm0,3.179a1.417,1.417,0,0,1-.787-.24.34.34,0,0,0-.186-.056.336.336,0,0,0-.2.067l-2.044,1.533a.338.338,0,0,0-.12.371,1.374,1.374,0,0,1,.073.419,1.422,1.422,0,0,1-1.421,1.421,1.417,1.417,0,0,1-.608-.143.337.337,0,0,0-.145-.033.339.339,0,0,0-.239.1l-2.352,2.352a.337.337,0,0,0-.066.385,1.4,1.4,0,0,1,.143.607,1.422,1.422,0,0,1-1.42,1.42,1.423,1.423,0,0,1-1.421-1.42.928.928,0,0,1,.012-.117.406.406,0,0,0-.176-.4l-1.735-.868a.335.335,0,0,0-.151-.035.335.335,0,0,0-.235.095,1.408,1.408,0,0,1-.982.4,1.422,1.422,0,0,1-1.42-1.421,1.422,1.422,0,0,1,1.42-1.42,1.423,1.423,0,0,1,1.421,1.42l-.019.173a.338.338,0,0,0,.184.342l1.734.867a.337.337,0,0,0,.151.035.336.336,0,0,0,.234-.094,1.413,1.413,0,0,1,.983-.4,1.4,1.4,0,0,1,.607.143.338.338,0,0,0,.146.033.334.334,0,0,0,.238-.1l2.353-2.353a.336.336,0,0,0,.066-.383,1.411,1.411,0,0,1-.143-.609,1.422,1.422,0,0,1,1.42-1.42,1.407,1.407,0,0,1,.785.239.34.34,0,0,0,.188.057.335.335,0,0,0,.2-.067l2.044-1.533a.339.339,0,0,0,.12-.37,1.408,1.408,0,0,1-.073-.421,1.423,1.423,0,0,1,1.421-1.421,1.423,1.423,0,0,1,1.42,1.421A1.423,1.423,0,0,1-2045.484,1501.088Z" fill="#fff"/>
      <path id="Path_30464" data-name="Path 30464" d="M-2043.1,1516.737h-.625v-12.383a.585.585,0,0,0-.585-.585h-2.344a.585.585,0,0,0-.586.585v12.383h-1.172v-8.867a.585.585,0,0,0-.586-.586h-2.344a.585.585,0,0,0-.586.586v8.867h-1.172v-4.179a.585.585,0,0,0-.585-.586h-2.344a.585.585,0,0,0-.586.586v4.179h-1.172v-6.523a.585.585,0,0,0-.586-.586h-2.344a.585.585,0,0,0-.586.586v6.523h-.625a.586.586,0,0,0-.586.586.586.586,0,0,0,.586.586h18.828a.586.586,0,0,0,.586-.586A.585.585,0,0,0-2043.1,1516.737Z" fill="#fff"/>
      <circle id="Ellipse_34" data-name="Ellipse 34" cx="0.808" cy="0.808" r="0.808" transform="translate(-2046.284 1498.863)" fill="#fff"/>
      <circle id="Ellipse_35" data-name="Ellipse 35" cx="0.808" cy="0.808" r="0.808" transform="translate(-2050.967 1502.365)" fill="#fff"/>
      <circle id="Ellipse_36" data-name="Ellipse 36" cx="0.808" cy="0.808" r="0.808" transform="translate(-2055.645 1507.043)" fill="#fff"/>
      <circle id="Ellipse_37" data-name="Ellipse 37" cx="0.808" cy="0.808" r="0.808" transform="translate(-2060.378 1504.711)" fill="#fff"/>
    </g>
  </g>
</svg>
