<svg xmlns="http://www.w3.org/2000/svg" xmlns:xlink="http://www.w3.org/1999/xlink" width="38" height="38" viewBox="0 0 38 38">
  <defs>
    <clipPath id="clip-path">
      <rect id="Rectangle_892" data-name="Rectangle 892" width="38" height="38" transform="translate(485.828 231.613)" fill="none"/>
    </clipPath>
    <clipPath id="clip-icon_phanquyen">
      <rect width="38" height="38"/>
    </clipPath>
  </defs>
  <g id="icon_phanquyen" clip-path="url(#clip-icon_phanquyen)">
    <g id="Group_2026" data-name="Group 2026" transform="translate(-485.828 -231.613)" clip-path="url(#clip-path)">
      <g id="Group_2025" data-name="Group 2025">
        <g id="Group_2024" data-name="Group 2024">
          <g id="Group_2021" data-name="Group 2021">
            <path id="Path_30081" data-name="Path 30081" d="M507.682,252.651A2.211,2.211,0,1,0,506.12,252,2.138,2.138,0,0,0,507.682,252.651Zm-1.182-3.392a1.671,1.671,0,1,1-.49,1.182A1.6,1.6,0,0,1,506.5,249.259Z" fill="#915715"/>
            <path id="Path_30082" data-name="Path 30082" d="M511.549,255.286a5.335,5.335,0,0,0-.074-.58,4.825,4.825,0,0,0-.143-.583,2.837,2.837,0,0,0-.24-.543,2.012,2.012,0,0,0-.361-.471,1.545,1.545,0,0,0-.171-.108,5.876,5.876,0,0,0-.036-4.868,6.794,6.794,0,0,0-2.1-2.509,6.211,6.211,0,0,0-2.41-1.021,6.2,6.2,0,0,0-3.846.473,2.211,2.211,0,1,0-2.833,2.622,2.2,2.2,0,0,0,.69.116c.037,0,.071-.009.107-.01a2.179,2.179,0,0,0,2.08-1.951,5.557,5.557,0,0,1,7.179,1.747,5.26,5.26,0,0,1,.5,5.093,1.91,1.91,0,0,0-.342-.03.672.672,0,0,0-.36.152c-.107.07-.233.152-.374.241a2.123,2.123,0,0,1-.484.214,1.892,1.892,0,0,1-1.184,0,2.122,2.122,0,0,1-.484-.214l-.374-.241a.672.672,0,0,0-.359-.152,1.785,1.785,0,0,0-.663.12,1.586,1.586,0,0,0-.519.326,2.04,2.04,0,0,0-.361.471,2.9,2.9,0,0,0-.24.543,4.646,4.646,0,0,0-.142.583,5.6,5.6,0,0,0-.075.58c-.012.175-.018.358-.018.542,0,.026.005.048.006.073a5.434,5.434,0,0,1-4.221-3.332h2.6a1.63,1.63,0,0,0,1.166-.425,1.525,1.525,0,0,0,.452-1.153c0-.185-.006-.367-.018-.542a5.6,5.6,0,0,0-.075-.58,4.657,4.657,0,0,0-.142-.583,2.9,2.9,0,0,0-.24-.543,2.039,2.039,0,0,0-.361-.471,1.6,1.6,0,0,0-.519-.326,1.785,1.785,0,0,0-.663-.12.669.669,0,0,0-.359.152c-.108.07-.234.152-.374.241a2.122,2.122,0,0,1-.484.214,1.943,1.943,0,0,1-.592.1,1.875,1.875,0,0,1-.312-.05,1.954,1.954,0,0,1-.281-.045,2.308,2.308,0,0,1-.424-.182c-.019-.011-.043-.021-.059-.031l-.375-.242a.669.669,0,0,0-.359-.152,1.783,1.783,0,0,0-.662.12,1.575,1.575,0,0,0-.519.326,2.065,2.065,0,0,0-.362.471,2.876,2.876,0,0,0-.239.544,4.59,4.59,0,0,0-.143.582,5.32,5.32,0,0,0-.074.58c-.012.175-.018.358-.018.542a1.525,1.525,0,0,0,.452,1.153,1.63,1.63,0,0,0,1.166.425h1.048a6.241,6.241,0,0,0,5.2,4.1,1.349,1.349,0,0,0,.24.314,1.623,1.623,0,0,0,1.166.426h4.417a1.625,1.625,0,0,0,1.166-.426,1.522,1.522,0,0,0,.453-1.152C511.568,255.643,511.561,255.461,511.549,255.286Zm-10.339-8.5a1.618,1.618,0,0,1-.633.4,1.66,1.66,0,0,1-.549.094,1.772,1.772,0,0,1-.4-.049,1.672,1.672,0,1,1,2.047-1.9,1.834,1.834,0,0,1,.024.272,1.618,1.618,0,0,1-.49,1.182Zm-2.445,5.245h-.888a1.1,1.1,0,0,1-.8-.277,1,1,0,0,1-.286-.763c0-.172.006-.342.017-.505a5.05,5.05,0,0,1,.067-.522,4.245,4.245,0,0,1,.126-.514,2.39,2.39,0,0,1,.195-.442,1.542,1.542,0,0,1,.265-.348,1.068,1.068,0,0,1,.346-.214,1.234,1.234,0,0,1,.423-.082c.019.01.052.029.107.065.11.072.238.154.378.244.047.029.105.056.16.084a2.937,2.937,0,0,0,.448.187,3.273,3.273,0,0,0,.758.122,2.451,2.451,0,0,0,.757-.122,2.674,2.674,0,0,0,.608-.271l.379-.244a.393.393,0,0,1,.53.017,1.052,1.052,0,0,1,.345.214,1.544,1.544,0,0,1,.266.348,2.39,2.39,0,0,1,.195.442,4.068,4.068,0,0,1,.125.514,5.05,5.05,0,0,1,.067.522h0c.012.162.017.332.017.5a.994.994,0,0,1-.285.763,1.1,1.1,0,0,1-.795.277h-3.53Zm11.979,4.56a1.1,1.1,0,0,1-.795.277h-4.417a1.2,1.2,0,0,1-.567-.138.762.762,0,0,1-.487-.737,1.161,1.161,0,0,1-.027-.165c0-.172.005-.342.017-.505a4.766,4.766,0,0,1,.067-.522,4.069,4.069,0,0,1,.125-.514,2.389,2.389,0,0,1,.2-.442,1.544,1.544,0,0,1,.266-.348,1.053,1.053,0,0,1,.345-.214,1.239,1.239,0,0,1,.424-.082c.018.01.052.029.106.065l.379.244a2.675,2.675,0,0,0,.608.271,2.413,2.413,0,0,0,1.515,0,2.7,2.7,0,0,0,.608-.271l.378-.244a1.2,1.2,0,0,1,.107-.065c.016,0,.029.008.045.009a1.227,1.227,0,0,1,.378.073,1.044,1.044,0,0,1,.311.193c.009.008.025.012.035.021a1.57,1.57,0,0,1,.265.348,2.392,2.392,0,0,1,.2.442,4.257,4.257,0,0,1,.126.514,5.05,5.05,0,0,1,.067.522h0c.011.163.017.333.017.505A1,1,0,0,1,510.744,256.591Z" fill="#915715"/>
          </g>
          <g id="Group_2023" data-name="Group 2023">
            <g id="Group_2022" data-name="Group 2022">
              <path id="Path_30083" data-name="Path 30083" d="M506.261,265.706h-2.867a1.905,1.905,0,0,1-1.9-1.66l-.306-2.36a12.289,12.289,0,0,1-1.759-.715l-1.912,1.46a1.934,1.934,0,0,1-2.541-.159l-2.016-1.98a1.849,1.849,0,0,1-.156-2.49l1.486-1.88a11.426,11.426,0,0,1-.728-1.728l-2.407-.3a1.9,1.9,0,0,1-1.685-1.871v-2.817a1.894,1.894,0,0,1,1.689-1.869l2.4-.3a11.789,11.789,0,0,1,.729-1.728l-1.485-1.879a1.852,1.852,0,0,1,.162-2.5l2.016-1.981a1.932,1.932,0,0,1,2.534-.153l1.912,1.461a12.209,12.209,0,0,1,1.76-.716l.306-2.364a1.906,1.906,0,0,1,1.9-1.657h2.867a1.906,1.906,0,0,1,1.9,1.661l.306,2.359a12.1,12.1,0,0,1,1.76.716l1.912-1.46a1.934,1.934,0,0,1,2.541.159l2.016,1.981a1.846,1.846,0,0,1,.156,2.489l-1.486,1.881a11.422,11.422,0,0,1,.729,1.728l2.406.3a1.9,1.9,0,0,1,1.685,1.871v2.817a1.9,1.9,0,0,1-1.69,1.869l-2.4.3a11.833,11.833,0,0,1-.729,1.728l1.486,1.879a1.848,1.848,0,0,1-.162,2.5l-2.016,1.981a1.927,1.927,0,0,1-2.533.154l-1.914-1.461a11.907,11.907,0,0,1-1.759.716l-.3,2.365a1.909,1.909,0,0,1-1.9,1.656Zm-6.9-6.113a.656.656,0,0,1,.312.08,10.871,10.871,0,0,0,2.271.925.632.632,0,0,1,.458.525l.359,2.767a.642.642,0,0,0,.632.558h2.867a.64.64,0,0,0,.631-.552l.36-2.772a.63.63,0,0,1,.458-.524,10.908,10.908,0,0,0,2.271-.926.648.648,0,0,1,.7.053l2.24,1.71a.637.637,0,0,0,.838-.042l2.029-1.994a.613.613,0,0,0,.05-.83l-1.741-2.2a.621.621,0,0,1-.054-.692,10.4,10.4,0,0,0,.942-2.231.636.636,0,0,1,.534-.45l2.816-.352a.642.642,0,0,0,.569-.623v-2.817a.637.637,0,0,0-.562-.62l-2.821-.354a.635.635,0,0,1-.534-.45,10.506,10.506,0,0,0-.942-2.231.617.617,0,0,1,.053-.692l1.741-2.2a.61.61,0,0,0-.042-.823l-2.029-1.993a.638.638,0,0,0-.845-.049l-2.24,1.71a.65.65,0,0,1-.705.053,10.85,10.85,0,0,0-2.271-.926.631.631,0,0,1-.458-.524l-.358-2.767a.646.646,0,0,0-.634-.56h-2.867a.641.641,0,0,0-.631.552l-.36,2.772a.634.634,0,0,1-.458.526,10.793,10.793,0,0,0-2.271.925.652.652,0,0,1-.705-.052l-2.24-1.711a.637.637,0,0,0-.837.042l-2.029,1.995a.613.613,0,0,0-.05.83l1.741,2.2a.621.621,0,0,1,.054.692,10.352,10.352,0,0,0-.942,2.231.637.637,0,0,1-.534.45l-2.816.352a.641.641,0,0,0-.568.622v2.817a.637.637,0,0,0,.561.62l2.822.353a.636.636,0,0,1,.533.451,10.5,10.5,0,0,0,.942,2.231.617.617,0,0,1-.053.692l-1.741,2.2a.608.608,0,0,0,.042.822l2.029,1.994a.642.642,0,0,0,.845.049l2.24-1.711a.668.668,0,0,1,.394-.131Z" fill="#915715"/>
            </g>
          </g>
        </g>
      </g>
    </g>
  </g>
</svg>
