<svg xmlns="http://www.w3.org/2000/svg" xmlns:xlink="http://www.w3.org/1999/xlink" width="17" height="23" viewBox="0 0 17 23">
  <defs>
    <clipPath id="clip-icon_vb_21">
      <rect width="17" height="23"/>
    </clipPath>
  </defs>
  <g id="icon_vb_21" data-name="icon_vb – 21" clip-path="url(#clip-icon_vb_21)">
    <g id="Group_7557" data-name="Group 7557" transform="translate(-1748.999 -597.994)">
      <path id="Path_26061" data-name="Path 26061" d="M15.251,8.178A4.271,4.271,0,0,1,13.9,10.433C12.626.952,5.62.386,5.62.386c3.539,2.9.495,9.342.495,9.342s-.238.618-.123-1.621A2.935,2.935,0,0,0,3.709,5.058C3.649,10.16,1.592,8.672.6,12.848c-1.416,8.281,5.519,9.413,5.519,9.413-2.05-6.157,3.185-8.139,3.185-8.139-1.769,4.811.493,5.66.493,5.66,1.84-1.059,2.831-4.315,2.831-4.315,1.7,1.7.5,5.731.5,5.731,6.44-4.528,2.123-13.02,2.123-13.02" transform="translate(1749.151 598.135)" fill="#b85b17"/>
      <path id="Path_26062" data-name="Path 26062" d="M14.839,7.792a4.275,4.275,0,0,1-1.352,2.257C12.214.566,5.208,0,5.208,0,8.746,2.9,5.7,9.342,5.7,9.342s-.238.619-.123-1.621A2.936,2.936,0,0,0,3.3,4.672C3.237,9.775,1.18,8.287.19,12.462c-1.416,8.281,5.519,9.413,5.519,9.413-2.05-6.157,3.185-8.139,3.185-8.139-1.769,4.812.493,5.661.493,5.661,1.84-1.061,2.831-4.316,2.831-4.316,1.7,1.7.5,5.732.5,5.732,6.44-4.53,2.123-13.021,2.123-13.021" transform="translate(1749 597.994)" fill="#ff9345"/>
    </g>
  </g>
</svg>
