<svg xmlns="http://www.w3.org/2000/svg" xmlns:xlink="http://www.w3.org/1999/xlink" width="20" height="20" viewBox="0 0 20 20">
  <defs>
    <clipPath id="clip-icon_ct1">
      <rect width="20" height="20"/>
    </clipPath>
  </defs>
  <g id="icon_ct1" clip-path="url(#clip-icon_ct1)">
    <g id="Group_8125" data-name="Group 8125" transform="translate(2065.142 -1320.27)">
      <path id="Path_30449" data-name="Path 30449" d="M-2054.7,1334.6a.8.8,0,0,0,.738-.478,3.4,3.4,0,0,1,3.135-2.032,3.415,3.415,0,0,1,2.062.689l-.448.067a.345.345,0,0,0-.293.29.34.34,0,0,0,.2.356l2.464,1.078a.358.358,0,0,0,.332-.024.34.34,0,0,0,.161-.285l.012-2.639a.34.34,0,0,0-.247-.327.354.354,0,0,0-.393.137l-.34.5a5.064,5.064,0,0,0-3.513-1.4,5.021,5.021,0,0,0-4.617,2.983.765.765,0,0,0,.071.74.814.814,0,0,0,.673.352Zm0,0" fill="#636363"/>
      <path id="Path_30450" data-name="Path 30450" d="M-2046.276,1336.547a.817.817,0,0,0-.673-.352.8.8,0,0,0-.738.478,3.407,3.407,0,0,1-3.136,2.032,3.419,3.419,0,0,1-2.062-.689l.448-.067a.345.345,0,0,0,.293-.29.339.339,0,0,0-.2-.356l-2.463-1.078a.36.36,0,0,0-.333.024.34.34,0,0,0-.16.285l-.013,2.64a.34.34,0,0,0,.247.326.354.354,0,0,0,.393-.137l.34-.5a5.064,5.064,0,0,0,3.513,1.4,5.02,5.02,0,0,0,4.617-2.983.767.767,0,0,0-.07-.74Zm0,0" fill="#636363"/>
      <path id="Path_30452" data-name="Path 30452" d="M-2056.634,1336.6h-.953v.015h-.858a.732.732,0,0,1-.742-.721.732.732,0,0,1,.742-.721h2.225a2.03,2.03,0,0,1-.284-.323,1.923,1.923,0,0,1-.176-1.859c.034-.077.08-.146.117-.222h-1.882a.732.732,0,0,1-.742-.721.713.713,0,0,1,.4-.63.736.736,0,0,1,.342-.092h2.845a6.363,6.363,0,0,1,3.264-1.923h-6.109a.732.732,0,0,1-.742-.721.732.732,0,0,1,.742-.721h7.415a.732.732,0,0,1,.742.721.7.7,0,0,1-.273.546,6.422,6.422,0,0,1,3.2.977,1.6,1.6,0,0,1,.809-.219,1.88,1.88,0,0,1,.222.019v-7.093a2.684,2.684,0,0,0-2.719-2.644h-11.371a2.684,2.684,0,0,0-2.719,2.644v13.944a2.684,2.684,0,0,0,2.719,2.644h3.811a1.487,1.487,0,0,1-.035-.222Zm-1.811-12.486h7.415a.732.732,0,0,1,.742.721.733.733,0,0,1-.742.722h-7.415a.732.732,0,0,1-.742-.722A.732.732,0,0,1-2058.445,1324.116Z" fill="#636363"/>
    </g>
  </g>
</svg>
