<svg xmlns="http://www.w3.org/2000/svg" xmlns:xlink="http://www.w3.org/1999/xlink" width="24" height="20" viewBox="0 0 24 20">
  <defs>
    <clipPath id="clip-icon_email">
      <rect width="24" height="20"/>
    </clipPath>
  </defs>
  <g id="icon_email" clip-path="url(#clip-icon_email)">
    <g id="Group_7547" data-name="Group 7547" transform="translate(-3182.589 103.298)">
      <path id="Path_26005" data-name="Path 26005" d="M19.055,134.447l.008-.013-.941-.963v-7.779a1.017,1.017,0,0,0-1.043-.989H4.119a1.017,1.017,0,0,0-1.043.989v7.759H3.033l-.815.88-.223.243.019.017a2.388,2.388,0,0,0-.425,1.358V140.2a2.568,2.568,0,0,0,2.635,2.5h12.73a2.568,2.568,0,0,0,2.635-2.5v-4.257a2.388,2.388,0,0,0-.534-1.5M6.778,126.71H14.4a1.025,1.025,0,0,1,0,2.047H6.778a1.025,1.025,0,0,1,0-2.047m-.108,3.634h7.837a1.025,1.025,0,0,1,0,2.048H6.671a1.025,1.025,0,0,1,0-2.048m5.825,4.472c-.041.681-.778.79-1.227.79H9.907c-.446,0-1.183-.109-1.223-.79Zm5.691,5.389a1.2,1.2,0,0,1-1.232,1.168H4.224A1.2,1.2,0,0,1,2.991,140.2v-4.257a1.183,1.183,0,0,1,.943-1.132H7.276c.029,1.269,1.078,2.119,2.631,2.119h1.362c1.555,0,2.6-.848,2.633-2.119h3.34a1.261,1.261,0,0,1,.57.294l.013.013a1.128,1.128,0,0,1,.362.825Z" transform="translate(3184 -227)" fill="#333"/>
    </g>
  </g>
</svg>
