<svg xmlns="http://www.w3.org/2000/svg" xmlns:xlink="http://www.w3.org/1999/xlink" width="38" height="38" viewBox="0 0 38 38">
  <defs>
    <clipPath id="clip-path">
      <rect id="Rectangle_808" data-name="Rectangle 808" width="38" height="38" transform="translate(486.861 394.447)" fill="none"/>
    </clipPath>
    <clipPath id="clip-icon_bc">
      <rect width="38" height="38"/>
    </clipPath>
  </defs>
  <g id="icon_bc" clip-path="url(#clip-icon_bc)">
    <g id="Group_2019" data-name="Group 2019" transform="translate(-486.861 -394.447)">
      <g id="Group_1792" data-name="Group 1792" clip-path="url(#clip-path)">
        <g id="Group_1791" data-name="Group 1791">
          <g id="Group_1790" data-name="Group 1790">
            <path id="Path_30022" data-name="Path 30022" d="M494.972,407.2h7.1a.412.412,0,0,0,0-.81h-7.1a.412.412,0,0,0,0,.81Z" fill="#915715"/>
            <path id="Path_30023" data-name="Path 30023" d="M494.972,410.316h7.1a.412.412,0,0,0,0-.81h-7.1a.412.412,0,0,0,0,.81Z" fill="#915715"/>
            <path id="Path_30024" data-name="Path 30024" d="M494.972,413.516h7.1a.412.412,0,0,0,0-.81h-7.1a.412.412,0,0,0,0,.81Z" fill="#915715"/>
            <path id="Path_30025" data-name="Path 30025" d="M494.972,416.716h7.1a.412.412,0,0,0,0-.81h-7.1a.412.412,0,0,0,0,.81Z" fill="#915715"/>
            <path id="Path_30026" data-name="Path 30026" d="M520.381,401.2h-28.92a.6.6,0,0,0-.6.589v18.395a1.427,1.427,0,0,0,1.44,1.414h10.462v1.376a1.437,1.437,0,0,1-.524,1.123l-.6.5h-1.773a.549.549,0,1,0,0,1.1H511.5a.549.549,0,0,0,0-1.1h-2.01l-.6-.5a1.441,1.441,0,0,1-.525-1.123V421.6h11.056a1.427,1.427,0,0,0,1.44-1.414V401.671A.476.476,0,0,0,520.381,401.2Zm-14.6,18.87h.01a.424.424,0,0,1,.251.039.389.389,0,0,1,.034.021.42.42,0,0,1,.151.148.4.4,0,0,1,.021.034.375.375,0,0,1,.017.108.435.435,0,0,1,.023.139v.009a.417.417,0,0,1-.118.22.427.427,0,0,1-.224.117h-.009a.426.426,0,0,1-.252-.039c-.012-.006-.023-.014-.035-.021a.409.409,0,0,1-.15-.148.392.392,0,0,1-.021-.034.413.413,0,0,1-.039-.242v-.014a.411.411,0,0,1,.119-.22l.005,0A.433.433,0,0,1,505.779,420.07ZM503.3,424.6a2.525,2.525,0,0,0,.561-1.622V421.6h3.406v1.376a2.526,2.526,0,0,0,.562,1.622Zm16.378-5.237H492.045a.1.1,0,0,1-.1-.1V402.733a.476.476,0,0,1,.48-.472h27a.357.357,0,0,1,.36.354c0,8.153,0,12.524,0,14.867v1.773A.106.106,0,0,1,519.678,419.359Z" fill="#915715"/>
            <g id="Group_1777" data-name="Group 1777">
              <g id="Group_1776" data-name="Group 1776">
                <path id="Path_30027" data-name="Path 30027" d="M512.137,409.245h-1.776a.222.222,0,0,0-.222.222v6.217a.222.222,0,0,0,.222.222h1.776a.223.223,0,0,0,.222-.222v-6.217A.223.223,0,0,0,512.137,409.245Zm-.222,6.217h-1.332v-5.773h1.332Z" fill="#915715"/>
              </g>
            </g>
            <g id="Group_1779" data-name="Group 1779">
              <g id="Group_1778" data-name="Group 1778">
                <path id="Path_30028" data-name="Path 30028" d="M517.465,408.357h-1.776a.222.222,0,0,0-.222.222v7.1a.222.222,0,0,0,.222.222h1.776a.222.222,0,0,0,.222-.222v-7.1A.222.222,0,0,0,517.465,408.357Zm-.222,7.105h-1.332V408.8h1.332Z" fill="#915715"/>
              </g>
            </g>
            <g id="Group_1781" data-name="Group 1781">
              <g id="Group_1780" data-name="Group 1780">
                <path id="Path_30029" data-name="Path 30029" d="M514.8,413.242h-1.776a.222.222,0,0,0-.222.222v2.22a.222.222,0,0,0,.222.222H514.8a.222.222,0,0,0,.222-.222v-2.22A.221.221,0,0,0,514.8,413.242Zm-.222,2.22h-1.332v-1.776h1.332Z" fill="#915715"/>
              </g>
            </g>
            <g id="Group_1783" data-name="Group 1783">
              <g id="Group_1782" data-name="Group 1782">
                <path id="Path_30030" data-name="Path 30030" d="M506.808,410.133h-1.776a.223.223,0,0,0-.222.222v5.329a.223.223,0,0,0,.222.222h1.776a.222.222,0,0,0,.222-.222v-5.329A.222.222,0,0,0,506.808,410.133Zm-.222,5.329h-1.332v-4.885h1.332Z" fill="#915715"/>
              </g>
            </g>
            <g id="Group_1785" data-name="Group 1785">
              <g id="Group_1784" data-name="Group 1784">
                <path id="Path_30031" data-name="Path 30031" d="M509.473,411.465H507.7a.222.222,0,0,0-.222.222v4a.222.222,0,0,0,.222.222h1.776a.223.223,0,0,0,.222-.222v-4A.223.223,0,0,0,509.473,411.465Zm-.222,4h-1.332v-3.553h1.332Z" fill="#915715"/>
              </g>
            </g>
            <g id="Group_1787" data-name="Group 1787">
              <g id="Group_1786" data-name="Group 1786">
                <path id="Path_30032" data-name="Path 30032" d="M516.584,403.232a.894.894,0,0,0-.618,1.547l-1.843,3.38a.818.818,0,0,0-.506.023L511.9,405.61a.888.888,0,1,0-1.46-.21l-1.348,1.122a.877.877,0,0,0-1.183.138l-1.13-.565a.888.888,0,1,0-1.054.683.9.9,0,0,0,.186.02.883.883,0,0,0,.666-.307l1.131.565a.888.888,0,1,0,1.667-.192l1.348-1.122a.856.856,0,0,0,.806.116l1.714,2.572a.888.888,0,1,0,1.266-.057l1.842-3.38a.886.886,0,0,0,.217.028.895.895,0,1,0,.013-1.789Zm-10.67,3.122a.445.445,0,1,1,.444-.445A.444.444,0,0,1,505.914,406.354Zm2.665,1.332a.444.444,0,1,1,.444-.444A.444.444,0,0,1,508.579,407.686Zm2.664-2.221a.444.444,0,1,1,.444-.444A.443.443,0,0,1,511.243,405.465Zm2.664,4a.444.444,0,1,1,.444-.444A.444.444,0,0,1,513.907,409.462Zm2.664-4.885a.444.444,0,1,1,.444-.444A.444.444,0,0,1,516.571,404.577Z" fill="#915715"/>
              </g>
            </g>
            <g id="Group_1789" data-name="Group 1789">
              <g id="Group_1788" data-name="Group 1788">
                <path id="Path_30033" data-name="Path 30033" d="M517.687,416.128H504.81a.222.222,0,0,0-.222.222v.888a.223.223,0,0,0,.222.222h12.877a.222.222,0,0,0,.222-.222v-.888A.221.221,0,0,0,517.687,416.128Zm-.222.888H505.032v-.444h12.433Z" fill="#915715"/>
              </g>
            </g>
          </g>
        </g>
      </g>
    </g>
  </g>
</svg>
