<svg xmlns="http://www.w3.org/2000/svg" xmlns:xlink="http://www.w3.org/1999/xlink" width="38" height="38" viewBox="0 0 38 38">
  <defs>
    <clipPath id="clip-path">
      <rect id="Rectangle_815" data-name="Rectangle 815" width="38" height="38" transform="translate(487.49 492.614)" fill="rgba(0,0,0,0)"/>
    </clipPath>
    <clipPath id="clip-icon_dk">
      <rect width="38" height="38"/>
    </clipPath>
  </defs>
  <g id="icon_dk" clip-path="url(#clip-icon_dk)">
    <g id="Group_2016" data-name="Group 2016" transform="translate(-487.49 -492.614)">
      <g id="Group_1829" data-name="Group 1829" clip-path="url(#clip-path)">
        <g id="Group_1828" data-name="Group 1828">
          <path id="Path_30072" data-name="Path 30072" d="M509.341,506.569l.055-.084.191-.291-.247.375Z" fill="#915715"/>
          <path id="Path_30073" data-name="Path 30073" d="M504.556,513.818l4.383-6.64h0l-4.382,6.64Z" fill="#915715"/>
          <path id="Path_30074" data-name="Path 30074" d="M514.046,508.863l.2-.309a1.879,1.879,0,0,0-.533-2.6l-1.2-.79a1.881,1.881,0,0,0-2.6.534l-.323.494h0l0,0-.191.29-.055.085h0l-.4.61h0l-4.383,6.64h0l-.4.606-.272.413-.012.018-.006.008c-.005.013-.013.026-.019.039l0,.008-.012.033-.005.013-.005.031,0,.009-.536,4.484h-8.7a.438.438,0,0,0,0,.876h8.983c.012,0,.022-.006.034-.007a.4.4,0,0,0,.077,0,.425.425,0,0,0,.114-.043l4.307-2.49.007-.005a.2.2,0,0,0,.03-.021l.006-.005.032-.03,5.872-8.891Zm-9.985,10.417.435-3.587,2.7,1.779Zm4-2.693-.256.388-3.087-2.037.246-.373,4.833-7.325.084.016,3.021,1.992Zm5.566-8.442-.3.467-.005.007-2.848-1.879-.239-.158.314-.474a1.127,1.127,0,0,1,1.56-.32l1.206.8A1.13,1.13,0,0,1,513.626,508.145Z" fill="#915715"/>
          <path id="Path_30075" data-name="Path 30075" d="M494.521,517.347h7.66a.446.446,0,0,0,0-.877h-7.66a.446.446,0,0,0,0,.877Z" fill="#915715"/>
          <path id="Path_30076" data-name="Path 30076" d="M494.481,514.184h6.966a.33.33,0,0,0,.326-.334v-.209a.33.33,0,0,0-.326-.333h-6.966a.329.329,0,0,0-.325.333v.209A.33.33,0,0,0,494.481,514.184Z" fill="#915715"/>
          <path id="Path_30077" data-name="Path 30077" d="M520.045,508.681l-2.065-.269a10.517,10.517,0,0,0-.625-1.546l1.275-1.682a1.7,1.7,0,0,0-.134-2.226l-1.73-1.772a1.608,1.608,0,0,0-2.18-.143l-1.642,1.306a10.147,10.147,0,0,0-1.51-.64l-.262-2.11a1.659,1.659,0,0,0-1.633-1.485h-2.46a1.6,1.6,0,0,0-.982.356H493.2a1.734,1.734,0,0,0-1.712,1.752V521.69a3.036,3.036,0,0,0,2.995,3.067H506.1a1.6,1.6,0,0,0,.982.357h2.46a1.6,1.6,0,0,0,.982-.357,1.651,1.651,0,0,0,.58-.891,1.715,1.715,0,0,0,.072-.234l.262-2.115a9.978,9.978,0,0,0,1.509-.64l.149.118.856.681.638.507a1.6,1.6,0,0,0,2.174-.137l1.73-1.772a1.706,1.706,0,0,0,.139-2.233l-1.275-1.681a10.743,10.743,0,0,0,.625-1.546l2.06-.269a1.67,1.67,0,0,0,1.45-1.671v-2.52A1.672,1.672,0,0,0,520.045,508.681Zm.347,4.193a.565.565,0,0,1-.488.556l-2.416.315a.553.553,0,0,0-.458.4,9.618,9.618,0,0,1-.809,2,.573.573,0,0,0,.046.619l1.494,1.968a.566.566,0,0,1-.043.743l-1.741,1.783a.53.53,0,0,1-.719.038l-1.309-1.041-.613-.489a.529.529,0,0,0-.243-.1.52.52,0,0,0-.362.049,9.056,9.056,0,0,1-1.948.828.559.559,0,0,0-.394.469l-.308,2.48a.585.585,0,0,1-.542.494h-2.46a.52.52,0,0,1-.3-.108.563.563,0,0,1-.239-.392l-.307-2.475a.559.559,0,0,0-.394-.469c-.223-.066-.308.025-.5.16-.242.172-.156.812-.156.812h0l.262,2.111a1.787,1.787,0,0,0,.077.252H494.485a2.168,2.168,0,0,1-2.139-2.191V500.222a.867.867,0,0,1,.856-.876h12.321a1.628,1.628,0,0,0-.077.249l-.159,1.286a5.261,5.261,0,0,0,.022,1.467c.045.158.291.4.526.334a.562.562,0,0,0,.394-.47l.308-2.48a.56.56,0,0,1,.237-.386.529.529,0,0,1,.305-.107h2.46a.562.562,0,0,1,.544.5l.308,2.475a.556.556,0,0,0,.393.469,9.1,9.1,0,0,1,1.948.828.54.54,0,0,0,.606-.047l1.922-1.53a.531.531,0,0,1,.725.044l1.741,1.783a.562.562,0,0,1,.036.736l-1.494,1.969a.571.571,0,0,0-.046.618,9.561,9.561,0,0,1,.809,2,.551.551,0,0,0,.458.4l2.421.316a.562.562,0,0,1,.482.555Z" fill="#915715"/>
          <path id="Path_30078" data-name="Path 30078" d="M509.59,506.19h0l0,0Z" fill="#915715"/>
          <g id="Group_1827" data-name="Group 1827">
            <g id="Group_1826" data-name="Group 1826">
              <g id="Group_1825" data-name="Group 1825">
                <path id="Path_30079" data-name="Path 30079" d="M502.783,503.453a4.58,4.58,0,0,0-3.331-1.434,4.66,4.66,0,0,0-3.189,8.008l.006.009c.026.026.055.048.082.073.074.067.149.135.226.2.042.033.086.066.129.1.073.055.147.111.224.162l.16.1c.071.043.142.087.215.126s.126.062.189.092.137.067.208.1.142.053.213.079.134.05.2.071.157.042.236.062.13.034.2.048c.09.018.183.03.275.042.057.008.112.02.17.025.15.015.3.024.456.024s.3-.009.456-.024c.058-.005.113-.017.17-.025.092-.012.184-.024.275-.042.066-.014.132-.033.2-.048s.158-.038.236-.062.135-.047.2-.071.144-.05.214-.079.139-.064.208-.1.126-.059.189-.092.144-.083.215-.126c.054-.033.107-.064.16-.1.077-.051.151-.107.224-.162.043-.033.086-.063.128-.1.078-.064.152-.131.226-.2.027-.025.056-.047.083-.073l.006-.009A4.684,4.684,0,0,0,502.783,503.453Zm-.74,6.226c-.06.053-.122.1-.184.153-.037.028-.074.057-.112.084-.059.043-.12.085-.181.124-.045.029-.091.057-.137.084s-.117.067-.176.1-.107.053-.161.078-.113.053-.171.076-.121.046-.181.067-.112.039-.168.056-.135.036-.2.053c-.053.012-.106.027-.16.037-.078.016-.157.026-.237.037-.046.006-.091.015-.136.019a3.7,3.7,0,0,1-.768,0c-.046,0-.091-.013-.136-.019-.08-.011-.16-.021-.238-.037-.054-.01-.106-.025-.16-.037s-.135-.033-.2-.053-.112-.037-.168-.056-.122-.043-.181-.067-.115-.049-.172-.076-.107-.051-.16-.078-.118-.064-.176-.1-.092-.055-.137-.084c-.061-.039-.122-.081-.181-.124-.038-.027-.075-.056-.112-.084-.062-.049-.124-.1-.184-.153-.015-.011-.028-.025-.042-.037a2.666,2.666,0,0,1,1.794-2.493,1.934,1.934,0,0,0,1.677,0,2.666,2.666,0,0,1,1.794,2.493Zm-3.739-4.993a1.309,1.309,0,0,1,1.793-.508,1.339,1.339,0,0,1,.5,1.812,1.322,1.322,0,0,1-.5.507l-.006,0a1.389,1.389,0,0,1-.275.118c-.017.005-.033.012-.051.016-.033.009-.068.015-.1.021a1.371,1.371,0,0,1-.193.019h-.037a1.372,1.372,0,0,1-.193-.019c-.033-.006-.068-.012-.1-.021-.017,0-.033-.011-.051-.016a1.388,1.388,0,0,1-.275-.118l-.006,0A1.338,1.338,0,0,1,498.3,504.686Zm4.364,4.3h0a3.337,3.337,0,0,0-1.762-2.292,2.011,2.011,0,0,0-.119-2.819,1.959,1.959,0,0,0-2.79.12,2.012,2.012,0,0,0,0,2.7,3.337,3.337,0,0,0-1.762,2.292,4.015,4.015,0,0,1,.934-5.561,3.92,3.92,0,0,1,5.5.943,4.017,4.017,0,0,1,0,4.618Z" fill="#915715"/>
              </g>
            </g>
          </g>
        </g>
      </g>
    </g>
  </g>
</svg>
