<svg xmlns="http://www.w3.org/2000/svg" xmlns:xlink="http://www.w3.org/1999/xlink" width="16" height="21" viewBox="0 0 16 21">
  <defs>
    <clipPath id="clip-icon_dl">
      <rect width="16" height="21"/>
    </clipPath>
  </defs>
  <g id="icon_dl" clip-path="url(#clip-icon_dl)">
    <g id="Group_7535" data-name="Group 7535" transform="translate(-1965 -1089.976)">
      <path id="Path_26030" data-name="Path 26030" d="M15.562,144.984a.878.878,0,0,0-.647-.267H10.5l-1.293,1.294a1.84,1.84,0,0,1-2.588,0l-1.284-1.294H.913a.88.88,0,0,0-.647.267A.879.879,0,0,0,0,145.63v3.044a.883.883,0,0,0,.266.647.879.879,0,0,0,.647.266h14a.908.908,0,0,0,.913-.913V145.63a.875.875,0,0,0-.266-.646m-3.567,3.205a.6.6,0,1,1,.181-.428.584.584,0,0,1-.181.428m2.435,0a.6.6,0,1,1,.181-.428.582.582,0,0,1-.181.428" transform="translate(1965 958)" fill="#fff"/>
      <path id="Path_26031" data-name="Path 26031" d="M7.486,145.145a.6.6,0,0,0,.856,0l4.262-4.262a.551.551,0,0,0,.133-.666.569.569,0,0,0-.562-.37H9.74v-4.262a.616.616,0,0,0-.608-.609H6.7a.616.616,0,0,0-.608.609v4.262H3.653a.569.569,0,0,0-.562.37.551.551,0,0,0,.133.666Z" transform="translate(1965 958)" fill="#fff"/>
    </g>
  </g>
</svg>
