<svg xmlns="http://www.w3.org/2000/svg" xmlns:xlink="http://www.w3.org/1999/xlink" width="20" height="23" viewBox="0 0 20 23">
  <defs>
    <clipPath id="clip-icon_user">
      <rect width="20" height="23"/>
    </clipPath>
  </defs>
  <g id="icon_user" clip-path="url(#clip-icon_user)">
    <g id="Group_7527" data-name="Group 7527" transform="translate(-752.001 -544.719)">
      <path id="Path_26271" data-name="Path 26271" d="M748.518,786.019a5.394,5.394,0,1,0-3.813-1.58,5.219,5.219,0,0,0,3.813,1.58m-2.885-8.279a4.079,4.079,0,1,1-1.2,2.885,3.9,3.9,0,0,1,1.2-2.885" transform="translate(13.682 -230.514)" fill="#666"/>
      <path id="Path_26272" data-name="Path 26272" d="M757.955,792.451a13.023,13.023,0,0,0-.182-1.415,11.178,11.178,0,0,0-.347-1.422,7.05,7.05,0,0,0-.585-1.327,5.039,5.039,0,0,0-.882-1.15,3.879,3.879,0,0,0-1.267-.8,4.383,4.383,0,0,0-1.617-.293,1.637,1.637,0,0,0-.876.372c-.263.171-.571.369-.914.589a5.236,5.236,0,0,1-1.181.52,4.6,4.6,0,0,1-2.89,0,5.19,5.19,0,0,1-1.181-.52c-.34-.217-.647-.416-.914-.589a1.64,1.64,0,0,0-.876-.372,4.383,4.383,0,0,0-1.617.293,3.875,3.875,0,0,0-1.267.8,5.012,5.012,0,0,0-.882,1.149,7.108,7.108,0,0,0-.584,1.327,11.206,11.206,0,0,0-.348,1.422,13.222,13.222,0,0,0-.181,1.415c-.03.428-.045.873-.045,1.323a3.717,3.717,0,0,0,1.1,2.813,3.978,3.978,0,0,0,2.846,1.037H754.05a3.978,3.978,0,0,0,2.846-1.037,3.717,3.717,0,0,0,1.1-2.813c0-.451-.015-.9-.045-1.323m-1.964,3.185a2.677,2.677,0,0,1-1.941.676H743.269a2.676,2.676,0,0,1-1.941-.676,2.427,2.427,0,0,1-.7-1.862c0-.42.014-.834.042-1.232a11.638,11.638,0,0,1,.164-1.274,9.763,9.763,0,0,1,.305-1.254,5.775,5.775,0,0,1,.476-1.079,3.733,3.733,0,0,1,.648-.849,2.569,2.569,0,0,1,.843-.524,3.023,3.023,0,0,1,1.033-.2c.046.024.128.07.261.157.27.176.581.376.924.6a6.543,6.543,0,0,0,1.483.663,5.9,5.9,0,0,0,3.7,0,6.5,6.5,0,0,0,1.483-.664c.352-.224.654-.419.924-.595.133-.086.215-.133.261-.157a3.023,3.023,0,0,1,1.033.2,2.568,2.568,0,0,1,.843.524,3.7,3.7,0,0,1,.647.849,5.68,5.68,0,0,1,.477,1.079,9.935,9.935,0,0,1,.306,1.254,11.931,11.931,0,0,1,.164,1.274h0c.028.4.042.81.042,1.231a2.426,2.426,0,0,1-.7,1.862" transform="translate(13.682 -230.514)" fill="#666"/>
    </g>
  </g>
</svg>
