<svg xmlns="http://www.w3.org/2000/svg" xmlns:xlink="http://www.w3.org/1999/xlink" width="20" height="20" viewBox="0 0 20 20">
  <defs>
    <clipPath id="clip-icon_vanthu_hv">
      <rect width="20" height="20"/>
    </clipPath>
  </defs>
  <g id="icon_vanthu_hv" clip-path="url(#clip-icon_vanthu_hv)">
    <g id="Group_8138" data-name="Group 8138" transform="translate(1846.757 -1382.075)">
      <path id="Path_30491" data-name="Path 30491" d="M-1836.194,1401.075a.346.346,0,0,1-.09-.012.423.423,0,0,1-.32-.415v-.868a5.5,5.5,0,0,1,5.334-5.646h.136v-1.882a.436.436,0,0,1,.258-.4.393.393,0,0,1,.448.1l3.556,3.908a.454.454,0,0,1,0,.6l-3.556,3.908a.394.394,0,0,1-.448.1.436.436,0,0,1-.258-.4v-1.882h-.649a4.469,4.469,0,0,0-4.037,2.641A.421.421,0,0,1-1836.194,1401.075Zm4.924-6.072a4.618,4.618,0,0,0-4.479,4.18,5.181,5.181,0,0,1,3.966-1.864h1.06a.423.423,0,0,1,.41.434v1.239l2.576-2.831-2.576-2.832v1.239a.424.424,0,0,1-.41.435Z" fill="#fff"/>
      <path id="Path_30492" data-name="Path 30492" d="M-1833.592,1386.925a.326.326,0,0,0-.147-.035.332.332,0,0,0-.12.023.372.372,0,0,0-.225.4.357.357,0,0,0,.33.313.353.353,0,0,0,.354-.282A.376.376,0,0,0-1833.592,1386.925Z" fill="#fff"/>
      <path id="Path_30493" data-name="Path 30493" d="M-1834.632,1391.141l3.933-1.516-.238-.693h0l-3.934,1.515h0Z" fill="#fff"/>
      <path id="Path_30494" data-name="Path 30494" d="M-1836.541,1385.589l1.43,4.164,3.934-1.514-1.43-4.164Zm3.75,2.14a1.031,1.031,0,0,1-1.2.608,1.1,1.1,0,0,1-.8-1.124,1.087,1.087,0,0,1,.886-1.047,1.041,1.041,0,0,1,1.143.716,1.156,1.156,0,0,1-.035.846Z" fill="#fff"/>
      <path id="Path_30495" data-name="Path 30495" d="M-1831.984,1392.252a1.329,1.329,0,0,1,.791-1.237,1.178,1.178,0,0,1,.47-.1,1.206,1.206,0,0,1,.509.116l-.246-.715-3.934,1.515.668,1.943a5.871,5.871,0,0,1,1.742-.5Z" fill="#fff"/>
      <path id="Path_30496" data-name="Path 30496" d="M-1841.873,1394.969h4.187v.739h-4.187Z" fill="#fff"/>
      <path id="Path_30497" data-name="Path 30497" d="M-1841.873,1396.446h4.187v1.477h-4.187Z" fill="#fff"/>
      <path id="Path_30498" data-name="Path 30498" d="M-1841.873,1400.139h4.187v.739h-4.187Z" fill="#fff"/>
      <path id="Path_30499" data-name="Path 30499" d="M-1841.873,1398.662h4.187v.739h-4.187Z" fill="#fff"/>
      <path id="Path_30500" data-name="Path 30500" d="M-1841.873,1384.629h4.187v9.6h-4.187Z" fill="#fff"/>
      <path id="Path_30501" data-name="Path 30501" d="M-1846.757,1389.43h4.186v-4.8h-4.186Zm2.093-3.324a1.079,1.079,0,0,1,1.047,1.108,1.079,1.079,0,0,1-1.047,1.108,1.079,1.079,0,0,1-1.047-1.108A1.079,1.079,0,0,1-1844.664,1386.106Z" fill="#fff"/>
      <path id="Path_30502" data-name="Path 30502" d="M-1844.315,1387.214a.359.359,0,0,1-.349.369.359.359,0,0,1-.349-.369.359.359,0,0,1,.349-.369A.359.359,0,0,1-1844.315,1387.214Z" fill="#fff"/>
      <path id="Path_30503" data-name="Path 30503" d="M-1846.757,1390.168h4.186v1.478h-4.186Z" fill="#fff"/>
      <path id="Path_30504" data-name="Path 30504" d="M-1846.757,1392.384h4.186v8.494h-4.186Z" fill="#fff"/>
    </g>
  </g>
</svg>
