<svg width="14" height="14" viewBox="0 0 14 14" fill="none" xmlns="http://www.w3.org/2000/svg">  <circle cx="7" cy="7" r="7" fill="#FF4D4F"/>  <path d="M6 3.05C6 2.77152 6.10536 2.50445 6.29289 2.30754C6.48043 2.11062 6.73478 2 7 2C7.26522 2 7.51957 2.11062 7.70711 2.30754C7.89464 2.50445 8 2.77152 8 3.05V7.45C8 7.72848 7.89464 7.99555 7.70711 8.19246C7.51957 8.38937 7.26522 8.5 7 8.5C6.73478 8.5 6.48043 8.38937 6.29289 8.19246C6.10536 7.99555 6 7.72848 6 7.45V3.05ZM6 10.95C6 10.6715 6.10536 10.4045 6.29289 10.2075C6.48043 10.0106 6.73478 9.9 7 9.9C7.26522 9.9 7.51957 10.0106 7.70711 10.2075C7.89464 10.4045 8 10.6715 8 10.95C8 11.2285 7.89464 11.4955 7.70711 11.6925C7.51957 11.8894 7.26522 12 7 12C6.73478 12 6.48043 11.8894 6.29289 11.6925C6.10536 11.4955 6 11.2285 6 10.95Z" fill="white"/></svg>