<svg xmlns="http://www.w3.org/2000/svg" xmlns:xlink="http://www.w3.org/1999/xlink" width="22" height="22" viewBox="0 0 22 22">
  <defs>
    <clipPath id="clip-icon_chuyendt">
      <rect width="22" height="22"/>
    </clipPath>
  </defs>
  <g id="icon_chuyendt" clip-path="url(#clip-icon_chuyendt)">
    <g id="Group_8129" data-name="Group 8129" transform="translate(-407.478 -115.957)">
      <g id="Group_7604" data-name="Group 7604" transform="translate(407.478 116.473)">
        <g id="Group_7603" data-name="Group 7603" transform="translate(0)">
          <path id="Path_30113" data-name="Path 30113" d="M427.308,142.646h-1.469v-2.938a.734.734,0,0,0-.734-.734h-6.61v-5.141h3.672a.734.734,0,0,0,.734-.734v-4.407a.734.734,0,0,0-.734-.734h-8.813a.734.734,0,0,0-.734.734V133.1a.734.734,0,0,0,.734.734h3.672v5.141h-6.61a.734.734,0,0,0-.734.734v2.938h-1.469a.734.734,0,0,0-.734.734v4.407a.734.734,0,0,0,.734.734h4.407a.734.734,0,0,0,.734-.734V143.38a.734.734,0,0,0-.734-.734H411.15v-2.2h5.876v2.2h-1.469a.734.734,0,0,0-.734.734v4.407a.734.734,0,0,0,.734.734h4.407a.734.734,0,0,0,.734-.734V143.38a.734.734,0,0,0-.734-.734h-1.469v-2.2h5.876v2.2H422.9a.734.734,0,0,0-.734.734v4.407a.734.734,0,0,0,.734.734h4.407a.734.734,0,0,0,.734-.734V143.38A.734.734,0,0,0,427.308,142.646Z" transform="translate(-407.478 -127.957)" fill="#3d364c"/>
        </g>
      </g>
      <g id="Group_7606" data-name="Group 7606" transform="translate(408.167 115.957)">
        <g id="Group_7605" data-name="Group 7605" transform="translate(0 0)">
          <path id="Path_30114" data-name="Path 30114" d="M443.308,130.646h-1.469v-2.938a.734.734,0,0,0-.734-.734h-6.61v-5.141h3.672a.735.735,0,0,0,.734-.734v-4.407a.735.735,0,0,0-.734-.734h-8.813a.734.734,0,0,0-.734.734V121.1a.734.734,0,0,0,.734.734h3.672v5.141h-6.61a.734.734,0,0,0-.734.734v2.938h-1.469a.734.734,0,0,0-.734.734v4.407a.734.734,0,0,0,.734.734h4.407a.734.734,0,0,0,.734-.734V131.38a.734.734,0,0,0-.734-.734H427.15v-2.2h5.875v2.2h-1.469a.734.734,0,0,0-.734.734v4.407a.734.734,0,0,0,.734.734h4.407a.734.734,0,0,0,.734-.734V131.38a.734.734,0,0,0-.734-.734h-1.469v-2.2h5.876v2.2H438.9a.734.734,0,0,0-.734.734v4.407a.734.734,0,0,0,.734.734h4.407a.734.734,0,0,0,.734-.734V131.38A.734.734,0,0,0,443.308,130.646Z" transform="translate(-423.478 -115.957)" fill="#796996"/>
        </g>
      </g>
    </g>
  </g>
</svg>
