<svg xmlns="http://www.w3.org/2000/svg" xmlns:xlink="http://www.w3.org/1999/xlink" width="22" height="22" viewBox="0 0 22 22">
  <defs>
    <clipPath id="clip-icon_thoat">
      <rect width="22" height="22"/>
    </clipPath>
  </defs>
  <g id="icon_thoat" clip-path="url(#clip-icon_thoat)">
    <g id="logout" transform="translate(5 4.668)">
      <path id="Path_26131" data-name="Path 26131" d="M157.3,219.784h-7.575a.392.392,0,0,1,0-.784H157.3a.392.392,0,1,1,0,.784Zm0,0" transform="translate(-145.675 -213.313)" fill="#333"/>
      <path id="Path_26132" data-name="Path 26132" d="M151.821,138.616a.389.389,0,0,1-.277-.115l-2.09-2.09a.392.392,0,0,1,0-.554l2.09-2.09a.392.392,0,1,1,.554.554l-1.813,1.813,1.813,1.813a.392.392,0,0,1-.277.669Zm0,0" transform="translate(-145.683 -130.055)" fill="#333"/>
      <path id="Path_26133" data-name="Path 26133" d="M5.747,11.826A5.747,5.747,0,1,1,11.1,3.977a.392.392,0,1,1-.729.287,4.963,4.963,0,1,0,0,3.632.392.392,0,1,1,.729.287,5.718,5.718,0,0,1-5.349,3.644Zm0,0" fill="#333"/>
    </g>
  </g>
</svg>
