<svg xmlns="http://www.w3.org/2000/svg" xmlns:xlink="http://www.w3.org/1999/xlink" width="18" height="18" viewBox="0 0 18 18">
  <defs>
    <clipPath id="clip-path">
      <rect id="Rectangle_1588" data-name="Rectangle 1588" width="17.61" height="16.763" fill="#666"/>
    </clipPath>
    <clipPath id="clip-icon_home">
      <rect width="18" height="18"/>
    </clipPath>
  </defs>
  <g id="icon_home" clip-path="url(#clip-icon_home)">
    <g id="Group_7574" data-name="Group 7574" transform="translate(0 1)">
      <g id="Group_2619" data-name="Group 2619" clip-path="url(#clip-path)">
        <path id="Path_26033" data-name="Path 26033" d="M17.314,7.575l-2.259-2.31L12.626,2.783h0l-.724-.74-.014-.014L10.639.752a2.614,2.614,0,0,0-3.671,0L.295,7.575a1.049,1.049,0,0,0,0,1.459.994.994,0,0,0,1.428,0L8.4,2.212a.586.586,0,0,1,.817,0l6.674,6.822a.995.995,0,0,0,1.428,0,1.048,1.048,0,0,0,0-1.459" transform="translate(0 0)" fill="#666"/>
        <path id="Path_26034" data-name="Path 26034" d="M75.342,110.849a.488.488,0,0,0-.7,0l-5.87,6a.514.514,0,0,0-.145.359v4.375a1.839,1.839,0,0,0,1.819,1.859h2.906v-4.6h3.281v4.6h2.906a1.839,1.839,0,0,0,1.819-1.859v-4.375a.512.512,0,0,0-.145-.359Z" transform="translate(-66.187 -106.678)" fill="#666"/>
        <path id="Path_26035" data-name="Path 26035" d="M334.479,55.864l-.014-.014Z" transform="translate(-322.576 -53.82)" fill="#666"/>
      </g>
    </g>
  </g>
</svg>
