<svg xmlns="http://www.w3.org/2000/svg" xmlns:xlink="http://www.w3.org/1999/xlink" width="18" height="20" viewBox="0 0 18 20">
  <defs>
    <clipPath id="clip-path">
      <rect id="Rectangle_1627" data-name="Rectangle 1627" width="16.254" height="18.856" fill="none"/>
    </clipPath>
    <clipPath id="clip-icon_vb_17">
      <rect width="18" height="20"/>
    </clipPath>
  </defs>
  <g id="icon_vb_17" data-name="icon_vb – 17" clip-path="url(#clip-icon_vb_17)">
    <g id="Group_7554" data-name="Group 7554" transform="translate(-1863 -411)">
      <g id="Group_2657" data-name="Group 2657" transform="translate(1864 412)">
        <g id="Group_2656" data-name="Group 2656" transform="translate(0 0)" clip-path="url(#clip-path)">
          <path id="Path_26059" data-name="Path 26059" d="M7.677,18.854a7.684,7.684,0,0,0,7.675-7.677V1.795A1.756,1.756,0,0,0,13.6.038H5.429A1.757,1.757,0,0,0,3.673,1.795v9.3a4.064,4.064,0,0,0,8.128,0l-.013-6.321H10.617l.013,6.321a2.894,2.894,0,0,1-5.786,0v-9.3a.588.588,0,0,1,.586-.588h8.165a.587.587,0,0,1,.586.588v9.383a6.5,6.5,0,0,1-13.01,0V0H0V11.179a7.683,7.683,0,0,0,7.677,7.677" transform="translate(0 0)" fill="#0a1972"/>
          <path id="Path_26060" data-name="Path 26060" d="M8.246,18.854a7.685,7.685,0,0,0,7.675-7.677V1.795A1.757,1.757,0,0,0,14.165.038H6A1.757,1.757,0,0,0,4.242,1.795v9.3a4.064,4.064,0,0,0,8.128,0l-.013-6.321H11.186l.013,6.321a2.894,2.894,0,0,1-5.786,0v-9.3A.588.588,0,0,1,6,1.207h8.165a.587.587,0,0,1,.586.588v9.383a6.5,6.5,0,0,1-13.01,0V0H.569V11.179a7.683,7.683,0,0,0,7.677,7.677" transform="translate(0.332 0)" fill="#1767bd"/>
        </g>
      </g>
    </g>
  </g>
</svg>
