<svg xmlns="http://www.w3.org/2000/svg" xmlns:xlink="http://www.w3.org/1999/xlink" width="24" height="20" viewBox="0 0 24 20">
  <defs>
    <clipPath id="clip-icon_time">
      <rect width="24" height="20"/>
    </clipPath>
  </defs>
  <g id="icon_time" clip-path="url(#clip-icon_time)">
    <g id="Group_7550" data-name="Group 7550" transform="translate(-3181.283 20.163)">
      <path id="Path_26016" data-name="Path 26016" d="M8.534,211.295a.76.76,0,0,0,.749-.77v-1.918a.75.75,0,1,0-1.5,0v.381H6v1.537H7.783a.761.761,0,0,0,.751.77" transform="translate(3184.648 -227)" fill="#333"/>
      <path id="Path_26017" data-name="Path 26017" d="M12.565,211.295a.76.76,0,0,0,.749-.77v-1.918a.75.75,0,1,0-1.5,0v.381H10.033v1.537h1.781a.761.761,0,0,0,.751.77" transform="translate(3185.105 -227)" fill="#333"/>
      <path id="Path_26018" data-name="Path 26018" d="M17.464,209.2H15.317v1.822h1.329v2.733H1.919v-2.733H4.068a.869.869,0,0,0,.817.913.87.87,0,0,0,.819-.913v-2.274a.868.868,0,0,0-.819-.911.868.868,0,0,0-.817.911v.453H1.1a.87.87,0,0,0-.818.913v13.66a.867.867,0,0,0,.818.909H5.3a5.712,5.712,0,0,1-.769-1.822H1.919v-8.194H16.646v8.194H14.031a5.762,5.762,0,0,1-.769,1.822h4.2a.868.868,0,0,0,.819-.909v-13.66a.87.87,0,0,0-.819-.913" transform="translate(3184 -227)" fill="#333"/>
      <path id="Path_26019" data-name="Path 26019" d="M10.311,220.011l-1.186-.7a.615.615,0,0,0-.25-.448v-2.12a.342.342,0,1,0-.683,0v2.12a.614.614,0,0,0-.255.5.606.606,0,0,0,.6.612.588.588,0,0,0,.252-.06l1.184.7a.338.338,0,0,0,.466-.128.353.353,0,0,0-.125-.477m-1.777-.387a.262.262,0,1,1,.255-.262.258.258,0,0,1-.255.262" transform="translate(3184.822 -224.971)" fill="#333"/>
      <path id="Path_26020" data-name="Path 26020" d="M8.534,215.52a3.844,3.844,0,0,0,0,7.685,3.844,3.844,0,0,0,0-7.685m0,6.986a3.144,3.144,0,1,1,3.068-3.144,3.11,3.11,0,0,1-3.068,3.144" transform="translate(3184.75 -224.368)" fill="#333"/>
    </g>
  </g>
</svg>
