<svg xmlns="http://www.w3.org/2000/svg" xmlns:xlink="http://www.w3.org/1999/xlink" width="38" height="38" viewBox="0 0 38 38">
  <defs>
    <clipPath id="clip-path">
      <rect id="Rectangle_812" data-name="Rectangle 812" width="38" height="38" transform="translate(485.835 608.888)" fill="none"/>
    </clipPath>
    <clipPath id="clip-icon_tintuc">
      <rect width="38" height="38"/>
    </clipPath>
  </defs>
  <g id="icon_tintuc" clip-path="url(#clip-icon_tintuc)">
    <g id="Group_2028" data-name="Group 2028" transform="translate(-485.835 -608.888)">
      <g id="Group_1819" data-name="Group 1819" clip-path="url(#clip-path)">
        <g id="Group_1818" data-name="Group 1818">
          <g id="Group_1817" data-name="Group 1817">
            <path id="Path_30052" data-name="Path 30052" d="M518.3,624.59l-2.431-.3a11.511,11.511,0,0,0-.735-1.738l1.5-1.892a1.854,1.854,0,0,0-.158-2.5l-2.036-1.993a1.958,1.958,0,0,0-2.566-.16l-1.931,1.469a12.333,12.333,0,0,0-1.778-.72l-.309-2.374a1.921,1.921,0,0,0-1.921-1.67H503.04a1.912,1.912,0,0,0-1.083.361,2.563,2.563,0,0,0-.785,1.139.685.685,0,0,0-.053.166l-.188,1.446a5.643,5.643,0,0,0,.027,1.651.582.582,0,0,0,.618.375.637.637,0,0,0,.463-.529l.364-2.788a.619.619,0,0,1,.279-.435.636.636,0,0,1,.358-.121h2.895a.65.65,0,0,1,.64.563l.362,2.784a.639.639,0,0,0,.463.528,10.9,10.9,0,0,1,2.293.931.661.661,0,0,0,.713-.053L512.668,617a.646.646,0,0,1,.853.049l2.049,2.006a.611.611,0,0,1,.043.827l-1.759,2.214a.618.618,0,0,0-.054.7,10.546,10.546,0,0,1,.952,2.245.642.642,0,0,0,.539.453l2.849.355a.643.643,0,0,1,.567.624V629.3a.647.647,0,0,1-.574.627l-2.844.354a.641.641,0,0,0-.539.453,10.469,10.469,0,0,1-.951,2.245.62.62,0,0,0,.054.7l1.758,2.214a.616.616,0,0,1-.05.835l-2.049,2.005a.646.646,0,0,1-.847.043l-1.54-1.171-.722-.549a.625.625,0,0,0-.285-.108.636.636,0,0,0-.426.054,10.978,10.978,0,0,1-2.293.932.635.635,0,0,0-.463.527l-.363,2.789a.614.614,0,0,1-.059.183.648.648,0,0,1-.579.372H503.04a.681.681,0,0,1-.639-.561l-.362-2.784a.636.636,0,0,0-.463-.528c-.263-.074-.362.028-.585.18-.284.194-.183.914-.183.914h0l.281,2.156h0l.028.218a1.726,1.726,0,0,0,.09.283,2.777,2.777,0,0,0,.734,1.017,1.91,1.91,0,0,0,1.1.37h2.895a1.935,1.935,0,0,0,1.156-.4,1.853,1.853,0,0,0,.682-1,1.8,1.8,0,0,0,.085-.263l.309-2.378a12.172,12.172,0,0,0,1.776-.72l.175.133,1.007.765.75.571a1.954,1.954,0,0,0,2.559-.155l2.036-1.992a1.857,1.857,0,0,0,.164-2.512l-1.5-1.89a11.783,11.783,0,0,0,.735-1.739l2.426-.3A1.911,1.911,0,0,0,520,629.3v-2.834A1.911,1.911,0,0,0,518.3,624.59Z" fill="#915715"/>
            <path id="Path_30053" data-name="Path 30053" d="M495.417,630.273h3.6a.621.621,0,0,0,.62-.621v-3.6a.621.621,0,0,0-.62-.621h-3.6a.622.622,0,0,0-.621.621v3.6A.622.622,0,0,0,495.417,630.273Zm-.1-4.218a.1.1,0,0,1,.1-.1h3.6a.1.1,0,0,1,.1.1v3.6a.1.1,0,0,1-.1.1h-3.6a.1.1,0,0,1-.1-.1Z" fill="#915715"/>
            <path id="Path_30054" data-name="Path 30054" d="M500.588,625.959h4.867a.262.262,0,0,0,0-.525h-4.867a.262.262,0,1,0,0,.525Z" fill="#915715"/>
            <path id="Path_30055" data-name="Path 30055" d="M500.588,628.116h4.867a.263.263,0,0,0,0-.525h-4.867a.263.263,0,1,0,0,.525Z" fill="#915715"/>
            <path id="Path_30056" data-name="Path 30056" d="M500.588,630.273h4.867a.263.263,0,0,0,0-.525h-4.867a.263.263,0,1,0,0,.525Z" fill="#915715"/>
            <path id="Path_30057" data-name="Path 30057" d="M495.058,632.429h10.4a.262.262,0,1,0,0-.524h-10.4a.262.262,0,1,0,0,.524Z" fill="#915715"/>
            <path id="Path_30058" data-name="Path 30058" d="M495.058,634.586h10.4a.262.262,0,1,0,0-.524h-10.4a.262.262,0,1,0,0,.524Z" fill="#915715"/>
            <path id="Path_30059" data-name="Path 30059" d="M494.8,624.092v-2.771a.141.141,0,0,1,.081-.13.4.4,0,0,1,.2-.045.414.414,0,0,1,.235.056.691.691,0,0,1,.18.239l.824,1.592v-1.716a.136.136,0,0,1,.081-.128.47.47,0,0,1,.393,0,.136.136,0,0,1,.081.128v2.775a.141.141,0,0,1-.084.128.379.379,0,0,1-.194.047.332.332,0,0,1-.32-.175l-.918-1.716v1.716a.142.142,0,0,1-.083.128.385.385,0,0,1-.2.047.376.376,0,0,1-.2-.047A.141.141,0,0,1,494.8,624.092Z" fill="#915715"/>
            <path id="Path_30060" data-name="Path 30060" d="M497.386,624.092v-2.771a.144.144,0,0,1,.073-.128.308.308,0,0,1,.171-.047h1.52a.143.143,0,0,1,.13.073.308.308,0,0,1,.045.166.318.318,0,0,1-.047.175.144.144,0,0,1-.128.073h-1.209v.854h.649a.151.151,0,0,1,.129.066.264.264,0,0,1,.047.156.255.255,0,0,1-.045.147.149.149,0,0,1-.131.066h-.649v.859h1.209a.145.145,0,0,1,.128.072.32.32,0,0,1,.047.175.309.309,0,0,1-.045.167.144.144,0,0,1-.13.072h-1.52a.308.308,0,0,1-.171-.046A.146.146,0,0,1,497.386,624.092Z" fill="#915715"/>
            <path id="Path_30061" data-name="Path 30061" d="M499.6,621.368a.188.188,0,0,1,.116-.156.474.474,0,0,1,.239-.066c.1,0,.164.037.183.111l.675,2.315.363-1.487q.039-.153.273-.153c.154,0,.244.051.269.153l.363,1.487.675-2.315c.02-.074.081-.111.184-.111a.477.477,0,0,1,.239.066.186.186,0,0,1,.115.156.181.181,0,0,1-.008.051l-.846,2.686c-.043.126-.164.188-.363.188a.521.521,0,0,1-.23-.049.206.206,0,0,1-.124-.139l-.274-1.153-.277,1.153a.209.209,0,0,1-.124.139.523.523,0,0,1-.231.049.53.53,0,0,1-.234-.049.22.22,0,0,1-.128-.139l-.846-2.686A.153.153,0,0,1,499.6,621.368Z" fill="#915715"/>
            <path id="Path_30062" data-name="Path 30062" d="M503.437,623.776a.332.332,0,0,1,.075-.2.211.211,0,0,1,.169-.1.215.215,0,0,1,.125.053,1.487,1.487,0,0,1,.137.117.641.641,0,0,0,.19.118.7.7,0,0,0,.273.053.586.586,0,0,0,.342-.094.315.315,0,0,0,.137-.277.372.372,0,0,0-.075-.229.585.585,0,0,0-.2-.166c-.081-.045-.17-.087-.266-.129s-.195-.087-.293-.138a1.769,1.769,0,0,1-.269-.173.685.685,0,0,1-.2-.257.848.848,0,0,1-.075-.365.864.864,0,0,1,.092-.405.7.7,0,0,1,.245-.273,1.146,1.146,0,0,1,.329-.143,1.494,1.494,0,0,1,.372-.046,1.943,1.943,0,0,1,.234.016,2.192,2.192,0,0,1,.263.05.549.549,0,0,1,.226.11.223.223,0,0,1,.088.175.387.387,0,0,1-.06.2.182.182,0,0,1-.162.1.771.771,0,0,1-.209-.082.877.877,0,0,0-.38-.081.623.623,0,0,0-.357.088.286.286,0,0,0-.023.457.8.8,0,0,0,.254.149c.1.039.21.087.328.145a2.95,2.95,0,0,1,.329.19.8.8,0,0,1,.254.3.955.955,0,0,1,.1.455.841.841,0,0,1-.28.676,1.1,1.1,0,0,1-.737.238,1.372,1.372,0,0,1-.7-.167Q503.437,623.973,503.437,623.776Z" fill="#915715"/>
            <path id="Path_30063" data-name="Path 30063" d="M507.575,622.917v-2.206a.9.9,0,0,0-.9-.9h-13.1a.9.9,0,0,0-.9.9v1.372h-2.094a.906.906,0,0,0-.9.9v11.629a1.763,1.763,0,0,0,1.749,1.76h9.29a.263.263,0,0,0,0-.525h-8.025a1.755,1.755,0,0,0,.508-1.236v-6.133a.262.262,0,1,0-.524,0v6.133a1.238,1.238,0,0,1-1.23,1.236h-.007a1.239,1.239,0,0,1-1.236-1.236V622.987a.379.379,0,0,1,.379-.379h2.094v4.9a.262.262,0,1,0,.524,0v-6.792a.38.38,0,0,1,.38-.379h13.1a.379.379,0,0,1,.379.379v13.905a1.238,1.238,0,0,1-1.236,1.236h-4.126a.263.263,0,0,0,0,.525h4.126a1.763,1.763,0,0,0,1.761-1.761v-1.3a5.373,5.373,0,0,0,0-10.4Zm0,9.4v-8.4a4.412,4.412,0,0,1,0,8.4Z" fill="#915715"/>
          </g>
        </g>
      </g>
    </g>
  </g>
</svg>
