<svg xmlns="http://www.w3.org/2000/svg" xmlns:xlink="http://www.w3.org/1999/xlink" width="22" height="22" viewBox="0 0 22 22">
  <defs>
    <clipPath id="clip-icon_lich">
      <rect width="22" height="22"/>
    </clipPath>
  </defs>
  <g id="icon_lich" clip-path="url(#clip-icon_lich)">
    <g id="Group_2739" data-name="Group 2739" transform="translate(-1306.034 -21.567)">
      <path id="Path_26007" data-name="Path 26007" d="M4.784,44.449h.039a.711.711,0,0,0,.7-.721v-1.44a.711.711,0,0,0-.7-.721H4.784a.712.712,0,0,0-.7.721v1.44a.712.712,0,0,0,.7.721" transform="translate(1308.45 -17)" fill="#333"/>
      <path id="Path_26008" data-name="Path 26008" d="M12.05,44.449h.039a.712.712,0,0,0,.7-.721v-1.44a.712.712,0,0,0-.7-.721H12.05a.712.712,0,0,0-.7.721v1.44a.712.712,0,0,0,.7.721" transform="translate(1309.523 -17)" fill="#333"/>
      <path id="Path_26009" data-name="Path 26009" d="M15.911,43.49h-.754v.268a1.606,1.606,0,0,1-1.594,1.616H13.52a1.606,1.606,0,0,1-1.594-1.616V43.49h-5v.268A1.606,1.606,0,0,1,5.33,45.374H5.284a1.607,1.607,0,0,1-1.594-1.616V43.49H3.159a2.139,2.139,0,0,0-2.125,2.154v10.77a2.139,2.139,0,0,0,2.125,2.153H15.911a2.138,2.138,0,0,0,2.123-2.153V45.644a2.138,2.138,0,0,0-2.123-2.154m1.062,12.924a1.071,1.071,0,0,1-1.062,1.076H3.159A1.071,1.071,0,0,1,2.1,56.414V47.8H16.973Z" transform="translate(1308 -17)" fill="#333"/>
      <path id="Path_26010" data-name="Path 26010" d="M5.937,49.732a1.153,1.153,0,1,1-1.153-1.181,1.168,1.168,0,0,1,1.153,1.181" transform="translate(1308.41 -16.124)" fill="#333"/>
      <path id="Path_26011" data-name="Path 26011" d="M9.686,49.732a1.153,1.153,0,1,1-1.152-1.181,1.167,1.167,0,0,1,1.152,1.181" transform="translate(1309 -16.124)" fill="#333"/>
      <path id="Path_26012" data-name="Path 26012" d="M13.437,49.732a1.153,1.153,0,1,1-1.153-1.181,1.168,1.168,0,0,1,1.153,1.181" transform="translate(1309.592 -16.124)" fill="#333"/>
      <path id="Path_26013" data-name="Path 26013" d="M5.937,53.574a1.153,1.153,0,1,1-1.153-1.181,1.168,1.168,0,0,1,1.153,1.181" transform="translate(1308.41 -15.369)" fill="#333"/>
      <path id="Path_26014" data-name="Path 26014" d="M9.686,53.574a1.153,1.153,0,1,1-1.152-1.181,1.167,1.167,0,0,1,1.152,1.181" transform="translate(1309 -15.369)" fill="#333"/>
      <path id="Path_26015" data-name="Path 26015" d="M13.437,53.574a1.153,1.153,0,1,1-1.153-1.181,1.167,1.167,0,0,1,1.153,1.181" transform="translate(1309.592 -15.369)" fill="#333"/>
    </g>
  </g>
</svg>
