<svg xmlns="http://www.w3.org/2000/svg" xmlns:xlink="http://www.w3.org/1999/xlink" width="29" height="29" viewBox="0 0 29 29">
  <defs>
    <clipPath id="clip-kiso">
      <rect width="29" height="29"/>
    </clipPath>
  </defs>
  <g id="kiso" clip-path="url(#clip-kiso)">
    <g id="writing-tool" transform="translate(-0.001 1.5)">
      <path id="Path_30196" data-name="Path 30196" d="M31.727,318.582l-.819,1.169a.869.869,0,0,0-.121.252L30,322.648a.872.872,0,0,0,1.356.949l2.206-1.636a4.348,4.348,0,0,1-1.835-3.379Zm0,0" transform="translate(-28.221 -299.58)" fill="#636363"/>
      <path id="Path_30197" data-name="Path 30197" d="M454.614,180.516H452V193.6a.873.873,0,0,0,1.263.78l1.874-1.39a.872.872,0,0,0,.353-.7v-10.9A.872.872,0,0,0,454.614,180.516Zm0,0" transform="translate(-425.705 -169.545)" fill="#636363"/>
      <path id="Path_30198" data-name="Path 30198" d="M255.42.658A.872.872,0,0,0,254.2.873l-1.5,2.144,2.859,2,1.5-2.144a.872.872,0,0,0-.214-1.215Zm0,0" transform="translate(-238.004)" fill="#636363"/>
      <path id="Path_30199" data-name="Path 30199" d="M112.195,78.583a4.3,4.3,0,0,1,1.325-.228h3.1l5.611-8.013-2.859-2Zm0,0" transform="translate(-105.669 -63.894)" fill="#636363"/>
      <path id="Path_30200" data-name="Path 30200" d="M6.25,92.626a2.606,2.606,0,0,0-1.167,1L.274,101.194a2.613,2.613,0,0,0,.935,3.363c.02-.032.027-.069.048-.1l9.38-13.4a2.765,2.765,0,0,0-1.069.123Zm0,0" transform="translate(0 -85.286)" fill="#636363"/>
      <path id="Path_30201" data-name="Path 30201" d="M119.969,389.012v.525a1.309,1.309,0,0,0,2.618,0V389.1h-1.745A4.367,4.367,0,0,1,119.969,389.012Zm0,0" transform="translate(-112.991 -365.914)" fill="#636363"/>
      <path id="Path_30202" data-name="Path 30202" d="M194.977,390.527v.436a1.309,1.309,0,0,0,1.309,1.309,1.291,1.291,0,0,0,1.262-1.076c-.284-.118-.573-.224-.849-.36l-.605-.309h-1.117Zm0,0" transform="translate(-183.636 -367.341)" fill="#636363"/>
      <path id="Path_30203" data-name="Path 30203" d="M109.281,137.048h-1.6l-5.545-2.684-4.269,6.1a5.107,5.107,0,0,0,2.829-1.413.873.873,0,1,1,1.234,1.234,6.879,6.879,0,0,1-4.83,2H92.586a2.618,2.618,0,1,0,0,5.235h5.026a12.925,12.925,0,0,0,6.317,1.745,12.647,12.647,0,0,0,5.351-1.2Zm0,0" transform="translate(-84.735 -126.077)" fill="#636363"/>
    </g>
  </g>
</svg>
