<svg xmlns="http://www.w3.org/2000/svg" xmlns:xlink="http://www.w3.org/1999/xlink" width="20" height="20" viewBox="0 0 20 20">
  <defs>
    <clipPath id="clip-ktnn_hv">
      <rect width="20" height="20"/>
    </clipPath>
  </defs>
  <g id="ktnn_hv" clip-path="url(#clip-ktnn_hv)">
    <g id="Group_8140" data-name="Group 8140" transform="translate(1350.995 -1349.442)">
      <path id="Path_30543" data-name="Path 30543" d="M-1331,1360.952a.312.312,0,0,0-.425-.342l-10.233,3.66a.3.3,0,0,0-.2.278.3.3,0,0,0,.2.279l2.875,1.04v3.276a.3.3,0,0,0,.245.291.327.327,0,0,0,.358-.156l1.189-2.211,2.9,2.018a.327.327,0,0,0,.494-.153c2.709-8.321,2.592-7.959,2.6-7.98Zm-2.526,1.048-4.985,3.326-2.145-.776Zm-4.622,3.816,4.346-2.9c-3.74,3.7-3.544,3.5-3.561,3.522s.043-.089-.785,1.449Zm4.074,2.537-2.554-1.775,4.618-4.564Z" fill="#fff"/>
      <path id="Path_30544" data-name="Path 30544" d="M-1339.284,1359.012l.417-.38,0-.005,1.041-.951-1.73-.235v0l-.281-.039a.574.574,0,0,1-.432-.294l-.9-1.719-.008.014-.006-.011-.9,1.718a.57.57,0,0,1-.423.29l-2.022.274,0,0-.015,0,1.464,1.338a.514.514,0,0,1,.165.476l-.345,1.888.423-.209,1.392-.684a.613.613,0,0,1,.262-.06.6.6,0,0,1,.267.061l.515.254,0,0,1.3.641-.344-1.889a.509.509,0,0,1,.021-.257A.526.526,0,0,1-1339.284,1359.012Z" fill="#fff"/>
      <path id="Path_30545" data-name="Path 30545" d="M-1341.817,1362.348l1.355-.485-.837-.428-2.594,1.228a.607.607,0,0,1-.6-.05c-.033-.023-.045-.059-.071-.087a.492.492,0,0,1-.029-.255l.491-2.684-2.081-1.9a.516.516,0,0,1-.146-.552.569.569,0,0,1,.464-.366l2.876-.391,1.287-2.442a.578.578,0,0,1,.515-.3.578.578,0,0,1,.515.3l1.287,2.442,2.876.391a.563.563,0,0,1,.431.321.511.511,0,0,1-.155.536l-2.114,1.87.253,1.523,3.09-1.1a5.621,5.621,0,0,0,.022-2.506l.017-.005a5.682,5.682,0,0,0-.4-1.131c-.013-.027-.03-.052-.043-.079a5.765,5.765,0,0,0-.539-.9c-.021-.03-.033-.063-.055-.092-.039-.053-.09-.094-.131-.146a6.189,6.189,0,0,0-.479-.533c-.095-.092-.192-.179-.291-.265-.162-.139-.328-.27-.5-.393-.118-.082-.237-.159-.359-.233-.179-.108-.362-.206-.552-.3-.129-.061-.258-.117-.391-.17-.2-.078-.393-.147-.6-.207-.145-.042-.289-.077-.436-.11-.193-.043-.388-.079-.587-.1-.181-.024-.361-.036-.544-.045-.106-.005-.209-.026-.317-.026s-.2.009-.3.014c-.071,0-.142,0-.213.01a6.786,6.786,0,0,0-.863.12c-.093.019-.183.043-.275.066a6.724,6.724,0,0,0-.709.219c-.053.02-.109.029-.161.05l0,.01a5.966,5.966,0,0,0-3.839,5.466,5.76,5.76,0,0,0,2.018,4.329l-.015.02c.048.043.106.074.156.115s.109.078.162.119a6.486,6.486,0,0,0,.678.467c.1.056.2.1.3.15a6.547,6.547,0,0,0,.623.293c.068.026.141.045.211.066A2.444,2.444,0,0,1-1341.817,1362.348Z" fill="#fff"/>
      <path id="Path_30546" data-name="Path 30546" d="M-1341.839,1366.858a2.5,2.5,0,0,1-1.527-1.529c-.178-.05-.361-.089-.532-.152-.069-.025-.136-.054-.2-.08a7.617,7.617,0,0,1-1.987-1.152l-.052-.04a7.447,7.447,0,0,1-.812-.785c-.031-.034-.06-.07-.09-.106a6.692,6.692,0,0,1-.443-.6c-.118-.171-.232-.343-.332-.521s-.187-.361-.271-.546-.162-.372-.227-.561-.118-.383-.166-.579-.092-.394-.122-.593-.045-.4-.057-.6a6.608,6.608,0,0,1-.017-.732c0-.045,0-.09.007-.134a6.722,6.722,0,0,1,.168-1.083c.005-.02.011-.04.017-.06a6.826,6.826,0,0,1,.892-2.025c.038-.058.074-.118.114-.175a7.067,7.067,0,0,1,.639-.788,7.7,7.7,0,0,1,5.65-2.418,7.531,7.531,0,0,1,6.911,4.312c.083.185.14.374.205.562s.138.377.187.574a6.632,6.632,0,0,1,.119,2.429l.9-.323a3.09,3.09,0,0,1,.92-.159,2.762,2.762,0,0,1,.54.056,8.821,8.821,0,0,0-.132-1.983h.012c-.032-.172-.094-.336-.136-.506-.062-.253-.116-.508-.2-.756s-.2-.48-.306-.718c-.073-.162-.125-.331-.208-.489l-.009.008a9.2,9.2,0,0,0-1.87-2.47,10.08,10.08,0,0,0-6.932-2.69,10.078,10.078,0,0,0-6.932,2.69c-.026.024-.048.051-.074.076l0-.006c-.044.041-.076.09-.119.132a9.356,9.356,0,0,0-.708.788c-.072.089-.144.176-.212.267a9.174,9.174,0,0,0-.663,1.025c-.034.062-.064.127-.1.191a8.634,8.634,0,0,0-.475,1.08c-.016.044-.035.087-.05.132a8.562,8.562,0,0,0-.323,1.254c-.006.031-.018.06-.023.091-.014.08-.017.158-.029.238-.023.163-.045.327-.059.493s-.02.33-.025.494c0,.08-.013.159-.013.239,0,.045.007.09.007.135,0,.193.015.384.03.575.009.107.017.214.029.32.023.188.054.373.088.558.022.116.043.231.069.345.037.164.082.326.129.487.04.136.08.271.126.405s.1.264.15.394c.063.159.128.315.2.47.049.105.1.209.158.313.088.17.179.339.279.5.056.092.116.182.175.273.107.164.218.327.337.485.027.037.05.076.078.112.049.065.106.122.157.185.108.132.217.263.333.39s.233.246.353.365c.059.058.112.121.173.178.024.023.052.04.076.062a9.688,9.688,0,0,0,1.044.839c.041.028.085.053.126.081a9.719,9.719,0,0,0,1.057.613c.067.034.132.071.2.1a10.252,10.252,0,0,0,1.175.466c.113.037.227.068.342.1a10.647,10.647,0,0,0,1.062.25c.062.011.12.032.182.042v-.006c.036.005.071.015.107.021a10.535,10.535,0,0,0,1.962.111v-.567Z" fill="#fff"/>
    </g>
  </g>
</svg>
