<svg xmlns="http://www.w3.org/2000/svg" xmlns:xlink="http://www.w3.org/1999/xlink" width="20" height="20" viewBox="0 0 20 20">
  <defs>
    <clipPath id="clip-luuchuyen">
      <rect width="20" height="20"/>
    </clipPath>
  </defs>
  <g id="luuchuyen" clip-path="url(#clip-luuchuyen)">
    <g id="Group_8132" data-name="Group 8132" transform="translate(1846.757 -1493.46)">
      <path id="Path_30510" data-name="Path 30510" d="M-1838.655,1512.46a.441.441,0,0,1-.113-.014.539.539,0,0,1-.4-.529v-1.1a6.974,6.974,0,0,1,6.724-7.184h.172v-2.4a.555.555,0,0,1,.325-.513.492.492,0,0,1,.565.13l4.483,4.973a.58.58,0,0,1,0,.767l-4.483,4.974a.494.494,0,0,1-.565.129.554.554,0,0,1-.325-.513v-2.394h-.819a5.634,5.634,0,0,0-5.089,3.36A.53.53,0,0,1-1838.655,1512.46Zm6.208-7.727a5.844,5.844,0,0,0-5.646,5.32,6.507,6.507,0,0,1,5-2.373h1.337a.536.536,0,0,1,.517.553v1.577l3.247-3.6-3.247-3.6v1.577a.537.537,0,0,1-.517.553Z" fill="#636363"/>
      <path id="Path_30511" data-name="Path 30511" d="M-1842.345,1500.209h4.32v-4.749h-4.786v4.25A.484.484,0,0,0-1842.345,1500.209Z" fill="#636363"/>
      <path id="Path_30512" data-name="Path 30512" d="M-1836.036,1499.71v-4.25h-1.057v4.749h.591A.484.484,0,0,0-1836.036,1499.71Z" fill="#636363"/>
      <path id="Path_30513" data-name="Path 30513" d="M-1835.182,1506.839c.025-.008.052-.01.078-.017v-.036C-1835.129,1506.805-1835.158,1506.819-1835.182,1506.839Z" fill="#636363"/>
      <path id="Path_30514" data-name="Path 30514" d="M-1833.346,1501.233a1.7,1.7,0,0,1,.992-1.575,1.518,1.518,0,0,1,.6-.124,1.523,1.523,0,0,1,.91.309c0-.235,0-.17,0-.181a.525.525,0,0,0-.1-.267c-.023-.03.214.226-3.543-3.789a.456.456,0,0,0-.329-.146h-.28v4.25a1.451,1.451,0,0,1-1.4,1.495h-5.842a1.451,1.451,0,0,1-1.4-1.495v-4.25h-1.616a1.451,1.451,0,0,0-1.4,1.495v14.011a1.45,1.45,0,0,0,1.4,1.494h1.616v-6.972a1.45,1.45,0,0,1,1.4-1.494h5.437a7.459,7.459,0,0,1,3.561-1.457Z" fill="#636363"/>
      <path id="Path_30515" data-name="Path 30515" d="M-1840.243,1510.812a8.686,8.686,0,0,1,.826-3.7h-3.394v5.345h2.655a1.8,1.8,0,0,1-.087-.543Z" fill="#636363"/>
      <path id="Path_30516" data-name="Path 30516" d="M-1842.344,1504.99a.484.484,0,0,0-.467.5v.631h3.936a8.267,8.267,0,0,1,.886-1.129Z" fill="#636363"/>
      <path id="Path_30517" data-name="Path 30517" d="M-1833.346,1511.18v-1.242a4.487,4.487,0,0,0-.46.075l0-.024a3.261,3.261,0,0,0-.393.088c-.027.007-.055.011-.081.019a4.878,4.878,0,0,0-2.816,2.364h4.3A1.734,1.734,0,0,1-1833.346,1511.18Z" fill="#636363"/>
    </g>
  </g>
</svg>
