<svg xmlns="http://www.w3.org/2000/svg" xmlns:xlink="http://www.w3.org/1999/xlink" width="20" height="20" viewBox="0 0 20 20">
  <defs>
    <clipPath id="clip-motat_hv">
      <rect width="20" height="20"/>
    </clipPath>
  </defs>
  <g id="motat_hv" clip-path="url(#clip-motat_hv)">
    <g id="Group_8129" data-name="Group 8129" transform="translate(1151.398 -1316.242)">
      <path id="Path_30601" data-name="Path 30601" d="M-1132.385,1326.408a3.182,3.182,0,0,1-1.122-.2,3.135,3.135,0,0,1-1.75-1.625q-1.906,1.908-3.812,3.817a3.227,3.227,0,0,1-2.321,1.01,3.261,3.261,0,0,1-.822-.108,3.146,3.146,0,0,1-2.184-2.043,3.157,3.157,0,0,1,.511-2.962,4.089,4.089,0,0,1,.354-.39l3.8-3.8a3.125,3.125,0,0,1-1.825-2.819,3.225,3.225,0,0,1,.171-1.039h-6.1a3.914,3.914,0,0,0-3.914,3.914v12.173a3.914,3.914,0,0,0,3.914,3.913h12.173a3.913,3.913,0,0,0,3.913-3.913v-6.092A3.148,3.148,0,0,1-1132.385,1326.408Z" fill="#fff"/>
      <path id="Path_30602" data-name="Path 30602" d="M-1138.357,1318.235c1.156.006,2.312,0,3.468,0l.086.1a1.07,1.07,0,0,0-.242.141q-3.466,3.459-6.929,6.925a2.569,2.569,0,0,0-.208.222.993.993,0,0,0,.522,1.577,1.042,1.042,0,0,0,1.058-.337q3.484-3.493,6.976-6.978c.062-.063.127-.124.234-.228v.315c0,1.078,0,2.156,0,3.234a.987.987,0,0,0,.643.967.994.994,0,0,0,1.346-.976q.009-2.93,0-5.859a.992.992,0,0,0-1.1-1.1q-1.4,0-2.789,0c-1.031,0-2.062,0-3.094.005a.974.974,0,0,0-1,1.008A.98.98,0,0,0-1138.357,1318.235Z" fill="#fff"/>
    </g>
  </g>
</svg>
