<svg xmlns="http://www.w3.org/2000/svg" xmlns:xlink="http://www.w3.org/1999/xlink" width="20" height="20" viewBox="0 0 20 20">
  <defs>
    <clipPath id="clip-nhaplai">
      <rect width="20" height="20"/>
    </clipPath>
  </defs>
  <g id="nhaplai" clip-path="url(#clip-nhaplai)">
    <g id="Group_8133" data-name="Group 8133" transform="translate(1846.757 -1468.65)">
      <path id="Path_30518" data-name="Path 30518" d="M-1843.633,1483.6h.407a.51.51,0,0,0,.509-.51.509.509,0,0,0-.509-.509h-.407a.509.509,0,0,0-.509.509A.51.51,0,0,0-1843.633,1483.6Z" fill="#636363"/>
      <path id="Path_30519" data-name="Path 30519" d="M-1838.1,1483.6a.51.51,0,0,0,.509-.51.509.509,0,0,0-.509-.509h-3.088a.509.509,0,0,0-.509.509.51.51,0,0,0,.509.51Z" fill="#636363"/>
      <path id="Path_30520" data-name="Path 30520" d="M-1843.328,1486.245h10.411a3.487,3.487,0,0,0,3.482-3.483,3.486,3.486,0,0,0-3.482-3.483h-1.392l.517-.515a.742.742,0,0,0,0-1.046.736.736,0,0,0-.522-.216.734.734,0,0,0-.522.216l-1.777,1.776a.731.731,0,0,0-.216.524.729.729,0,0,0,.215.522l1.778,1.777a.736.736,0,0,0,.521.217.737.737,0,0,0,.522-.217.735.735,0,0,0,.216-.524.732.732,0,0,0-.216-.521l-.517-.516h1.392a2.008,2.008,0,0,1,2.006,2.006,2.008,2.008,0,0,1-2.006,2.007h-10.411c-.585,0-1.043.324-1.043.739S-1843.913,1486.245-1843.328,1486.245Z" fill="#636363"/>
      <path id="Path_30521" data-name="Path 30521" d="M-1826.757,1476.362v-6.055a1.658,1.658,0,0,0-1.657-1.657H-1845.1a1.658,1.658,0,0,0-1.656,1.657v6.055c0,.009,0,.016,0,.024a.508.508,0,0,0,.505.486.509.509,0,0,0,.509-.51v-6.055a.638.638,0,0,1,.638-.638h1.972v6.607a.509.509,0,0,0,.261.444.493.493,0,0,0,.384.028.464.464,0,0,0,.138-.039l2.838-1.75,2.839,1.75a.455.455,0,0,0,.138.039.491.491,0,0,0,.383-.028.509.509,0,0,0,.261-.444v-6.607h7.473a.638.638,0,0,1,.638.638v16.684a.64.64,0,0,1-.638.64H-1845.1a.64.64,0,0,1-.638-.64v-6.055a.509.509,0,0,0-.509-.51.509.509,0,0,0-.509.51v6.055a1.659,1.659,0,0,0,1.656,1.659h16.687a1.66,1.66,0,0,0,1.657-1.659v-6.055c0-.009-.005-.017-.005-.025v-4.525C-1826.762,1476.378-1826.757,1476.371-1826.757,1476.362Z" fill="#636363"/>
      <path id="Path_30522" data-name="Path 30522" d="M-1846.248,1479.16a.511.511,0,0,0,.509-.511.51.51,0,0,0-.509-.51.509.509,0,0,0-.505.486c0,.008,0,.015,0,.024v0c0,.008,0,.015,0,.024A.507.507,0,0,0-1846.248,1479.16Z" fill="#636363"/>
    </g>
  </g>
</svg>
