<svg xmlns="http://www.w3.org/2000/svg" xmlns:xlink="http://www.w3.org/1999/xlink" width="20" height="20" viewBox="0 0 20 20">
  <defs>
    <clipPath id="clip-phatnb_hv">
      <rect width="20" height="20"/>
    </clipPath>
  </defs>
  <g id="phatnb_hv" clip-path="url(#clip-phatnb_hv)">
    <g id="Group_8139" data-name="Group 8139" transform="translate(1350.995 -1317.698)">
      <path id="Path_30541" data-name="Path 30541" d="M-1342.372,1329.882l.179-.354c.291-.578.293-.578.3-.59s2.27-2.4,2.27-2.4l-2.787,1.984Z" fill="#fff"/>
      <path id="Path_30542" data-name="Path 30542" d="M-1332.132,1326.22c-.308-.227-.7-.51-.743-.7a2.337,2.337,0,0,1,.3-1.02c.272-.622.552-1.268.24-1.8s-1.019-.624-1.7-.7a2.317,2.317,0,0,1-1.016-.242,2.328,2.328,0,0,1-.242-1.02c-.076-.681-.155-1.386-.7-1.7s-1.187-.04-1.809.235a2.337,2.337,0,0,1-1.021.3c-.188-.05-.47-.434-.7-.742-.4-.532-.839-1.136-1.481-1.136s-1.086.6-1.478,1.136c-.228.308-.511.7-.7.743a2.381,2.381,0,0,1-1.021-.3c-.626-.276-1.271-.55-1.806-.241s-.624,1.019-.7,1.7a2.327,2.327,0,0,1-.241,1.016,2.316,2.316,0,0,1-1.013.238c-.682.077-1.387.156-1.7.7s-.038,1.185.236,1.809a2.334,2.334,0,0,1,.3,1.023c-.051.188-.435.472-.743.7-.532.391-1.136.837-1.136,1.478s.6,1.088,1.137,1.479c.308.227.7.51.742.695a2.316,2.316,0,0,1-.3,1.02c-.271.623-.551,1.268-.24,1.805s1.019.623,1.7.695a2.332,2.332,0,0,1,1.017.243,2.314,2.314,0,0,1,.241,1.02c.077.681.156,1.385.7,1.7s1.181.032,1.8-.24a2.383,2.383,0,0,1,1.028-.3c.188.05.471.434.7.742.392.532.836,1.136,1.478,1.136s1.086-.6,1.478-1.136c.228-.309.511-.7.7-.743a2.341,2.341,0,0,1,1.021.3c.622.271,1.267.549,1.8.241s.624-1.019.7-1.7a2.316,2.316,0,0,1,.242-1.017,2.333,2.333,0,0,1,1.015-.241c.682-.076,1.387-.155,1.7-.7s.03-1.181-.24-1.8a2.337,2.337,0,0,1-.3-1.028c.051-.187.435-.471.743-.695.532-.392,1.136-.838,1.136-1.479S-1331.6,1326.611-1332.132,1326.22Zm-6.322,5.1a.385.385,0,0,1-.37.274.377.377,0,0,1-.23-.077l-2.385-1.77-.962,1.908a.381.381,0,0,1-.344.212l-.091-.01a.385.385,0,0,1-.3-.376v-2.928l-2.4-.926a.384.384,0,0,1-.248-.361.39.39,0,0,1,.248-.361l8.813-3.363.12-.019a.387.387,0,0,1,.3.144.379.379,0,0,1,.077.323Z" fill="#fff"/>
    </g>
  </g>
</svg>
