<svg xmlns="http://www.w3.org/2000/svg" xmlns:xlink="http://www.w3.org/1999/xlink" width="20" height="20" viewBox="0 0 20 20">
  <defs>
    <clipPath id="clip-pheduyet_hv">
      <rect width="20" height="20"/>
    </clipPath>
  </defs>
  <g id="pheduyet_hv" clip-path="url(#clip-pheduyet_hv)">
    <g id="Group_8138" data-name="Group 8138" transform="translate(1606.914 -1523.872)">
      <path id="Path_30539" data-name="Path 30539" d="M-1599.715,1539h-.461v.014h-.732a.652.652,0,0,1-.633-.668.652.652,0,0,1,.633-.668h1.341a1.587,1.587,0,0,1,.8-.742l3.681-1.484h-5.821a.652.652,0,0,1-.633-.668.664.664,0,0,1,.342-.583.584.584,0,0,1,.291-.085h6.326a.584.584,0,0,1,.291.085.666.666,0,0,1,.342.583.689.689,0,0,1-.044.227l3.417-1.378v-7.309a2.388,2.388,0,0,0-2.319-2.449h-9.7a2.388,2.388,0,0,0-2.319,2.449v12.913a2.388,2.388,0,0,0,2.319,2.449h5.809v-.813l-1.983-.807A1.649,1.649,0,0,1-1599.715,1539Zm-1.816-9.431a.838.838,0,0,1,1.218,0l1.634,1.7,3.84-4.77a.836.836,0,0,1,1.212-.112.917.917,0,0,1,.108,1.26l-4.444,5.521a.849.849,0,0,1-.622.319.24.24,0,0,1-.038,0,.84.84,0,0,1-.609-.262l-2.3-2.39A.918.918,0,0,1-1601.531,1529.566Z" fill="#fff"/>
      <path id="Path_30540" data-name="Path 30540" d="M-1588.336,1534.172l-9.972,4.02a.326.326,0,0,0-.2.3.33.33,0,0,0,.2.307l2.8,1.142v3.6a.325.325,0,0,0,.239.319.3.3,0,0,0,.348-.172l1.159-2.427,2.828,2.216a.305.305,0,0,0,.482-.168c2.64-9.139,2.525-8.742,2.53-8.765A.317.317,0,0,0-1588.336,1534.172Zm-6.9,5.18-2.091-.853,6.948-2.8Zm1.119,1.222c-.023.033.041-.1-.765,1.592v-2.276l4.234-3.184C-1594.3,1540.764-1594.106,1540.551-1594.122,1540.574Zm3.2,2.1-2.489-1.95,4.5-5.013Z" fill="#fff"/>
    </g>
  </g>
</svg>
