<svg xmlns="http://www.w3.org/2000/svg" xmlns:xlink="http://www.w3.org/1999/xlink" width="17" height="16" viewBox="0 0 17 16">
  <defs>
    <clipPath id="clip-thoat">
      <rect width="17" height="16"/>
    </clipPath>
  </defs>
  <g id="thoat" clip-path="url(#clip-thoat)">
    <g id="logout" transform="translate(0 -0.332)">
      <path id="Path_26131" data-name="Path 26131" d="M157.3,219.784h-7.575a.392.392,0,0,1,0-.784H157.3a.392.392,0,1,1,0,.784Zm0,0" transform="translate(-140.691 -211.06)" fill="#fff"/>
      <path id="Path_26132" data-name="Path 26132" d="M151.821,138.616a.389.389,0,0,1-.277-.115l-2.09-2.09a.392.392,0,0,1,0-.554l2.09-2.09a.392.392,0,1,1,.554.554l-1.813,1.813,1.813,1.813a.392.392,0,0,1-.277.669Zm0,0" transform="translate(-143.689 -127.802)" fill="#fff"/>
      <path id="Path_26133" data-name="Path 26133" d="M8.322,16.332A8.175,8.175,0,0,1,0,8.332a8.175,8.175,0,0,1,8.322-8,8.281,8.281,0,0,1,7.745,5.074.54.54,0,0,1-.32.708.576.576,0,0,1-.736-.308A7.152,7.152,0,0,0,8.322,1.423,7.061,7.061,0,0,0,1.135,8.332a7.061,7.061,0,0,0,7.187,6.909,7.152,7.152,0,0,0,6.689-4.381.576.576,0,0,1,.736-.308.539.539,0,0,1,.32.708,8.281,8.281,0,0,1-7.745,5.073Zm0,0" fill="#fff"/>
    </g>
  </g>
</svg>
