<svg xmlns="http://www.w3.org/2000/svg" xmlns:xlink="http://www.w3.org/1999/xlink" width="20" height="20" viewBox="0 0 20 20">
  <defs>
    <clipPath id="clip-thualenh">
      <rect width="20" height="20"/>
    </clipPath>
  </defs>
  <g id="thualenh" clip-path="url(#clip-thualenh)">
    <g id="Group_8141" data-name="Group 8141" transform="translate(1351.495 -1382.782)">
      <path id="Path_30547" data-name="Path 30547" d="M-1335.244,1382.782h-1.552c-.2.34-.424.7-.645,1.038a19.609,19.609,0,0,0-1.236,2.218,3.166,3.166,0,0,0-.106.341,3.569,3.569,0,0,0-1.1-1.028,3.745,3.745,0,0,0-2.109-.479,4.552,4.552,0,0,0,.438-.838c.076-.22.224-.692.4-1.252h-5.595a2.752,2.752,0,0,0-2.75,2.75v14.5a2.752,2.752,0,0,0,2.75,2.75h11.5a2.752,2.752,0,0,0,2.749-2.75v-14.5A2.752,2.752,0,0,0-1335.244,1382.782Zm-7.607,3.375a11.435,11.435,0,0,0,.729-1.027,3.754,3.754,0,0,1,2.109.48,3.555,3.555,0,0,1,1.1,1.028c-.107.389-.243.96-.279,1.059-.049.14-.179.329-.3.354a.331.331,0,0,0-.19.14c-.154.313-.638.334-.638.334s.419-.713-.887-1.251-1.585.114-1.585.114a.66.66,0,0,1-.124-.837A.359.359,0,0,1-1342.851,1386.157Zm5.606,13.625h-.335v-.016h-6.3v.016h-.869a.75.75,0,0,1-.75-.75.75.75,0,0,1,.75-.75h7.5a.75.75,0,0,1,.75.75A.75.75,0,0,1-1337.245,1399.782Zm0-4h-7.5a.75.75,0,0,1-.75-.75.731.731,0,0,1,.366-.619l0-.02a5.821,5.821,0,0,0,.123-2.171c-.1-.657,0-.717,0-.717a31.694,31.694,0,0,0,2.252-4.032c.165-.274.818-.39,1.625-.03.837.374.778.887.778.887l-1.421,4.188c-.05.135-.279.2-.279.2a5.258,5.258,0,0,0-2.249,1.564h7.052a.722.722,0,0,1,.345.095.741.741,0,0,1,.405.655A.75.75,0,0,1-1337.245,1395.782Z" fill="#636363"/>
      <path id="Path_30548" data-name="Path 30548" d="M-1342.889,1391.032c.1-.221.062-.458-.091-.53s-.362.05-.464.271a.475.475,0,0,0,0,.45l-1.378,3.116a.591.591,0,0,1,.186-.052h.112l1.327-2.972A.49.49,0,0,0-1342.889,1391.032Z" fill="#636363"/>
    </g>
  </g>
</svg>
