<svg xmlns="http://www.w3.org/2000/svg" xmlns:xlink="http://www.w3.org/1999/xlink" width="20" height="20" viewBox="0 0 20 20">
  <defs>
    <clipPath id="clip-thutrinh">
      <rect width="20" height="20"/>
    </clipPath>
  </defs>
  <g id="thutrinh" clip-path="url(#clip-thutrinh)">
    <g id="Group_8136" data-name="Group 8136" transform="translate(1346.788 -1497.095)">
      <path id="Path_30551" data-name="Path 30551" d="M-1346.788,1503.816h4.85V1498.4h-4.85Zm2.425-3.75a1.231,1.231,0,0,1,1.212,1.25,1.231,1.231,0,0,1-1.212,1.25,1.232,1.232,0,0,1-1.212-1.25A1.232,1.232,0,0,1-1344.363,1500.066Z" fill="#636363"/>
      <path id="Path_30552" data-name="Path 30552" d="M-1343.959,1501.316a.411.411,0,0,1-.4.417.411.411,0,0,1-.4-.417.411.411,0,0,1,.4-.417A.411.411,0,0,1-1343.959,1501.316Z" fill="#636363"/>
      <path id="Path_30553" data-name="Path 30553" d="M-1346.788,1504.649h4.85v1.667h-4.85Z" fill="#636363"/>
      <path id="Path_30554" data-name="Path 30554" d="M-1346.788,1507.149h4.85v9.584h-4.85Z" fill="#636363"/>
      <path id="Path_30555" data-name="Path 30555" d="M-1333.774,1504.506l4.7-1.156-1.337-5.255-4.7,1.156Zm1.426-4.216a1.243,1.243,0,0,1,1.485.924,1.218,1.218,0,0,1-.867,1.5,1.244,1.244,0,0,1-1.485-.923A1.22,1.22,0,0,1-1332.348,1500.29Z" fill="#636363"/>
      <path id="Path_30556" data-name="Path 30556" d="M-1331.647,1501.406a.407.407,0,0,1-.289.5.415.415,0,0,1-.495-.308.408.408,0,0,1,.289-.5A.415.415,0,0,1-1331.647,1501.406Z" fill="#636363"/>
      <path id="Path_30557" data-name="Path 30557" d="M-1328.864,1504.159l-4.7,1.156.411,1.617,4.7-1.156Z" fill="#636363"/>
      <path id="Path_30558" data-name="Path 30558" d="M-1341.13,1510.066v.834h1.917a2.831,2.831,0,0,1,.621-.834Z" fill="#636363"/>
      <path id="Path_30559" data-name="Path 30559" d="M-1339.474,1511.733h-1.656v1.667h1.932a2.764,2.764,0,0,1-.337-1.285A2.59,2.59,0,0,1-1339.474,1511.733Z" fill="#636363"/>
      <path id="Path_30560" data-name="Path 30560" d="M-1336.8,1515.9h-4.335v.834h4.362a2.679,2.679,0,0,1-.027-.313Z" fill="#636363"/>
      <path id="Path_30561" data-name="Path 30561" d="M-1338.56,1514.233h-2.57v.833h4.2l-.754-.286A2.944,2.944,0,0,1-1338.56,1514.233Z" fill="#636363"/>
      <path id="Path_30562" data-name="Path 30562" d="M-1336.281,1498.4h-4.849v10.833h4.1l.745-.279Z" fill="#636363"/>
      <path id="Path_30563" data-name="Path 30563" d="M-1326.8,1508.407a.308.308,0,0,0-.414-.349l-9.984,3.745a.305.305,0,0,0-.2.284.307.307,0,0,0,.2.286l2.8,1.064v3.353a.307.307,0,0,0,.239.3.315.315,0,0,0,.35-.16l1.16-2.262,2.83,2.065a.314.314,0,0,0,.483-.156c2.643-8.516,2.528-8.145,2.533-8.167Zm-2.464,1.073-4.864,3.4-2.093-.794Zm-4.509,3.905,4.239-2.967c-3.648,3.782-3.457,3.583-3.473,3.6s.041-.09-.766,1.484Zm3.974,2.6-2.492-1.817,4.506-4.67Z" fill="#636363"/>
    </g>
  </g>
</svg>
