<svg xmlns="http://www.w3.org/2000/svg" xmlns:xlink="http://www.w3.org/1999/xlink" width="26" height="26" viewBox="0 0 26 26">
  <defs>
    <clipPath id="clip-traloi_c">
      <rect width="26" height="26"/>
    </clipPath>
  </defs>
  <g id="traloi_c" clip-path="url(#clip-traloi_c)">
    <g id="Group_8146" data-name="Group 8146" transform="translate(-1698.552 -568.803)">
      <g id="reply" transform="translate(1699.552 573.803)">
        <g id="Group_7786" data-name="Group 7786" transform="translate(4.583 0)">
          <g id="Group_7785" data-name="Group 7785">
            <path id="Path_30211" data-name="Path 30211" d="M.252,79.06,7.89,72.185a.764.764,0,0,1,1.276.568v3.84c5.478.307,9.664,3.912,10.3,8.978l.391,3.126a.762.762,0,0,1-.5.814.743.743,0,0,1-.255.046.766.766,0,0,1-.648-.359l-.768-1.231c-1.525-2.438-4.575-5.284-8.157-5.284H9.166V86.5a.763.763,0,0,1-1.274.568L.253,80.2a.765.765,0,0,1,0-1.137Z" transform="translate(0 -71.989)" fill="#79b7b5"/>
          </g>
        </g>
        <g id="Group_7788" data-name="Group 7788" transform="translate(0 0.001)">
          <g id="Group_7787" data-name="Group 7787">
            <path id="Path_30212" data-name="Path 30212" d="M320.234,79.086l7.638-6.874a.765.765,0,0,1,1.023,1.137l-7.009,6.306L328.9,85.96a.765.765,0,0,1-1.023,1.137l-7.638-6.874a.767.767,0,0,1,0-1.137Z" transform="translate(-319.982 -72.016)" fill="#79b7b5"/>
          </g>
        </g>
      </g>
      <g id="reply-2" data-name="reply" transform="translate(1699.552 572.803)">
        <g id="Group_7786-2" data-name="Group 7786" transform="translate(4.583 0)">
          <g id="Group_7785-2" data-name="Group 7785">
            <path id="Path_30211-2" data-name="Path 30211" d="M.252,79.06,7.89,72.185a.764.764,0,0,1,1.276.568v3.84c5.478.307,9.664,3.912,10.3,8.978l.391,3.126a.762.762,0,0,1-.5.814.743.743,0,0,1-.255.046.766.766,0,0,1-.648-.359l-.768-1.231c-1.525-2.438-4.575-5.284-8.157-5.284H9.166V86.5a.763.763,0,0,1-1.274.568L.253,80.2a.765.765,0,0,1,0-1.137Z" transform="translate(0 -71.989)" fill="#038f8f"/>
          </g>
        </g>
        <g id="Group_7788-2" data-name="Group 7788" transform="translate(0 0.001)">
          <g id="Group_7787-2" data-name="Group 7787">
            <path id="Path_30212-2" data-name="Path 30212" d="M320.234,79.086l7.638-6.874a.765.765,0,0,1,1.023,1.137l-7.009,6.306L328.9,85.96a.765.765,0,0,1-1.023,1.137l-7.638-6.874a.767.767,0,0,1,0-1.137Z" transform="translate(-319.982 -72.016)" fill="#038f8f"/>
          </g>
        </g>
      </g>
    </g>
  </g>
</svg>
