<svg xmlns="http://www.w3.org/2000/svg" xmlns:xlink="http://www.w3.org/1999/xlink" width="20" height="20" viewBox="0 0 20 20">
  <defs>
    <clipPath id="clip-tralai">
      <rect width="20" height="20"/>
    </clipPath>
  </defs>
  <g id="tralai" clip-path="url(#clip-tralai)">
    <path id="Path_30607" data-name="Path 30607" d="M-1836.757,1524.153a10,10,0,0,0-10,10,10,10,0,0,0,10,10,10,10,0,0,0,10-10A10,10,0,0,0-1836.757,1524.153Zm1.229,14.86h-6.1a1.023,1.023,0,0,1-1.021-1.023,1.022,1.022,0,0,1,1.021-1.021h6.1a2.628,2.628,0,0,0,2.624-2.625,2.626,2.626,0,0,0-2.624-2.622h-1.75l.615.616a1.024,1.024,0,0,1,0,1.445,1.019,1.019,0,0,1-.723.3,1.015,1.015,0,0,1-.723-.3l-2.361-2.36a1,1,0,0,1-.3-.722,1.008,1.008,0,0,1,.3-.724l2.361-2.358a1.012,1.012,0,0,1,.722-.3,1.014,1.014,0,0,1,.722.3,1.014,1.014,0,0,1,.3.723,1.01,1.01,0,0,1-.3.722l-.615.616h1.75a4.67,4.67,0,0,1,4.666,4.664A4.673,4.673,0,0,1-1835.528,1539.013Z" transform="translate(1846.757 -1524.153)" fill="#f2f2f2"/>
  </g>
</svg>
