<svg xmlns="http://www.w3.org/2000/svg" xmlns:xlink="http://www.w3.org/1999/xlink" width="26" height="26" viewBox="0 0 26 26">
  <defs>
    <clipPath id="clip-xemad_c">
      <rect width="26" height="26"/>
    </clipPath>
  </defs>
  <g id="xemad_c" clip-path="url(#clip-xemad_c)">
    <g id="search" transform="translate(3 3)">
      <path id="Path_30355" data-name="Path 30355" d="M315.2,313.608h0a1.61,1.61,0,0,1-1.591,1.591h0a1.651,1.651,0,0,1-1.182-.5l-5.091-5.545a.439.439,0,0,1,0-.636l1.182-1.182a.439.439,0,0,1,.636,0l5.545,5.136A1.549,1.549,0,0,1,315.2,313.608Z" transform="translate(-295.2 -295.199)" fill="#b06328"/>
      <rect id="Rectangle_4315" data-name="Rectangle 4315" width="1.273" height="1.909" transform="translate(13.17 12.27) rotate(135)" fill="#b0c4d8"/>
      <path id="Path_30356" data-name="Path 30356" d="M280.863,280.864l.227.227.455-.455-1.364-1.364-.909.909.682.682h0A.607.607,0,0,1,280.863,280.864Z" transform="translate(-268.363 -268.364)" fill="#99b4cd"/>
      <path id="Path_30357" data-name="Path 30357" d="M6.818,0a6.818,6.818,0,1,0,6.818,6.818A6.809,6.809,0,0,0,6.818,0Zm0,12.273a5.455,5.455,0,1,1,5.455-5.455A5.471,5.471,0,0,1,6.818,12.273Z" fill="#c4d7e5"/>
      <circle id="Ellipse_33" data-name="Ellipse 33" cx="5.455" cy="5.455" r="5.455" transform="translate(1.364 1.364)" fill="#70b7e5"/>
      <path id="Path_30358" data-name="Path 30358" d="M72.244,74.93a3.858,3.858,0,0,1,3.318-3.318h.045a.669.669,0,0,0,.091-1.318,4.58,4.58,0,0,0-1.364-.045,4.05,4.05,0,0,0-3.409,3.409,3.419,3.419,0,0,0,.045,1.364.666.666,0,0,0,1.318-.091C72.244,74.975,72.244,74.93,72.244,74.93Z" transform="translate(-68.108 -67.475)" fill="#92c5eb"/>
      <path id="Path_30359" data-name="Path 30359" d="M35.364,40.819a5.471,5.471,0,0,1,5.455-5.455,5.7,5.7,0,0,1,3.636,1.364,5.392,5.392,0,0,0-4.091-1.818,5.471,5.471,0,0,0-5.455,5.455,5.554,5.554,0,0,0,1.818,4.091A5.7,5.7,0,0,1,35.364,40.819Z" transform="translate(-33.545 -33.546)" fill="#4c9cd6"/>
      <path id="Path_30360" data-name="Path 30360" d="M174.545,181.364h0a6.809,6.809,0,0,0,6.818-6.818h0a.456.456,0,0,0-.455.455,6.183,6.183,0,0,1-1.818,4A6.4,6.4,0,0,1,175,180.91.456.456,0,0,0,174.545,181.364Z" transform="translate(-167.727 -167.728)" fill="#b0c9db"/>
      <path id="Path_30361" data-name="Path 30361" d="M6.818,0h0A6.809,6.809,0,0,0,0,6.818H0a.455.455,0,0,0,.455-.455A6.154,6.154,0,0,1,2.136,2.5,6.674,6.674,0,0,1,6.364.455.455.455,0,0,0,6.818,0Z" fill="#e2e7f0"/>
      <path id="Path_30362" data-name="Path 30362" d="M320.246,347.65l-.273-.227a1.588,1.588,0,0,1,.364,1h0a.653.653,0,0,1-1.136.409l-4.773-4.773a.659.659,0,0,0-.955,0l-.455.455,4.955,5.318a1.824,1.824,0,0,0,1,.546,1.592,1.592,0,0,0,1.773-1.773A1.416,1.416,0,0,0,320.246,347.65Z" transform="translate(-300.792 -330.423)" fill="#a35425"/>
      <path id="Path_30363" data-name="Path 30363" d="M344.077,322.15a.273.273,0,0,1-.182-.045l-1.136-1.136a.225.225,0,1,1,.318-.318l1.136,1.136a.22.22,0,0,1,0,.318C344.214,322.15,344.123,322.15,344.077,322.15Z" transform="translate(-329.304 -308.059)" fill="#c97629"/>
    </g>
  </g>
</svg>
