<svg xmlns="http://www.w3.org/2000/svg" xmlns:xlink="http://www.w3.org/1999/xlink" width="20" height="20" viewBox="0 0 20 20">
  <defs>
    <clipPath id="clip-xuli_hv">
      <rect width="20" height="20"/>
    </clipPath>
  </defs>
  <g id="xuli_hv" clip-path="url(#clip-xuli_hv)">
    <path id="Path_30609" data-name="Path 30609" d="M-1585.555,1499.168a9.935,9.935,0,0,0-7.071-2.928,10.052,10.052,0,0,0-2.207.243l3.025.631-1.713,3.07a6.146,6.146,0,0,1,.9-.066,6.128,6.128,0,0,1,6.122,6.121,6.128,6.128,0,0,1-6.122,6.122,6.128,6.128,0,0,1-6.121-6.121,6.132,6.132,0,0,1,4.017-5.749l-.478-1.047-.506.24a7.235,7.235,0,0,0-3.752,4.27,7.134,7.134,0,0,0,.511,5.658,7.179,7.179,0,0,0,5.982,3.742.807.807,0,0,0-.465.728.8.8,0,0,0,.43.7,8.634,8.634,0,0,1-6.991-4.128,8.554,8.554,0,0,1-.878-6.976,8.642,8.642,0,0,1,4.583-5.307l.493-.231-.544-1.193a9.974,9.974,0,0,0-3.352,2.216,9.936,9.936,0,0,0-2.929,7.071,9.935,9.935,0,0,0,2.929,7.072,9.938,9.938,0,0,0,7.071,2.929,9.936,9.936,0,0,0,7.071-2.929,9.935,9.935,0,0,0,2.929-7.072A9.936,9.936,0,0,0-1585.555,1499.168Zm.225,9.334a.8.8,0,0,0-.6.272,7.127,7.127,0,0,0,.465-1.8.812.812,0,0,0,.747.494.8.8,0,0,0,.666-.374,8.623,8.623,0,0,1-.506,2.028A.8.8,0,0,0-1585.33,1508.5Zm1.293-2.266a.8.8,0,0,0-.678-.391.812.812,0,0,0-.736.476,7.186,7.186,0,0,0-.169-1.7.8.8,0,0,0,.643.34.8.8,0,0,0,.759-.546A8.522,8.522,0,0,1-1584.037,1506.236Zm-8.2,8.547a.8.8,0,0,0,.425-.7.809.809,0,0,0-.47-.731,7.063,7.063,0,0,0,2.216-.436,7.252,7.252,0,0,0,2.153-1.3.8.8,0,0,0-.113.39.813.813,0,0,0,.813.813.742.742,0,0,0,.124-.025,8.71,8.71,0,0,1-2.881,1.6A8.467,8.467,0,0,1-1592.238,1514.783Zm5.814-2.662a.881.881,0,0,0,.023-.114.813.813,0,0,0-.813-.813.813.813,0,0,0-.341.08,7.135,7.135,0,0,0,1.412-1.96h0a.813.813,0,0,0,.813.813.788.788,0,0,0,.416-.131c-.032.066-.049.137-.083.2A8.552,8.552,0,0,1-1586.424,1512.121Z" transform="translate(1602.626 -1496.24)" fill="#fff"/>
  </g>
</svg>
